<?xml version="1.0" encoding="UTF-8"?>
<svg version="1.1" xmlns="http://www.w3.org/2000/svg" width="768" height="768">
<path d="M0 0 C2.07122481 0.00493746 4.14245412 0.00822748 6.21368408 0.00996399 C10.51662867 0.01753946 14.81923289 0.03791256 19.12207031 0.0690918 C24.63309061 0.10896285 30.14389247 0.12675712 35.65504074 0.13640118 C40.93672312 0.14636399 46.21835287 0.16621412 51.5 0.1875 C52.50177025 0.19089575 53.5035405 0.1942915 54.53566742 0.19779015 C57.36596463 0.20937331 60.19612519 0.22788865 63.02636719 0.2487793 C63.86065247 0.2514682 64.69493774 0.2541571 65.55450439 0.25692749 C69.48357283 0.29328596 73.11673651 0.45993226 76.953125 1.42578125 C76.953125 2.08578125 76.953125 2.74578125 76.953125 3.42578125 C77.63375 3.46316406 78.314375 3.50054687 79.015625 3.5390625 C117.8501772 6.17278878 157.89680961 20.06254275 192.57373047 37.24780273 C194.27617629 38.09064094 195.98420855 38.92223228 197.69580078 39.74633789 C205.62850981 43.61312414 213.18546487 48.00573267 220.703125 52.61328125 C221.62038864 53.1729509 221.62038864 53.1729509 222.55618286 53.743927 C238.10126653 63.2367306 253.28784249 73.2669695 267.1328125 85.15234375 C269.790685 87.56562318 269.790685 87.56562318 272.953125 88.42578125 C272.953125 89.08578125 272.953125 89.74578125 272.953125 90.42578125 C273.613125 90.42578125 274.273125 90.42578125 274.953125 90.42578125 C275.489375 91.10640625 276.025625 91.78703125 276.578125 92.48828125 C279.00636412 95.49162963 281.56585547 97.78045665 284.484375 100.28515625 C292.44391611 107.18678367 300.10457851 114.24389083 306.953125 122.26953125 C309.11183277 124.59688806 311.47399525 126.45074122 313.953125 128.42578125 C314.99102081 130.06911629 315.98880424 131.73821992 316.953125 133.42578125 C318.95470769 136.03310608 321.05414347 138.54776942 323.40795898 140.84667969 C358.73706512 176.95169762 399.48146383 250.66900687 401.04296875 302.40234375 C401.01332031 303.07007813 400.98367188 303.7378125 400.953125 304.42578125 C401.613125 304.75578125 402.273125 305.08578125 402.953125 305.42578125 C403.42382812 307.35595703 403.42382812 307.35595703 403.734375 309.87109375 C403.85425781 310.78375 403.97414063 311.69640625 404.09765625 312.63671875 C404.27361328 314.07917969 404.27361328 314.07917969 404.453125 315.55078125 C405.22275679 321.70783556 406.17988682 327.46255284 407.953125 333.42578125 C408.87694585 338.72261704 409.10664777 343.82897485 409.11425781 349.18408203 C409.11922272 350.03229019 409.12418762 350.88049835 409.12930298 351.75440979 C409.14383237 354.5433129 409.15071204 357.3321591 409.15625 360.12109375 C409.15907738 361.08034634 409.16190475 362.03959892 409.16481781 363.02791977 C409.17977505 368.10683209 409.18902571 373.18571628 409.19335938 378.26464844 C409.1988311 383.47930771 409.22284175 388.69370419 409.25133133 393.90828133 C409.27006855 397.94577761 409.27516923 401.98321207 409.27669525 406.02074814 C409.27969861 407.94145007 409.28764754 409.86215152 409.30088043 411.78281021 C409.36934432 422.48583675 408.82821168 432.03968146 405.953125 442.42578125 C405.55165219 444.49729391 405.16908954 446.57263487 404.8125 448.65234375 C397.31668807 491.96185315 383.09545695 532.13013389 362.32470703 570.84082031 C360.46895439 574.33827652 358.70343965 577.87454044 356.953125 581.42578125 C356.293125 581.42578125 355.633125 581.42578125 354.953125 581.42578125 C354.69660156 582.13476562 354.44007813 582.84375 354.17578125 583.57421875 C352.85615251 586.65194713 351.23364686 589.25739112 349.390625 592.05078125 C347.51562553 594.89641454 346.0321837 597.18860514 344.953125 600.42578125 C344.293125 600.42578125 343.633125 600.42578125 342.953125 600.42578125 C342.72109375 600.9465625 342.4890625 601.46734375 342.25 602.00390625 C340.5073339 605.25828271 338.36453266 608.19242422 336.203125 611.17578125 C335.75573975 611.79686768 335.30835449 612.4179541 334.84741211 613.05786133 C325.7306226 625.68630309 325.7306226 625.68630309 323.35546875 627.9453125 C321.69815527 629.48599187 321.69815527 629.48599187 320.953125 632.42578125 C320.293125 632.42578125 319.633125 632.42578125 318.953125 632.42578125 C318.953125 633.08578125 318.953125 633.74578125 318.953125 634.42578125 C318.31375 634.90015625 317.674375 635.37453125 317.015625 635.86328125 C314.66939537 637.33491775 314.66939537 637.33491775 313.953125 640.42578125 C312.421875 641.8984375 312.421875 641.8984375 310.453125 643.48828125 C307.36421743 646.10489539 304.66080591 648.80044019 302.015625 651.86328125 C295.77543964 658.96681975 288.73913008 665.25860649 281.80664062 671.67431641 C280.17798582 673.21330081 278.6140925 674.79048109 277.0625 676.40625 C274.953125 678.42578125 274.953125 678.42578125 272.953125 678.42578125 C272.953125 679.08578125 272.953125 679.74578125 272.953125 680.42578125 C271.30263793 681.45226565 269.63111729 682.44490427 267.953125 683.42578125 C265.59101782 685.17593622 263.30648164 687.02122537 261.015625 688.86328125 C257.64352328 691.5704615 254.30515272 694.19208218 250.69921875 696.5859375 C248.0538723 698.22444767 248.0538723 698.22444767 246.50634766 699.89624023 C244.88550243 701.49237279 243.30220977 702.56767216 241.35546875 703.73828125 C240.64567871 704.16842529 239.93588867 704.59856934 239.20458984 705.04174805 C238.44098145 705.498479 237.67737305 705.95520996 236.890625 706.42578125 C235.25629606 707.41110287 233.6221876 708.39679028 231.98828125 709.3828125 C230.73362061 710.13812256 230.73362061 710.13812256 229.45361328 710.90869141 C227.06492803 712.3579484 224.69217801 713.82967388 222.32421875 715.3125 C213.40648293 720.8822244 204.41753986 725.96990731 194.91992188 730.48291016 C192.97655978 731.41454675 191.05041297 732.37564608 189.125 733.34375 C156.86684424 749.33651452 113.44837716 766.14453553 76.953125 765.42578125 C76.953125 766.08578125 76.953125 766.74578125 76.953125 767.42578125 C74.19505349 768.34513842 72.55233742 768.55496981 69.70899963 768.56622314 C68.4114978 768.57478836 68.4114978 768.57478836 67.08778381 768.58352661 C66.14172775 768.58464447 65.19567169 768.58576233 64.22094727 768.58691406 C63.22231659 768.59187897 62.22368591 768.59684387 61.1947937 768.60195923 C57.88636592 768.6165825 54.57798606 768.62338245 51.26953125 768.62890625 C48.97411599 768.63465669 46.67870075 768.64041444 44.38328552 768.6461792 C39.56891658 768.65668905 34.75456435 768.66253212 29.94018555 768.66601562 C23.76496445 768.67150634 17.58996319 768.6955469 11.41481113 768.72398758 C6.67338917 768.74258935 1.93202048 768.74781821 -2.80943489 768.7493515 C-5.08645902 768.75238312 -7.36348209 768.76042869 -9.6404705 768.77353668 C-12.82225281 768.7905487 -16.00349368 768.78872888 -19.18530273 768.78222656 C-20.60135048 768.79604874 -20.60135048 768.79604874 -22.04600525 768.81015015 C-29.54563952 768.76202201 -29.54563952 768.76202201 -33.046875 765.42578125 C-35.63518124 764.87177233 -38.1186638 764.45434777 -40.734375 764.11328125 C-66.54441211 760.25381145 -91.58746348 752.34149846 -116.046875 743.42578125 C-116.97371094 743.090625 -117.90054688 742.75546875 -118.85546875 742.41015625 C-138.82436188 734.79636684 -157.99842172 724.22306467 -176.234375 713.17578125 C-177.19053711 712.59739502 -178.14669922 712.01900879 -179.13183594 711.4230957 C-184.09095021 708.37936721 -188.82501744 705.21791219 -193.3840332 701.59863281 C-195.15582861 700.22924756 -195.15582861 700.22924756 -198.046875 699.42578125 C-198.046875 698.76578125 -198.046875 698.10578125 -198.046875 697.42578125 C-198.58441406 697.18730469 -199.12195313 696.94882812 -199.67578125 696.703125 C-202.69124599 695.07864894 -205.26839513 693.07407159 -207.984375 690.98828125 C-211.5783816 688.23030147 -215.15230213 685.73392846 -219.046875 683.42578125 C-220.4033914 682.11604127 -221.73245138 680.77775983 -223.046875 679.42578125 C-224.99890091 677.70025624 -226.97082753 675.99988952 -228.94921875 674.3046875 C-230.45917641 672.95219284 -231.92329089 671.54788242 -233.35546875 670.11328125 C-235.9320482 667.54044139 -238.57884402 665.07675818 -241.26220703 662.6171875 C-249.63733107 654.92517892 -257.53449785 646.97043966 -264.7265625 638.14453125 C-266.75598466 635.408717 -266.75598466 635.408717 -269.046875 634.42578125 C-269.046875 633.76578125 -269.046875 633.10578125 -269.046875 632.42578125 C-269.706875 632.42578125 -270.366875 632.42578125 -271.046875 632.42578125 C-272.07115557 630.7739256 -273.06320861 629.10213987 -274.046875 627.42578125 C-276.09206397 624.63042078 -278.23107598 621.90817475 -280.359375 619.17578125 C-284.45982338 613.87698434 -288.45681585 608.59243995 -291.99609375 602.89453125 C-292.99450687 601.25728993 -292.99450687 601.25728993 -295.046875 600.42578125 C-295.97673927 598.87403324 -296.84064138 597.28252333 -297.671875 595.67578125 C-299.86474632 591.54833354 -302.17393385 587.56315069 -304.671875 583.61328125 C-329.75869608 543.11051287 -346.86022122 497.46636235 -354.859375 450.48828125 C-354.98344727 449.7607666 -355.10751953 449.03325195 -355.23535156 448.28369141 C-355.87272453 444.29305978 -356.16697822 440.46504221 -356.046875 436.42578125 C-356.706875 436.42578125 -357.366875 436.42578125 -358.046875 436.42578125 C-358.92114499 431.15733515 -359.19524929 426.09440778 -359.19213867 420.75927734 C-359.19549728 419.92082275 -359.1988559 419.08236816 -359.20231628 418.21850586 C-359.2117703 415.4620615 -359.21376687 412.70567829 -359.21484375 409.94921875 C-359.21806115 408.0173846 -359.22142558 406.08555069 -359.22492981 404.15371704 C-359.23090792 400.10719234 -359.23277116 396.06068896 -359.23217773 392.01416016 C-359.23207641 386.86009287 -359.24570363 381.70616427 -359.26294994 376.55212975 C-359.27413879 372.56095772 -359.27609481 368.56981844 -359.27556801 364.57863235 C-359.27673873 362.68026885 -359.28110878 360.78190424 -359.28890038 358.88355637 C-359.33999413 345.14470511 -358.11199126 332.48613978 -354.8828125 319.08984375 C-354.09559854 315.63934518 -353.41992411 312.18655572 -352.76660156 308.70922852 C-344.19458116 263.61701514 -326.92850202 220.44560473 -302.58984375 181.57421875 C-300.76439889 178.65546306 -299.09677815 175.68742542 -297.47265625 172.65234375 C-295.66425852 169.35245116 -293.81022859 167.00491127 -291.046875 164.42578125 C-289.38160301 162.1944267 -287.76236973 159.95855156 -286.171875 157.67578125 C-285.28313454 156.41755713 -284.39381498 155.15974185 -283.50390625 153.90234375 C-283.07932129 153.30067383 -282.65473633 152.69900391 -282.21728516 152.07910156 C-277.44113365 145.33231432 -272.45034789 138.5573057 -266.40234375 132.8828125 C-264.79277281 131.35454897 -264.79277281 131.35454897 -264.046875 128.42578125 C-262.41015625 126.8828125 -262.41015625 126.8828125 -260.359375 125.23828125 C-257.47341837 122.80421819 -255.16699774 120.44254901 -252.984375 117.36328125 C-250.12861848 113.36060364 -246.85756024 110.4935027 -243.046875 107.42578125 C-237.61493006 102.88795704 -237.61493006 102.88795704 -232.859375 97.67578125 C-230.84428001 95.17428403 -228.81710299 93.99807281 -226.046875 92.42578125 C-225.716875 91.76578125 -225.386875 91.10578125 -225.046875 90.42578125 C-223.38202785 89.42275496 -221.71498293 88.42337521 -220.046875 87.42578125 C-218.14712865 85.89346435 -216.27376111 84.328108 -214.421875 82.73828125 C-198.70593438 69.42578125 -198.70593438 69.42578125 -195.046875 69.42578125 C-195.046875 68.76578125 -195.046875 68.10578125 -195.046875 67.42578125 C-194.09425781 66.89855469 -193.14164063 66.37132813 -192.16015625 65.828125 C-186.49680016 62.59293817 -181.11454959 58.91208734 -175.69335938 55.29101562 C-160.71708175 45.42578125 -160.71708175 45.42578125 -156.046875 45.42578125 C-156.046875 44.76578125 -156.046875 44.10578125 -156.046875 43.42578125 C-155.510625 43.22984375 -154.974375 43.03390625 -154.421875 42.83203125 C-148.01705077 40.38808516 -141.94016774 37.45315377 -135.84570312 34.33203125 C-109.46272717 20.86544769 -80.27691323 12.49792131 -51.30908203 6.85888672 C-50.67335109 6.73510493 -50.03762014 6.61132315 -49.38262463 6.4837904 C-47.37601124 6.09463242 -45.36846708 5.71028234 -43.3608551 5.3263092 C-39.99683683 4.65386002 -36.7133408 3.79557255 -33.40633774 2.88032818 C-22.27509069 -0.08245247 -11.45252435 -0.10597758 0 0 Z " fill="#654190" transform="translate(359.046875,-0.42578125)"/>
<path d="M0 0 C2.07122481 0.00493746 4.14245412 0.00822748 6.21368408 0.00996399 C10.51662867 0.01753946 14.81923289 0.03791256 19.12207031 0.0690918 C24.63309061 0.10896285 30.14389247 0.12675712 35.65504074 0.13640118 C40.93672312 0.14636399 46.21835287 0.16621412 51.5 0.1875 C52.50177025 0.19089575 53.5035405 0.1942915 54.53566742 0.19779015 C57.36596463 0.20937331 60.19612519 0.22788865 63.02636719 0.2487793 C63.86065247 0.2514682 64.69493774 0.2541571 65.55450439 0.25692749 C69.48357283 0.29328596 73.11673651 0.45993226 76.953125 1.42578125 C76.953125 2.08578125 76.953125 2.74578125 76.953125 3.42578125 C77.63375 3.46316406 78.314375 3.50054687 79.015625 3.5390625 C117.8501772 6.17278878 157.89680961 20.06254275 192.57373047 37.24780273 C194.27617629 38.09064094 195.98420855 38.92223228 197.69580078 39.74633789 C205.62850981 43.61312414 213.18546487 48.00573267 220.703125 52.61328125 C221.62038864 53.1729509 221.62038864 53.1729509 222.55618286 53.743927 C238.10126653 63.2367306 253.28784249 73.2669695 267.1328125 85.15234375 C269.790685 87.56562318 269.790685 87.56562318 272.953125 88.42578125 C272.953125 89.08578125 272.953125 89.74578125 272.953125 90.42578125 C273.613125 90.42578125 274.273125 90.42578125 274.953125 90.42578125 C275.489375 91.10640625 276.025625 91.78703125 276.578125 92.48828125 C279.00636412 95.49162963 281.56585547 97.78045665 284.484375 100.28515625 C292.44391611 107.18678367 300.10457851 114.24389083 306.953125 122.26953125 C309.11183277 124.59688806 311.47399525 126.45074122 313.953125 128.42578125 C314.99102081 130.06911629 315.98880424 131.73821992 316.953125 133.42578125 C318.95470769 136.03310608 321.05414347 138.54776942 323.40795898 140.84667969 C358.73706512 176.95169762 399.48146383 250.66900687 401.04296875 302.40234375 C401.01332031 303.07007813 400.98367188 303.7378125 400.953125 304.42578125 C401.613125 304.75578125 402.273125 305.08578125 402.953125 305.42578125 C403.42382812 307.35595703 403.42382812 307.35595703 403.734375 309.87109375 C403.85425781 310.78375 403.97414063 311.69640625 404.09765625 312.63671875 C404.27361328 314.07917969 404.27361328 314.07917969 404.453125 315.55078125 C405.22275679 321.70783556 406.17988682 327.46255284 407.953125 333.42578125 C408.87694585 338.72261704 409.10664777 343.82897485 409.11425781 349.18408203 C409.11922272 350.03229019 409.12418762 350.88049835 409.12930298 351.75440979 C409.14383237 354.5433129 409.15071204 357.3321591 409.15625 360.12109375 C409.15907738 361.08034634 409.16190475 362.03959892 409.16481781 363.02791977 C409.17977505 368.10683209 409.18902571 373.18571628 409.19335938 378.26464844 C409.1988311 383.47930771 409.22284175 388.69370419 409.25133133 393.90828133 C409.27006855 397.94577761 409.27516923 401.98321207 409.27669525 406.02074814 C409.27969861 407.94145007 409.28764754 409.86215152 409.30088043 411.78281021 C409.36934432 422.48583675 408.82821168 432.03968146 405.953125 442.42578125 C405.55165219 444.49729391 405.16908954 446.57263487 404.8125 448.65234375 C397.31668807 491.96185315 383.09545695 532.13013389 362.32470703 570.84082031 C360.46895439 574.33827652 358.70343965 577.87454044 356.953125 581.42578125 C356.293125 581.42578125 355.633125 581.42578125 354.953125 581.42578125 C354.69660156 582.13476562 354.44007813 582.84375 354.17578125 583.57421875 C352.85615251 586.65194713 351.23364686 589.25739112 349.390625 592.05078125 C347.51562553 594.89641454 346.0321837 597.18860514 344.953125 600.42578125 C344.293125 600.42578125 343.633125 600.42578125 342.953125 600.42578125 C342.72109375 600.9465625 342.4890625 601.46734375 342.25 602.00390625 C340.5073339 605.25828271 338.36453266 608.19242422 336.203125 611.17578125 C335.75573975 611.79686768 335.30835449 612.4179541 334.84741211 613.05786133 C325.7306226 625.68630309 325.7306226 625.68630309 323.35546875 627.9453125 C321.69815527 629.48599187 321.69815527 629.48599187 320.953125 632.42578125 C320.293125 632.42578125 319.633125 632.42578125 318.953125 632.42578125 C318.953125 633.08578125 318.953125 633.74578125 318.953125 634.42578125 C318.31375 634.90015625 317.674375 635.37453125 317.015625 635.86328125 C314.66939537 637.33491775 314.66939537 637.33491775 313.953125 640.42578125 C312.421875 641.8984375 312.421875 641.8984375 310.453125 643.48828125 C307.36421743 646.10489539 304.66080591 648.80044019 302.015625 651.86328125 C295.77543964 658.96681975 288.73913008 665.25860649 281.80664062 671.67431641 C280.17798582 673.21330081 278.6140925 674.79048109 277.0625 676.40625 C274.953125 678.42578125 274.953125 678.42578125 272.953125 678.42578125 C272.953125 679.08578125 272.953125 679.74578125 272.953125 680.42578125 C271.30263793 681.45226565 269.63111729 682.44490427 267.953125 683.42578125 C265.59101782 685.17593622 263.30648164 687.02122537 261.015625 688.86328125 C257.64352328 691.5704615 254.30515272 694.19208218 250.69921875 696.5859375 C248.0538723 698.22444767 248.0538723 698.22444767 246.50634766 699.89624023 C244.88550243 701.49237279 243.30220977 702.56767216 241.35546875 703.73828125 C240.64567871 704.16842529 239.93588867 704.59856934 239.20458984 705.04174805 C238.44098145 705.498479 237.67737305 705.95520996 236.890625 706.42578125 C235.25629606 707.41110287 233.6221876 708.39679028 231.98828125 709.3828125 C230.73362061 710.13812256 230.73362061 710.13812256 229.45361328 710.90869141 C227.06492803 712.3579484 224.69217801 713.82967388 222.32421875 715.3125 C213.40648293 720.8822244 204.41753986 725.96990731 194.91992188 730.48291016 C192.97655978 731.41454675 191.05041297 732.37564608 189.125 733.34375 C156.86684424 749.33651452 113.44837716 766.14453553 76.953125 765.42578125 C76.953125 766.08578125 76.953125 766.74578125 76.953125 767.42578125 C74.19505349 768.34513842 72.55233742 768.55496981 69.70899963 768.56622314 C68.4114978 768.57478836 68.4114978 768.57478836 67.08778381 768.58352661 C66.14172775 768.58464447 65.19567169 768.58576233 64.22094727 768.58691406 C63.22231659 768.59187897 62.22368591 768.59684387 61.1947937 768.60195923 C57.88636592 768.6165825 54.57798606 768.62338245 51.26953125 768.62890625 C48.97411599 768.63465669 46.67870075 768.64041444 44.38328552 768.6461792 C39.56891658 768.65668905 34.75456435 768.66253212 29.94018555 768.66601562 C23.76496445 768.67150634 17.58996319 768.6955469 11.41481113 768.72398758 C6.67338917 768.74258935 1.93202048 768.74781821 -2.80943489 768.7493515 C-5.08645902 768.75238312 -7.36348209 768.76042869 -9.6404705 768.77353668 C-12.82225281 768.7905487 -16.00349368 768.78872888 -19.18530273 768.78222656 C-20.60135048 768.79604874 -20.60135048 768.79604874 -22.04600525 768.81015015 C-29.54563952 768.76202201 -29.54563952 768.76202201 -33.046875 765.42578125 C-35.63518124 764.87177233 -38.1186638 764.45434777 -40.734375 764.11328125 C-66.54441211 760.25381145 -91.58746348 752.34149846 -116.046875 743.42578125 C-116.97371094 743.090625 -117.90054688 742.75546875 -118.85546875 742.41015625 C-138.82436188 734.79636684 -157.99842172 724.22306467 -176.234375 713.17578125 C-177.19053711 712.59739502 -178.14669922 712.01900879 -179.13183594 711.4230957 C-184.09095021 708.37936721 -188.82501744 705.21791219 -193.3840332 701.59863281 C-195.15582861 700.22924756 -195.15582861 700.22924756 -198.046875 699.42578125 C-198.046875 698.76578125 -198.046875 698.10578125 -198.046875 697.42578125 C-198.58441406 697.18730469 -199.12195313 696.94882812 -199.67578125 696.703125 C-202.69124599 695.07864894 -205.26839513 693.07407159 -207.984375 690.98828125 C-211.5783816 688.23030147 -215.15230213 685.73392846 -219.046875 683.42578125 C-220.4033914 682.11604127 -221.73245138 680.77775983 -223.046875 679.42578125 C-224.99890091 677.70025624 -226.97082753 675.99988952 -228.94921875 674.3046875 C-230.45917641 672.95219284 -231.92329089 671.54788242 -233.35546875 670.11328125 C-235.9320482 667.54044139 -238.57884402 665.07675818 -241.26220703 662.6171875 C-249.63733107 654.92517892 -257.53449785 646.97043966 -264.7265625 638.14453125 C-266.75598466 635.408717 -266.75598466 635.408717 -269.046875 634.42578125 C-269.046875 633.76578125 -269.046875 633.10578125 -269.046875 632.42578125 C-269.706875 632.42578125 -270.366875 632.42578125 -271.046875 632.42578125 C-272.07115557 630.7739256 -273.06320861 629.10213987 -274.046875 627.42578125 C-276.09206397 624.63042078 -278.23107598 621.90817475 -280.359375 619.17578125 C-284.45982338 613.87698434 -288.45681585 608.59243995 -291.99609375 602.89453125 C-292.99450687 601.25728993 -292.99450687 601.25728993 -295.046875 600.42578125 C-295.97673927 598.87403324 -296.84064138 597.28252333 -297.671875 595.67578125 C-299.86474632 591.54833354 -302.17393385 587.56315069 -304.671875 583.61328125 C-329.75869608 543.11051287 -346.86022122 497.46636235 -354.859375 450.48828125 C-354.98344727 449.7607666 -355.10751953 449.03325195 -355.23535156 448.28369141 C-355.87272453 444.29305978 -356.16697822 440.46504221 -356.046875 436.42578125 C-356.706875 436.42578125 -357.366875 436.42578125 -358.046875 436.42578125 C-358.92114499 431.15733515 -359.19524929 426.09440778 -359.19213867 420.75927734 C-359.19549728 419.92082275 -359.1988559 419.08236816 -359.20231628 418.21850586 C-359.2117703 415.4620615 -359.21376687 412.70567829 -359.21484375 409.94921875 C-359.21806115 408.0173846 -359.22142558 406.08555069 -359.22492981 404.15371704 C-359.23090792 400.10719234 -359.23277116 396.06068896 -359.23217773 392.01416016 C-359.23207641 386.86009287 -359.24570363 381.70616427 -359.26294994 376.55212975 C-359.27413879 372.56095772 -359.27609481 368.56981844 -359.27556801 364.57863235 C-359.27673873 362.68026885 -359.28110878 360.78190424 -359.28890038 358.88355637 C-359.33999413 345.14470511 -358.11199126 332.48613978 -354.8828125 319.08984375 C-354.09559854 315.63934518 -353.41992411 312.18655572 -352.76660156 308.70922852 C-344.19458116 263.61701514 -326.92850202 220.44560473 -302.58984375 181.57421875 C-300.76439889 178.65546306 -299.09677815 175.68742542 -297.47265625 172.65234375 C-295.66425852 169.35245116 -293.81022859 167.00491127 -291.046875 164.42578125 C-289.38160301 162.1944267 -287.76236973 159.95855156 -286.171875 157.67578125 C-285.28313454 156.41755713 -284.39381498 155.15974185 -283.50390625 153.90234375 C-283.07932129 153.30067383 -282.65473633 152.69900391 -282.21728516 152.07910156 C-277.44113365 145.33231432 -272.45034789 138.5573057 -266.40234375 132.8828125 C-264.79277281 131.35454897 -264.79277281 131.35454897 -264.046875 128.42578125 C-262.41015625 126.8828125 -262.41015625 126.8828125 -260.359375 125.23828125 C-257.47341837 122.80421819 -255.16699774 120.44254901 -252.984375 117.36328125 C-250.12861848 113.36060364 -246.85756024 110.4935027 -243.046875 107.42578125 C-237.61493006 102.88795704 -237.61493006 102.88795704 -232.859375 97.67578125 C-230.84428001 95.17428403 -228.81710299 93.99807281 -226.046875 92.42578125 C-225.716875 91.76578125 -225.386875 91.10578125 -225.046875 90.42578125 C-223.38202785 89.42275496 -221.71498293 88.42337521 -220.046875 87.42578125 C-218.14712865 85.89346435 -216.27376111 84.328108 -214.421875 82.73828125 C-198.70593438 69.42578125 -198.70593438 69.42578125 -195.046875 69.42578125 C-195.046875 68.76578125 -195.046875 68.10578125 -195.046875 67.42578125 C-194.09425781 66.89855469 -193.14164063 66.37132813 -192.16015625 65.828125 C-186.49680016 62.59293817 -181.11454959 58.91208734 -175.69335938 55.29101562 C-160.71708175 45.42578125 -160.71708175 45.42578125 -156.046875 45.42578125 C-156.046875 44.76578125 -156.046875 44.10578125 -156.046875 43.42578125 C-155.510625 43.22984375 -154.974375 43.03390625 -154.421875 42.83203125 C-148.01705077 40.38808516 -141.94016774 37.45315377 -135.84570312 34.33203125 C-109.46272717 20.86544769 -80.27691323 12.49792131 -51.30908203 6.85888672 C-50.67335109 6.73510493 -50.03762014 6.61132315 -49.38262463 6.4837904 C-47.37601124 6.09463242 -45.36846708 5.71028234 -43.3608551 5.3263092 C-39.99683683 4.65386002 -36.7133408 3.79557255 -33.40633774 2.88032818 C-22.27509069 -0.08245247 -11.45252435 -0.10597758 0 0 Z M-35.01269531 31.04785156 C-37.02794272 31.42226383 -39.04565219 31.75494917 -41.0703125 32.07421875 C-57.75435774 34.73854536 -73.95324919 39.26314427 -89.984375 44.55078125 C-90.97252197 44.87522217 -91.96066895 45.19966309 -92.97875977 45.53393555 C-97.9351169 47.20986892 -102.57371598 49.08430041 -107.20727539 51.51025391 C-110.13763454 52.96862774 -113.2077625 53.97945075 -116.296875 55.05078125 C-134.49762269 61.63403041 -151.96326418 71.42982527 -167.92578125 82.3046875 C-170.15025936 83.81644171 -172.38130909 85.30179757 -174.63671875 86.765625 C-182.51976201 91.90260165 -189.99063583 97.36823326 -197.31640625 103.2734375 C-200.046875 105.42578125 -200.046875 105.42578125 -202.046875 106.42578125 C-202.046875 107.08578125 -202.046875 107.74578125 -202.046875 108.42578125 C-202.58441406 108.64492187 -203.12195313 108.8640625 -203.67578125 109.08984375 C-206.85986168 110.88383964 -209.35079408 113.30200285 -211.984375 115.80078125 C-215.56742911 119.172007 -219.1845951 122.3703475 -223.046875 125.42578125 C-224.73398923 127.07174635 -226.4014372 128.73815274 -228.046875 130.42578125 C-229.1915625 131.50859375 -229.1915625 131.50859375 -230.359375 132.61328125 C-232.27401451 134.25700398 -232.27401451 134.25700398 -232.046875 136.42578125 C-233.531875 136.92078125 -233.531875 136.92078125 -235.046875 137.42578125 C-236.62704267 138.94648098 -236.62704267 138.94648098 -238.171875 140.86328125 C-240.81787236 143.99087227 -243.51935882 147.03931657 -246.296875 150.05078125 C-255.42992538 160.19343754 -263.42472096 171.11936362 -271.046875 182.42578125 C-271.82054768 183.53980421 -272.59530728 184.65307301 -273.37109375 185.765625 C-302.32051514 227.68608212 -320.63154644 276.33117018 -329.046875 326.42578125 C-329.28978271 327.86570435 -329.28978271 327.86570435 -329.53759766 329.3347168 C-333.34138571 352.83858857 -333.46788599 376.68009857 -333.046875 400.42578125 C-333.03285645 401.38274902 -333.01883789 402.3397168 -333.00439453 403.32568359 C-332.46916639 432.48734033 -326.26515698 461.04243034 -317.83251953 488.83105469 C-317.18283773 490.97674088 -316.54545977 493.12510269 -315.91796875 495.27734375 C-307.42602226 523.91545618 -293.64399911 552.58604044 -277.046875 577.42578125 C-276.10908203 578.86824219 -276.10908203 578.86824219 -275.15234375 580.33984375 C-267.14795251 592.55956529 -258.11399364 603.98836072 -249.046875 615.42578125 C-248.32628906 616.3384375 -247.60570312 617.25109375 -246.86328125 618.19140625 C-244.74660353 620.79514745 -242.44751251 623.07970369 -240.046875 625.42578125 C-235.78684633 629.60077941 -231.73110107 633.72521695 -228.046875 638.42578125 C-224.58283517 642.24451154 -224.58283517 642.24451154 -220.046875 644.42578125 C-220.046875 645.08578125 -220.046875 645.74578125 -220.046875 646.42578125 C-218.704321 647.86278347 -218.704321 647.86278347 -216.859375 649.36328125 C-216.12847656 649.98332031 -215.39757812 650.60335937 -214.64453125 651.2421875 C-213.35869141 652.32306641 -213.35869141 652.32306641 -212.046875 653.42578125 C-211.05558594 654.28042969 -210.06429687 655.13507812 -209.04296875 656.015625 C-197.93475931 667.08585735 -197.93475931 667.08585735 -185.046875 673.42578125 C-185.046875 674.08578125 -185.046875 674.74578125 -185.046875 675.42578125 C-182.70432735 677.14430491 -182.70432735 677.14430491 -179.796875 678.86328125 C-174.27376 682.2458239 -174.27376 682.2458239 -171.875 684.1484375 C-170.00870695 685.71215965 -170.00870695 685.71215965 -167.046875 685.42578125 C-167.046875 686.08578125 -167.046875 686.74578125 -167.046875 687.42578125 C-164.72294764 688.99170277 -162.41202194 690.40999267 -159.984375 691.80078125 C-158.85926514 692.45191895 -158.85926514 692.45191895 -157.71142578 693.11621094 C-143.98152958 700.97537372 -130.08750318 708.60431642 -115.265625 714.1953125 C-112.2071247 715.36452074 -109.26196429 716.66401898 -106.296875 718.05078125 C-31.04701261 752.60428949 65.04678508 749.60974086 141.953125 723.42578125 C142.93659912 723.09513672 142.93659912 723.09513672 143.93994141 722.7578125 C151.84334823 720.08760595 159.41735852 716.9925696 166.953125 713.42578125 C169.14030945 712.42509128 171.32782137 711.42511679 173.515625 710.42578125 C179.05254835 707.86774896 184.5149223 705.18615058 189.953125 702.42578125 C190.89929688 701.96042969 191.84546875 701.49507812 192.8203125 701.015625 C215.00109402 689.75929323 235.59762101 675.1578969 254.67578125 659.2734375 C256.953125 657.42578125 256.953125 657.42578125 259.953125 655.42578125 C259.953125 654.76578125 259.953125 654.10578125 259.953125 653.42578125 C260.51515625 653.17828125 261.0771875 652.93078125 261.65625 652.67578125 C264.34405069 651.21303258 266.41717982 649.45773252 268.703125 647.42578125 C269.50234375 646.72453125 270.3015625 646.02328125 271.125 645.30078125 C273.18582505 643.62356697 273.18582505 643.62356697 272.953125 641.42578125 C273.943125 641.09578125 274.933125 640.76578125 275.953125 640.42578125 C277.56556886 638.83511839 277.56556886 638.83511839 279.140625 636.86328125 C281.63638712 633.91565483 284.19531597 631.13004059 286.953125 628.42578125 C290.83339462 624.59002715 294.41409763 620.57571215 297.953125 616.42578125 C298.7884375 615.46800781 299.62375 614.51023437 300.484375 613.5234375 C316.76408901 596.34636492 316.76408901 596.34636492 325.953125 576.42578125 C326.613125 576.42578125 327.273125 576.42578125 327.953125 576.42578125 C328.613125 574.44578125 329.273125 572.46578125 329.953125 570.42578125 C330.613125 570.42578125 331.273125 570.42578125 331.953125 570.42578125 C332.32824219 569.66394531 332.70335937 568.90210938 333.08984375 568.1171875 C337.77849788 558.65720777 337.77849788 558.65720777 340.328125 554.17578125 C343.78890149 548.03318118 346.89299001 541.70807847 349.99511719 535.37890625 C350.84219573 533.65193675 351.69780452 531.92915704 352.5546875 530.20703125 C356.81469198 521.36809148 359.97877195 512.21063753 363.10498047 502.92626953 C363.89212659 500.60561595 364.70143515 498.29426283 365.51953125 495.984375 C372.28349581 476.66657978 376.88581373 456.6488346 379.953125 436.42578125 C380.17959717 434.98477051 380.17959717 434.98477051 380.41064453 433.51464844 C385.30375646 401.05225537 385.37154547 365.80216104 379.953125 333.42578125 C379.74381348 332.14864258 379.53450195 330.87150391 379.31884766 329.55566406 C376.55008003 312.88824601 373.11397067 296.53313281 367.953125 280.42578125 C367.66743652 279.50490723 367.38174805 278.5840332 367.08740234 277.63525391 C359.69430559 253.84234341 350.04024468 231.20937978 337.953125 209.42578125 C337.32792969 208.29140625 336.70273437 207.15703125 336.05859375 205.98828125 C328.95376965 193.47580416 320.57862119 181.7190842 312.14355469 170.07910156 C310.95584704 168.42956174 309.78474678 166.76931487 308.6171875 165.10546875 C307.90304687 164.09742188 307.18890625 163.089375 306.453125 162.05078125 C305.8240625 161.15617188 305.195 160.2615625 304.546875 159.33984375 C304.0209375 158.70820313 303.495 158.0765625 302.953125 157.42578125 C302.293125 157.42578125 301.633125 157.42578125 300.953125 157.42578125 C300.73785156 156.89210937 300.52257812 156.3584375 300.30078125 155.80859375 C298.45735656 152.54920517 295.95299127 149.99766355 293.390625 147.30078125 C288.07305743 141.66564611 288.07305743 141.66564611 286.953125 139.42578125 C286.293125 139.42578125 285.633125 139.42578125 284.953125 139.42578125 C284.623125 138.43578125 284.293125 137.44578125 283.953125 136.42578125 C281.63421396 133.91362762 279.29669816 131.68798182 276.578125 129.61328125 C274.28772409 127.70461383 272.60048108 125.88661112 270.703125 123.61328125 C267.54248738 119.91218828 264.12728015 117.07990184 260.234375 114.1796875 C258.05766721 112.50615703 256.08302718 110.73691007 254.078125 108.86328125 C235.12243563 91.77317818 212.42881011 78.0858663 189.82275391 66.39648438 C188.0092199 65.45490548 186.20582209 64.495818 184.40234375 63.53515625 C166.30068455 54.04155051 147.08670277 46.50258284 127.38330078 41.10400391 C124.84210311 40.39479684 122.317876 39.64008045 119.79296875 38.875 C103.84587887 34.08317771 87.81741765 30.98884311 71.328125 28.73828125 C70.4717041 28.61880127 69.6152832 28.49932129 68.73291016 28.3762207 C52.94910745 26.3538203 36.96832687 26.21941901 21.078125 26.23828125 C19.77100052 26.23868912 19.77100052 26.23868912 18.43746948 26.23910522 C0.2855707 26.26507598 -17.18276841 27.61085946 -35.01269531 31.04785156 Z " fill="#7D72B6" transform="translate(359.046875,-0.42578125)"/>
<path d="M0 0 C0.73412109 -0.02449219 1.46824219 -0.04898437 2.22460938 -0.07421875 C7.83795311 -0.10410345 11.1989127 0.92910316 15.6875 4.375 C19.28481137 10.60671672 19.15899732 16.58246816 19.19921875 23.65234375 C19.21716995 24.8188295 19.23512115 25.98531525 19.25361633 27.18714905 C19.30759379 30.89556312 19.34157574 34.60384938 19.375 38.3125 C19.40818405 40.83400211 19.44267471 43.35548738 19.47851562 45.87695312 C19.56331323 52.04285412 19.63171631 58.20877191 19.6875 64.375 C20.37447968 64.09463394 21.06145935 63.81426788 21.76925659 63.52540588 C22.67024078 63.16067673 23.57122498 62.79594757 24.49951172 62.42016602 C25.39274139 62.05729996 26.28597107 61.6944339 27.20626831 61.3205719 C39.22160975 56.74164875 55.53991123 57.8348673 67.27075195 62.68457031 C80.79017642 68.82674584 90.26789621 78.56435449 95.6875 92.375 C101.15076251 107.99707417 102.45866738 126.65434005 96.6875 142.375 C96.32398438 143.38691406 95.96046875 144.39882813 95.5859375 145.44140625 C89.40792305 161.36474027 79.85700059 171.41184542 64.51660156 178.58105469 C48.33795313 185.60360737 24.41673811 186.51083986 7.83203125 180.703125 C6.79433594 180.26484375 5.75664062 179.8265625 4.6875 179.375 C4.08341309 179.12298828 3.47932617 178.87097656 2.85693359 178.61132812 C-4.22481656 175.58794464 -11.48517925 172.42610247 -15.3125 165.375 C-16.96113319 161.09548891 -17.56730927 157.53797526 -17.58665466 152.96130371 C-17.59662979 151.69118942 -17.60660492 150.42107513 -17.61688232 149.11247253 C-17.61777797 147.71755994 -17.61844162 146.32264718 -17.61889648 144.92773438 C-17.62652346 143.44891443 -17.63495188 141.97009843 -17.64411926 140.49128723 C-17.66601201 136.48516135 -17.67485554 132.47911175 -17.67994571 128.47293282 C-17.68359401 125.96857428 -17.68983637 123.46423559 -17.6969471 120.95988464 C-17.72141877 112.21917852 -17.73448955 103.4785316 -17.73803711 94.73779297 C-17.74167558 86.59537774 -17.77159889 78.45333869 -17.81344169 70.31103849 C-17.84813713 63.31384094 -17.86358538 56.31676819 -17.86428314 49.31948519 C-17.8650759 45.14302351 -17.87381458 40.96694575 -17.90228081 36.79057312 C-17.92845062 32.86366491 -17.93067336 28.93745936 -17.91462517 25.01050377 C-17.91281006 23.57137711 -17.91950725 22.13221011 -17.93544388 20.69317055 C-18.06255482 8.46813973 -18.06255482 8.46813973 -14.88710022 4.55651855 C-9.9811595 0.39960106 -6.38065738 0.01102966 0 0 Z " fill="#FDFDFD" transform="translate(250.3125,296.625)"/>
<path d="M0 0 C3.75794758 3.33050331 5.45228144 5.53534386 5.96533203 10.57177734 C6.04238795 14.33424946 5.99654179 18.07401539 5.8984375 21.8359375 C5.88039063 23.14433594 5.86234375 24.45273437 5.84375 25.80078125 C5.79673098 29.02158439 5.73101931 32.24088224 5.6484375 35.4609375 C6.76702148 35.4295166 6.76702148 35.4295166 7.90820312 35.39746094 C11.32147475 35.31377116 14.73452974 35.26210956 18.1484375 35.2109375 C19.32148438 35.17742187 20.49453125 35.14390625 21.703125 35.109375 C28.82774426 35.0293231 33.68887967 35.4027624 39.6484375 39.4609375 C41.96457155 43.22579164 42.01186745 46.502162 42.0859375 50.8984375 C42.14587891 52.84556641 42.14587891 52.84556641 42.20703125 54.83203125 C41.51611654 59.32056108 40.12540101 60.64771152 36.6484375 63.4609375 C33.06175437 65.85205959 31.48447181 65.69474777 27.23046875 65.65625 C25.35004883 65.64658203 25.35004883 65.64658203 23.43164062 65.63671875 C21.46614258 65.61158203 21.46614258 65.61158203 19.4609375 65.5859375 C18.12565763 65.57590389 16.79037061 65.5667787 15.45507812 65.55859375 C12.18601735 65.53499042 8.91731722 65.50206344 5.6484375 65.4609375 C5.69020136 72.72046609 5.76262092 79.97923391 5.85595703 87.23828125 C5.8841131 89.70565924 5.90535418 92.17312653 5.91943359 94.640625 C5.94093652 98.19577576 5.98762768 101.74985889 6.0390625 105.3046875 C6.04029114 106.40083374 6.04151978 107.49697998 6.04278564 108.62634277 C6.16929222 115.30159986 6.97527818 119.81685535 10.6484375 125.4609375 C13.44592591 126.39343364 15.19164631 126.59569902 18.0859375 126.5859375 C18.84777344 126.58851563 19.60960937 126.59109375 20.39453125 126.59375 C22.61487741 126.46291504 24.49977299 126.00953269 26.6484375 125.4609375 C31.54144884 124.89573817 36.07954386 124.45910298 40.1484375 127.5859375 C44.29979331 132.35999669 45.20972609 137.08440001 45.01171875 143.28515625 C44.38777007 147.0221392 42.61574741 149.29988997 39.6484375 151.4609375 C36.40292583 153.0971938 33.09545742 154.32057001 29.6484375 155.4609375 C28.33939453 156.00041016 28.33939453 156.00041016 27.00390625 156.55078125 C22.28067171 157.831938 17.7705308 157.78989727 12.8984375 157.7734375 C11.96 157.78955078 11.0215625 157.80566406 10.0546875 157.82226562 C-0.4269643 157.82950433 -10.09306584 155.10276271 -18.3515625 148.4609375 C-29.36390137 136.40158509 -30.51713861 124.17137569 -30.44921875 108.52734375 C-30.4478038 107.29426987 -30.44638885 106.06119598 -30.44493103 104.79075623 C-30.43935191 100.86829155 -30.42680318 96.94588481 -30.4140625 93.0234375 C-30.40847948 90.35742271 -30.40448237 87.69140846 -30.40039062 85.02539062 C-30.38938931 78.50388662 -30.37267195 71.9824162 -30.3515625 65.4609375 C-31.44855469 65.49574219 -32.54554688 65.53054688 -33.67578125 65.56640625 C-35.13019295 65.59455615 -36.5846213 65.62185502 -38.0390625 65.6484375 C-38.76029297 65.67357422 -39.48152344 65.69871094 -40.22460938 65.72460938 C-44.81772854 65.78752882 -47.7383 65.35963689 -51.3515625 62.4609375 C-55.07166283 56.17525074 -55.3521481 49.64520456 -53.6640625 42.5859375 C-51.60748639 39.25624285 -48.82510348 37.19770799 -45.3515625 35.4609375 C-42.79998595 35.389264 -40.27683279 35.36785308 -37.7265625 35.3984375 C-36.66695313 35.40520508 -36.66695313 35.40520508 -35.5859375 35.41210938 C-33.84110975 35.42389875 -32.0963255 35.44183426 -30.3515625 35.4609375 C-30.36727295 34.64415527 -30.3829834 33.82737305 -30.39916992 32.98583984 C-30.4617019 29.26927673 -30.50061194 25.55282454 -30.5390625 21.8359375 C-30.56419922 20.55074219 -30.58933594 19.26554687 -30.61523438 17.94140625 C-30.62490234 16.69746094 -30.63457031 15.45351563 -30.64453125 14.171875 C-30.6602417 13.03024902 -30.67595215 11.88862305 -30.69213867 10.71240234 C-30.152912 5.56443042 -28.47560419 2.41012826 -24.5390625 -0.9140625 C-17.19930431 -4.63079111 -7.13328888 -3.77644705 0 0 Z " fill="#FDFDFD" transform="translate(490.3515625,322.5390625)"/>
<path d="M0 0 C3.08063868 1.56192703 5.19379368 2.63639364 7.13671875 5.55078125 C8.00405391 10.32112465 8.55632605 14.37903779 6.41796875 18.84765625 C2.7805051 23.85714566 -3.06209295 26.745322 -8.98828125 28.17578125 C-9.77203125 28.21703125 -10.55578125 28.25828125 -11.36328125 28.30078125 C-11.36328125 28.96078125 -11.36328125 29.62078125 -11.36328125 30.30078125 C-12.36617187 30.71457031 -13.3690625 31.12835938 -14.40234375 31.5546875 C-27.08842497 37.00658342 -38.38487231 44.87184159 -49.50097656 52.95849609 C-52.00701532 54.76476263 -54.56009771 56.49954053 -57.11328125 58.23828125 C-60.56956742 60.65302663 -63.45163001 63.23588521 -66.36328125 66.30078125 C-67.50226826 67.28790332 -68.64909001 68.26601139 -69.80078125 69.23828125 C-95.6449203 91.64308621 -122.02716216 123.98152887 -132.98828125 156.92578125 C-134.89987709 161.61788013 -137.40093593 163.29445031 -141.80078125 165.55078125 C-146.43704827 166.90773745 -149.23172475 166.89984057 -153.55078125 164.61328125 C-157.78052058 161.13549558 -159.19745028 158.98672946 -159.73828125 153.48828125 C-159.58455243 149.00452406 -158.11926301 145.39807203 -156.36328125 141.30078125 C-155.70328125 141.30078125 -155.04328125 141.30078125 -154.36328125 141.30078125 C-154.24597656 140.40617188 -154.12867188 139.5115625 -154.0078125 138.58984375 C-152.95799606 133.23259866 -150.10011688 128.9620496 -147.36328125 124.30078125 C-146.93547363 123.56424316 -146.50766602 122.82770508 -146.06689453 122.06884766 C-136.10370267 104.95822314 -125.03761913 89.49476468 -112.36328125 74.30078125 C-111.5444043 73.29700439 -111.5444043 73.29700439 -110.70898438 72.27294922 C-110.17724609 71.63115723 -109.64550781 70.98936523 -109.09765625 70.328125 C-108.62038086 69.74667725 -108.14310547 69.16522949 -107.65136719 68.56616211 C-106.36328125 67.30078125 -106.36328125 67.30078125 -104.36328125 67.30078125 C-104.14671875 66.759375 -103.93015625 66.21796875 -103.70703125 65.66015625 C-101.89737766 62.48274123 -99.45031941 60.0925957 -96.86328125 57.55078125 C-96.33226807 57.02363525 -95.80125488 56.49648926 -95.25415039 55.95336914 C-91.19623938 51.9826079 -86.93664932 48.36911647 -82.421875 44.921875 C-80.40975089 43.40892415 -80.40975089 43.40892415 -78.97973633 41.88720703 C-77.23377398 40.17367986 -75.40716468 38.75269257 -73.44140625 37.296875 C-72.28596313 36.44077637 -72.28596313 36.44077637 -71.10717773 35.56738281 C-53.78168953 22.86032871 -36.31191878 11.07734283 -16.67578125 2.17578125 C-16.04099854 1.88034424 -15.40621582 1.58490723 -14.75219727 1.28051758 C-9.73813191 -0.9018562 -5.29348526 -1.56617167 0 0 Z " fill="#7A6FB4" transform="translate(261.36328125,100.69921875)"/>
<path d="M0 0 C0.75676025 0.00427002 1.51352051 0.00854004 2.29321289 0.01293945 C7.38035969 0.16836022 11.1224723 0.89183662 15.33984375 3.91796875 C19.43849294 8.7294265 18.97814451 14.35225147 18.9621582 20.31982422 C18.96726913 21.3041745 18.97238007 22.28852478 18.97764587 23.30270386 C18.99153434 26.5534271 18.99058554 29.80393813 18.98828125 33.0546875 C18.99216878 35.31763793 18.99650356 37.58058762 19.00126648 39.84353638 C19.00872724 44.58630743 19.00843857 49.32900404 19.00317383 54.07177734 C18.99738152 60.1435353 19.01430535 66.21498799 19.0375185 72.28669548 C19.05226539 76.96047746 19.05312619 81.63418609 19.05000877 86.30798721 C19.05052157 88.54624155 19.0557515 90.78450004 19.06582069 93.02273178 C19.07818505 96.15581725 19.07139289 99.28831042 19.05981445 102.42138672 C19.07128006 103.80251648 19.07128006 103.80251648 19.08297729 105.21154785 C19.03794619 110.73676414 18.33923533 114.61851459 15.6875 119.5 C10.93803444 123.85367676 6.81907331 124.12141729 0.6875 124 C-0.48425781 124.02320313 -0.48425781 124.02320313 -1.6796875 124.046875 C-6.99684432 124.01106923 -10.16894463 123.10094693 -14.3125 119.5 C-18.12868371 114.81796993 -17.74371356 110.14746625 -17.71655273 104.38891602 C-17.72341599 103.37369873 -17.73027924 102.35848145 -17.73735046 101.3125 C-17.75563876 97.9594928 -17.75177794 94.60695259 -17.74609375 91.25390625 C-17.75065456 88.9212987 -17.75595984 86.5886925 -17.76197815 84.25608826 C-17.77091327 79.36785421 -17.76848145 74.47978351 -17.75854492 69.59155273 C-17.74705499 63.32903166 -17.76726565 57.06707442 -17.79646206 50.80462742 C-17.8148129 45.98760907 -17.81453377 41.1707261 -17.80882454 36.35368156 C-17.80867119 34.04482164 -17.81472684 31.73595262 -17.82711601 29.42712593 C-17.8420025 26.19788421 -17.83136522 22.96968765 -17.81420898 19.74047852 C-17.82387695 18.78807785 -17.83354492 17.83567719 -17.84350586 16.85441589 C-17.77938513 11.08722781 -17.08385714 7.92821146 -13.3125 3.5 C-9.22181596 0.1185589 -5.12659543 -0.04316543 0 0 Z " fill="#FDFCFC" transform="translate(395.3125,355.5)"/>
<path d="M0 0 C0.73951904 0.00620361 1.47903809 0.01240723 2.2409668 0.01879883 C10.20793927 0.32820428 15.35626832 3.44228757 21 8.9375 C25.75973415 16.80936801 27.80451977 23.69773832 27.8125 32.875 C27.83086914 33.96361328 27.83086914 33.96361328 27.84960938 35.07421875 C27.87281037 43.75139067 25.99090792 52.70363306 20.08984375 59.35546875 C13.54176597 65.39640611 7.29049798 66.8742162 -1.4375 67 C-2.11031006 67.01401855 -2.78312012 67.02803711 -3.47631836 67.04248047 C-8.82565533 66.99145341 -11.06421884 65.90104907 -16.375 63.625 C-16.375 44.155 -16.375 24.685 -16.375 4.625 C-9.93383794 1.40441897 -6.72106956 -0.10228885 0 0 Z " fill="#654392" transform="translate(285.375,384.375)"/>
<path d="M0 0 C4.86271865 2.89300983 8.35072573 7.13378732 10.5 12.375 C11.28590903 18.77193399 11.20892953 24.95760845 7.91015625 30.62109375 C4.61966461 34.7136997 0.46568436 37.71977188 -4.5 39.375 C-12.32052931 39.9179473 -18.92634664 40.32849697 -25.11328125 34.98046875 C-29.04324217 31.27561299 -31.26712822 28.50271267 -31.87109375 22.984375 C-32.09044674 10.23609518 -32.09044674 10.23609518 -28 4.890625 C-20.79443579 -2.38999717 -9.40081956 -4.33192641 0 0 Z " fill="#FCFBFC" transform="translate(406.5,301.625)"/>
<path d="M0 0 C1.79244141 0.01353516 1.79244141 0.01353516 3.62109375 0.02734375 C6.53927834 0.05068923 9.45702776 0.08343344 12.375 0.125 C12.375 0.455 12.375 0.785 12.375 1.125 C14.685 1.455 16.995 1.785 19.375 2.125 C19.375 2.455 19.375 2.785 19.375 3.125 C16.075 3.455 12.775 3.785 9.375 4.125 C9.375 4.785 9.375 5.445 9.375 6.125 C4.65900182 7.04970553 1.70234391 7.35423777 -2.625 5.125 C-2.625 4.465 -2.625 3.805 -2.625 3.125 C-13.515 3.62 -13.515 3.62 -24.625 4.125 C-23.625 2.125 -23.625 2.125 -21.81884766 1.49658203 C-14.50863543 0.01079067 -7.44134591 -0.10784559 0 0 Z " fill="#7D72B7" transform="translate(350.625,-0.125)"/>
<path d="M0 0 C0.66 0.33 1.32 0.66 2 1 C0.68 3.64 -0.64 6.28 -2 9 C-2.33 9 -2.66 9 -3 9 C-2.99555878 10.26089447 -2.99111755 11.52178894 -2.98654175 12.82089233 C-2.94606556 24.68147174 -2.91604928 36.5420372 -2.89637566 48.40266991 C-2.88592139 54.50089767 -2.87173228 60.59906986 -2.84912109 66.69726562 C-2.82745123 72.57813694 -2.81544377 78.45895467 -2.81024551 84.33986282 C-2.8065392 86.58783436 -2.79930212 88.83580285 -2.78853989 91.08375168 C-2.7741028 94.22305479 -2.77201879 97.36213409 -2.77294922 100.50146484 C-2.76575867 101.43869888 -2.75856812 102.37593292 -2.75115967 103.34156799 C-2.753909 104.19414688 -2.75665833 105.04672577 -2.75949097 105.92514038 C-2.75764738 106.66810553 -2.75580379 107.41107067 -2.75390434 108.17654991 C-3 110 -3 110 -5 112 C-5.09268116 98.4133832 -5.16375576 84.82684161 -5.20724869 71.23997307 C-5.22812315 64.93102731 -5.2564389 58.62229784 -5.30175781 52.31347656 C-5.34521956 46.22508747 -5.36913817 40.13690642 -5.37950897 34.04837418 C-5.38689966 31.72553355 -5.40133188 29.4027043 -5.42292023 27.07995224 C-5.45195768 23.82632594 -5.45595573 20.57355925 -5.45410156 17.31982422 C-5.46848267 16.35956833 -5.48286377 15.39931244 -5.49768066 14.40995789 C-5.45905839 8.14646478 -4.53389041 4.53389041 0 0 Z " fill="#F6F1F9" transform="translate(383,358)"/>
<path d="M0 0 C13.2 0 26.4 0 40 0 C40 1.66666667 40 3.33333333 40 5 C37.36 5 34.72 5 32 5 C32 4.34 32 3.68 32 3 C30.845 3.185625 29.69 3.37125 28.5 3.5625 C24.13610352 4.1235724 20.33266935 3.69632186 16 3 C16 3.66 16 4.32 16 5 C14.02 5 12.04 5 10 5 C10.66 4.67 11.32 4.34 12 4 C12 3.34 12 2.68 12 2 C10.4221875 2.0309375 10.4221875 2.0309375 8.8125 2.0625 C5.67295096 2.01103198 3.03116604 1.73482813 0 1 C0 0.67 0 0.34 0 0 Z " fill="#743D90" transform="translate(360,26)"/>
<path d="M0 0 C0.33 0 0.66 0 1 0 C1 1.65 1 3.3 1 5 C1.66 5.33 2.32 5.66 3 6 C3.47070312 7.93017578 3.47070312 7.93017578 3.78125 10.4453125 C3.90113281 11.35796875 4.02101563 12.270625 4.14453125 13.2109375 C4.26183594 14.17257812 4.37914062 15.13421875 4.5 16.125 C5.26963179 22.28205431 6.22676182 28.03677159 8 34 C9.35646558 40.76526544 9.11121514 47.56866499 9.0625 54.4375 C9.05798828 55.64599609 9.05347656 56.85449219 9.04882812 58.09960938 C9.03710145 61.06645789 9.02068896 64.0332027 9 67 C8.67 67 8.34 67 8 67 C7.98582031 65.90429688 7.97164062 64.80859375 7.95703125 63.6796875 C7.67316846 52.63873132 6.38265839 41.87896812 4.5625 31 C4.39858261 30.00247711 4.39858261 30.00247711 4.23135376 28.98480225 C2.96449406 20.72434048 2.96449406 20.72434048 0 13 C-0.1953125 9.765625 -0.1953125 9.765625 -0.125 6.25 C-0.09792969 4.49429687 -0.09792969 4.49429687 -0.0703125 2.703125 C-0.04710937 1.81109375 -0.02390625 0.9190625 0 0 Z " fill="#DBD8EA" transform="translate(759,299)"/>
<path d="M0 0 C2 2 2 2 2.22705078 4.79736328 C2.21657715 5.95993652 2.20610352 7.12250977 2.1953125 8.3203125 C2.18886719 9.57714844 2.18242187 10.83398438 2.17578125 12.12890625 C2.15902344 13.44761719 2.14226562 14.76632812 2.125 16.125 C2.11496983 17.46483721 2.10584404 18.80468152 2.09765625 20.14453125 C2.07402075 23.42986573 2.04107234 26.71484465 2 30 C1.01 30 0.02 30 -1 30 C-1 28.35 -1 26.7 -1 25 C-1.66 24.67 -2.32 24.34 -3 24 C-2.34 24 -1.68 24 -1 24 C-1.00523682 23.37955811 -1.01047363 22.75911621 -1.01586914 22.11987305 C-1.03665466 19.30909233 -1.04966517 16.49832779 -1.0625 13.6875 C-1.07087891 12.71103516 -1.07925781 11.73457031 -1.08789062 10.72851562 C-1.09111328 9.79072266 -1.09433594 8.85292969 -1.09765625 7.88671875 C-1.10551147 6.59060669 -1.10551147 6.59060669 -1.11352539 5.26831055 C-1 3 -1 3 0 0 Z " fill="#E1DCE7" transform="translate(494,328)"/>
<path d="M0 0 C3.52775489 0.30237899 5.03808865 1.02980851 7.875 3.25 C10 6 10 6 9.8125 8.8125 C9.544375 9.534375 9.27625 10.25625 9 11 C7.03740548 10.03599432 5.10397649 9.06016107 3.2109375 7.96484375 C-2.11779813 4.98301934 -6.93865265 4.24841587 -13 4 C-13 3.67 -13 3.34 -13 3 C-12.14535156 2.95101563 -11.29070312 2.90203125 -10.41015625 2.8515625 C-9.30542969 2.77679688 -8.20070313 2.70203125 -7.0625 2.625 C-5.40927734 2.52058594 -5.40927734 2.52058594 -3.72265625 2.4140625 C-2.37494141 2.20910156 -2.37494141 2.20910156 -1 2 C-0.67 1.34 -0.34 0.68 0 0 Z " fill="#6C4391" transform="translate(405,296)"/>
<path d="M0 0 C4.19998986 -0.08235274 7.90056167 0.18011233 12 1 C14.05593711 1.20676601 16.11509105 1.3828885 18.17578125 1.53515625 C19.33271484 1.62216797 20.48964844 1.70917969 21.68164062 1.79882812 C22.87982422 1.88583984 24.07800781 1.97285156 25.3125 2.0625 C27.1387793 2.19881836 27.1387793 2.19881836 29.00195312 2.33789062 C32.00110842 2.5613571 35.0004461 2.78196027 38 3 C38 3.33 38 3.66 38 4 C33.23118124 4.09900135 28.4629627 4.17152928 23.69335938 4.21972656 C22.07150857 4.23982144 20.44973003 4.26710254 18.828125 4.30175781 C16.4946102 4.3503727 14.16205443 4.37298889 11.828125 4.390625 C10.74352997 4.42159271 10.74352997 4.42159271 9.63702393 4.45318604 C6.05310029 4.45477743 4.33522038 4.27262136 1.51074219 1.97558594 C0.7629248 0.9976709 0.7629248 0.9976709 0 0 Z " fill="#EEECF4" transform="translate(326,764)"/>
<path d="M0 0 C-3.74385814 1.37158751 -7.49591197 2.71919132 -11.25 4.0625 C-12.31347656 4.45244141 -13.37695312 4.84238281 -14.47265625 5.24414062 C-16.00986328 5.79038086 -16.00986328 5.79038086 -17.578125 6.34765625 C-18.99206543 6.85824585 -18.99206543 6.85824585 -20.43457031 7.37915039 C-23.10352907 8.02505467 -24.4521031 7.92531647 -27 7 C-26.01 6.67 -25.02 6.34 -24 6 C-23.45472656 5.18273437 -22.90945313 4.36546875 -22.34765625 3.5234375 C-19.03088543 -0.04167723 -16.13441027 -0.01827264 -11.4375 -0.375 C-10.66986328 -0.45621094 -9.90222656 -0.53742187 -9.11132812 -0.62109375 C-5.72831113 -0.94553304 -3.25485253 -1.08495084 0 0 Z " fill="#ABA4D0" transform="translate(519,745)"/>
<path d="M0 0 C0.33 0 0.66 0 1 0 C1.0501123 0.73001221 1.10022461 1.46002441 1.15185547 2.2121582 C1.38661293 5.5794107 1.63075456 8.94592294 1.875 12.3125 C1.95363281 13.46041016 2.03226562 14.60832031 2.11328125 15.79101562 C2.58178411 22.15184287 3.29132253 28.32102949 4.58984375 34.56835938 C5.23769213 38.40917477 5.12741022 42.11398839 5 46 C4.67 46 4.34 46 4 46 C3.67 42.04 3.34 38.08 3 34 C2.34 34 1.68 34 1 34 C-0.31191997 27.04785719 -0.11058058 20.11555097 -0.0625 13.0625 C-0.05798828 11.80630859 -0.05347656 10.55011719 -0.04882812 9.25585938 C-0.03709681 6.17052337 -0.020681 3.08528684 0 0 Z " fill="#E6E4F0" transform="translate(0,402)"/>
<path d="M0 0 C0 0.33 0 0.66 0 1 C-1.98 1 -3.96 1 -6 1 C-6 1.66 -6 2.32 -6 3 C-9.53826255 4.17942085 -12.34148726 4.11289189 -16.07421875 4.09765625 C-17.09996758 4.09553383 -17.09996758 4.09553383 -18.1464386 4.09336853 C-20.32683722 4.08777876 -22.50713251 4.07522822 -24.6875 4.0625 C-26.16731622 4.05748367 -27.64713406 4.052921 -29.12695312 4.04882812 C-32.75133557 4.03781271 -36.3756577 4.02055512 -40 4 C-40 3.67 -40 3.34 -40 3 C-38.86570557 2.91697632 -38.86570557 2.91697632 -37.70849609 2.83227539 C-34.26378096 2.57852932 -30.8193949 2.32055509 -27.375 2.0625 C-25.59029297 1.93198242 -25.59029297 1.93198242 -23.76953125 1.79882812 C-22.61582031 1.71181641 -21.46210938 1.62480469 -20.2734375 1.53515625 C-19.21560059 1.456604 -18.15776367 1.37805176 -17.06787109 1.29711914 C-3.1192996 -0.05378103 -3.1192996 -0.05378103 0 0 Z " fill="#EAE8F2" transform="translate(442,764)"/>
<path d="M0 0 C0.66 0 1.32 0 2 0 C2 0.99 2 1.98 2 3 C2.66 3.33 3.32 3.66 4 4 C0.55384615 8.8 0.55384615 8.8 -2.25 9.8125 C-2.8275 9.874375 -3.405 9.93625 -4 10 C-4 10.66 -4 11.32 -4 12 C-4.99 12 -5.98 12 -7 12 C-7.33 12.66 -7.66 13.32 -8 14 C-8.66 12.35 -9.32 10.7 -10 9 C-9.44570313 8.60167969 -8.89140625 8.20335937 -8.3203125 7.79296875 C-7.59585937 7.26316406 -6.87140625 6.73335938 -6.125 6.1875 C-5.40570313 5.66542969 -4.68640625 5.14335937 -3.9453125 4.60546875 C-1.76971345 2.96727223 -1.76971345 2.96727223 0 0 Z " fill="#F6F5F5" transform="translate(308,439)"/>
<path d="M0 0 C1.79244141 0.01353516 1.79244141 0.01353516 3.62109375 0.02734375 C6.53927834 0.05068923 9.45702776 0.08343344 12.375 0.125 C12.375 0.455 12.375 0.785 12.375 1.125 C11.27828979 1.20802368 11.27828979 1.20802368 10.15942383 1.29272461 C6.83520002 1.54616206 3.51135583 1.8042831 0.1875 2.0625 C-1.53823242 2.19301758 -1.53823242 2.19301758 -3.29882812 2.32617188 C-4.41064453 2.41318359 -5.52246094 2.50019531 -6.66796875 2.58984375 C-7.68914795 2.668396 -8.71032715 2.74694824 -9.76245117 2.82788086 C-12.60015048 3.07669272 -12.60015048 3.07669272 -15.2590332 3.65454102 C-18.39958147 4.2790211 -21.43264724 4.18759515 -24.625 4.125 C-23.625 2.125 -23.625 2.125 -21.81884766 1.49658203 C-14.50863543 0.01079067 -7.44134591 -0.10784559 0 0 Z " fill="#EDEBF3" transform="translate(350.625,-0.125)"/>
<path d="M0 0 C4.06248489 -0.02909769 8.12494286 -0.04683174 12.1875 -0.0625 C13.91323242 -0.07506836 13.91323242 -0.07506836 15.67382812 -0.08789062 C16.78564453 -0.09111328 17.89746094 -0.09433594 19.04296875 -0.09765625 C20.06414795 -0.10289307 21.08532715 -0.10812988 22.13745117 -0.11352539 C24.86901616 -0.00519467 27.34169374 0.38293132 30 1 C30 1.66 30 2.32 30 3 C31.98 3 33.96 3 36 3 C36 3.33 36 3.66 36 4 C28.42353407 4.22958988 21.02169713 3.34848413 13.5 2.5 C12.200625 2.35691406 10.90125 2.21382813 9.5625 2.06640625 C6.37455176 1.71479431 3.18709869 1.35921736 0 1 C0 0.67 0 0.34 0 0 Z " fill="#EBEAF3" transform="translate(406,0)"/>
<path d="M0 0 C0.33 0.66 0.66 1.32 1 2 C1.66 2.33 2.32 2.66 3 3 C2.67 3.66 2.34 4.32 2 5 C2.66 5.33 3.32 5.66 4 6 C2.02 6 0.04 6 -2 6 C-2.2475 6.969375 -2.495 7.93875 -2.75 8.9375 C-4 12 -4 12 -6 13 C-6.66 13 -7.32 13 -8 13 C-8.66 12.34 -9.32 11.68 -10 11 C-8.85455923 7.56367769 -7.7288492 6.66528415 -5 4.375 C-4.278125 3.76398438 -3.55625 3.15296875 -2.8125 2.5234375 C-2.214375 2.02070312 -1.61625 1.51796875 -1 1 C-0.67 0.67 -0.34 0.34 0 0 Z " fill="#958CC2" transform="translate(104,120)"/>
<path d="M0 0 C0.33 0 0.66 0 1 0 C1 2.64 1 5.28 1 8 C1.66 8 2.32 8 3 8 C3.33 7.01 3.66 6.02 4 5 C4.66 5 5.32 5 6 5 C5.67 6.98 5.34 8.96 5 11 C4.34 11 3.68 11 3 11 C2.7525 11.639375 2.505 12.27875 2.25 12.9375 C1 15 1 15 -1.078125 15.62890625 C-2.02945312 15.81259766 -2.02945312 15.81259766 -3 16 C-2.68954268 14.0830014 -2.37655329 12.16641277 -2.0625 10.25 C-1.88847656 9.18265625 -1.71445313 8.1153125 -1.53515625 7.015625 C-1.11295829 4.63652407 -0.62797116 2.33084789 0 0 Z " fill="#9991C6" transform="translate(10,291)"/>
<path d="M0 0 C0.33 0 0.66 0 1 0 C1.08860651 4.22902991 1.14092245 8.45781493 1.1875 12.6875 C1.21263672 13.86634766 1.23777344 15.04519531 1.26367188 16.25976562 C1.3319909 24.57191419 0.22230279 31.99352995 -2 40 C-2.33 40 -2.66 40 -3 40 C-3.19746473 35.06338174 -2.82918527 30.50906911 -2.0625 25.625 C-0.75817902 17.11453686 -0.37028704 8.59455707 0 0 Z " fill="#ECEAF3" transform="translate(767,402)"/>
<path d="M0 0 C2 2 2 2 2 6 C1.484375 6.495 0.96875 6.99 0.4375 7.5 C-0.036875 7.995 -0.51125 8.49 -1 9 C-0.835 9.639375 -0.67 10.27875 -0.5 10.9375 C0 13 0 13 -1.25 15.1875 C-3 17 -3 17 -6 18 C-4.41039668 11.76559832 -2.72399099 5.83712355 0 0 Z M1 7 C1.66 7 2.32 7 3 7 C2.67 8.65 2.34 10.3 2 12 C1.34 11.67 0.68 11.34 0 11 C0.33 9.68 0.66 8.36 1 7 Z " fill="#958CC3" transform="translate(28,236)"/>
<path d="M0 0 C0.80179687 0.00451172 1.60359375 0.00902344 2.4296875 0.01367188 C4.41149006 0.02546832 6.39325433 0.04340395 8.375 0.0625 C5.375 2.0625 5.375 2.0625 2.375 2.0625 C2.375 2.7225 2.375 3.3825 2.375 4.0625 C-1.585 4.0625 -5.545 4.0625 -9.625 4.0625 C-9.955 3.0725 -10.285 2.0825 -10.625 1.0625 C-7.31505287 -0.59247356 -3.63377 -0.03834335 0 0 Z " fill="#6C4A97" transform="translate(285.625,384.9375)"/>
<path d="M0 0 C4.48993869 0.58652352 8.22543184 1.7643538 12.375 3.5625 C13.43460938 4.01753906 14.49421875 4.47257812 15.5859375 4.94140625 C16.38257813 5.29074219 17.17921875 5.64007813 18 6 C17.01 6.66 16.02 7.32 15 8 C15 7.34 15 6.68 15 6 C11.7 6.66 8.4 7.32 5 8 C4.67 7.01 4.34 6.02 4 5 C3.34 4.67 2.68 4.34 2 4 C2.66 3.67 3.32 3.34 4 3 C2.68 2.67 1.36 2.34 0 2 C0 1.34 0 0.68 0 0 Z " fill="#A29ACB" transform="translate(516,23)"/>
<path d="M0 0 C1.32 0.33 2.64 0.66 4 1 C-1.12726539 5.21464534 -4.861807 5.52008456 -11.375 5.25 C-12.62216797 5.22292969 -12.62216797 5.22292969 -13.89453125 5.1953125 C-15.93019074 5.14851573 -17.9652509 5.07678298 -20 5 C-19.67 4.34 -19.34 3.68 -19 3 C-12.73 2.67 -6.46 2.34 0 2 C0 1.34 0 0.68 0 0 Z " fill="#F7F7F2" transform="translate(407,474)"/>
<path d="M0 0 C1.9375 0.8125 1.9375 0.8125 4 2 C4.33 2.99 4.66 3.98 5 5 C6.65 5 8.3 5 10 5 C10 5.66 10 6.32 10 7 C10.66 7 11.32 7 12 7 C12.66 8.65 13.32 10.3 14 12 C13.01 12.495 13.01 12.495 12 13 C6.38536697 9.27962423 2.92935801 6.10282919 0 0 Z " fill="#F0EFF1" transform="translate(466,462)"/>
<path d="M0 0 C2.73676749 4.10515124 4.00627006 8.46593636 5.5625 13.125 C5.87896484 14.03765625 6.19542969 14.9503125 6.52148438 15.890625 C8.45148477 21.64374719 9.54814568 26.94639001 10 33 C9.01 32.67 8.02 32.34 7 32 C7.061875 30.96875 7.12375 29.9375 7.1875 28.875 C6.98044396 24.5958419 5.92502507 22.77875292 4 19 C2.14410621 12.76140865 0.73488014 6.46694527 0 0 Z " fill="#CFCBE3" transform="translate(747,257)"/>
<path d="M0 0 C3.46941546 0.45822468 6.67395049 0.89131683 10 2 C11.134375 1.67 12.26875 1.34 13.4375 1 C16.89723397 0.02884661 17.78384732 -0.01785931 21 1 C17.89948553 1.8678228 14.79413335 2.71686767 11.6875 3.5625 C10.80642578 3.80935547 9.92535156 4.05621094 9.01757812 4.31054688 C8.17001953 4.53935547 7.32246094 4.76816406 6.44921875 5.00390625 C5.66893311 5.21861572 4.88864746 5.4333252 4.0847168 5.65454102 C2 6 2 6 -1 5 C-0.67 3.35 -0.34 1.7 0 0 Z " fill="#B5AED6" transform="translate(471,753)"/>
<path d="M0 0 C0 4.6091008 -2.67465029 7.57998246 -5.75 10.875 C-6.1625 11.24625 -6.575 11.6175 -7 12 C-7.33 11.34 -7.66 10.68 -8 10 C-9.65 11.65 -11.3 13.3 -13 15 C-13 11.44215785 -11.92318007 10.24902405 -9.64453125 7.62890625 C-6.71114452 4.72339017 -3.37602187 2.36237759 0 0 Z " fill="#B2ACD4" transform="translate(121,103)"/>
<path d="M0 0 C1.32 0.66 2.64 1.32 4 2 C3.28972656 2.62648438 2.57945312 3.25296875 1.84765625 3.8984375 C0.92855469 4.71570313 0.00945313 5.53296875 -0.9375 6.375 C-2.31228516 7.59316406 -2.31228516 7.59316406 -3.71484375 8.8359375 C-6.03601395 10.78709347 -6.03601395 10.78709347 -7 13 C-7.66 12.67 -8.32 12.34 -9 12 C-8.67 11.01 -8.34 10.02 -8 9 C-8.66 9 -9.32 9 -10 9 C-10 8.34 -10 7.68 -10 7 C-7.525 7.495 -7.525 7.495 -5 8 C-5 7.01 -5 6.02 -5 5 C-4.01 4.67 -3.02 4.34 -2 4 C-2.33 3.34 -2.66 2.68 -3 2 C-1.68 2.33 -0.36 2.66 1 3 C0.67 2.01 0.34 1.02 0 0 Z " fill="#A9A2CC" transform="translate(641,665)"/>
<path d="M0 0 C1.65 0.99 3.3 1.98 5 3 C5.33 2.01 5.66 1.02 6 0 C7.00016187 2.00032373 7.49396008 3.83125748 8 6 C8.33 5.34 8.66 4.68 9 4 C10.52299523 6.93720508 11.80100302 9.9168649 13 13 C9.36938333 11.46781315 7.0136227 9.2816856 4.25 6.5 C3.45078125 5.7059375 2.6515625 4.911875 1.828125 4.09375 C0 2 0 2 0 0 Z " fill="#B2ABD4" transform="translate(106,649)"/>
<path d="M0 0 C0.87980884 2.87937439 1.0720098 3.78877125 0.0625 6.75 C-1.24218705 10.74080744 -1.14413169 13.82018112 -1 18 C-1.66 18 -2.32 18 -3 18 C-3 19.32 -3 20.64 -3 22 C-3.99 22 -4.98 22 -6 22 C-4.47536437 14.50387484 -2.31993846 7.28640866 0 0 Z " fill="#BBB5D8" transform="translate(19,260)"/>
<path d="M0 0 C-6.49961409 5.24783656 -11.6569636 6.96881108 -20 7 C-17.16142754 4.16142754 -13.6940834 3.1848649 -10 1.8125 C-8.89398438 1.38420898 -8.89398438 1.38420898 -7.765625 0.94726562 C-2.24553571 -1.12276786 -2.24553571 -1.12276786 0 0 Z " fill="#B8B2D8" transform="translate(254,23)"/>
<path d="M0 0 C0.33 0 0.66 0 1 0 C1.76681614 7.66816143 1.76681614 7.66816143 -0.11328125 10.93359375 C-1.5 12.5625 -1.5 12.5625 -4 15 C-4.66 14.67 -5.32 14.34 -6 14 C-6 13.01 -6 12.02 -6 11 C-5.34 11 -4.68 11 -4 11 C-3.87625 10.4225 -3.7525 9.845 -3.625 9.25 C-2.99119901 6.96831644 -2.08319254 5.09868554 -1 3 C-0.67 2.01 -0.34 1.02 0 0 Z " fill="#F8F7F7" transform="translate(534,459)"/>
<path d="M0 0 C0.66 0.33 1.32 0.66 2 1 C2 1.99 2 2.98 2 4 C1.34 4.66 0.68 5.32 0 6 C-1.32 6 -2.64 6 -4 6 C-6.44231855 7.74041156 -6.44231855 7.74041156 -8.75 10 C-9.54921875 10.7425 -10.3484375 11.485 -11.171875 12.25 C-11.77515625 12.8275 -12.3784375 13.405 -13 14 C-13.66 13.67 -14.32 13.34 -15 13 C-12.74482305 9.55788782 -10.50851254 8.07321196 -7 6 C-4.60801112 4.06552251 -2.29723866 2.04566785 0 0 Z " fill="#B1ABD2" transform="translate(146,81)"/>
<path d="M0 0 C1.65 0.33 3.3 0.66 5 1 C4.01 2.65 3.02 4.3 2 6 C-5.425 5.01 -5.425 5.01 -13 4 C-13 3.67 -13 3.34 -13 3 C-12.14535156 2.95101563 -11.29070312 2.90203125 -10.41015625 2.8515625 C-9.30542969 2.77679688 -8.20070313 2.70203125 -7.0625 2.625 C-5.40927734 2.52058594 -5.40927734 2.52058594 -3.72265625 2.4140625 C-2.37494141 2.20910156 -2.37494141 2.20910156 -1 2 C-0.67 1.34 -0.34 0.68 0 0 Z " fill="#714D96" transform="translate(405,296)"/>
<path d="M0 0 C1.32 0.66 2.64 1.32 4 2 C2.02 4.97 0.04 7.94 -2 11 C-2.66 10.67 -3.32 10.34 -4 10 C-3.5205537 5.78087253 -2.83374881 3.20336822 0 0 Z " fill="#A29ACB" transform="translate(685,617)"/>
<path d="M0 0 C1.5027237 0.97498145 3.00211963 1.95509389 4.5 2.9375 C5.3353125 3.48277344 6.170625 4.02804687 7.03125 4.58984375 C8.00578125 5.28787109 8.00578125 5.28787109 9 6 C9 6.33 9 6.66 9 7 C5.66666667 7 2.33333333 7 -1 7 C-0.67 4.69 -0.34 2.38 0 0 Z " fill="#674C94" transform="translate(378,472)"/>
<path d="M0 0 C2.22889496 -0.05428973 4.45817471 -0.09292338 6.6875 -0.125 C8.54955078 -0.15980469 8.54955078 -0.15980469 10.44921875 -0.1953125 C13.81237857 -0.01032021 15.9985587 0.54232105 19 2 C18.67 2.66 18.34 3.32 18 4 C15.69 4 13.38 4 11 4 C10.67 3.01 10.34 2.02 10 1 C6.7 1 3.4 1 0 1 C0 0.67 0 0.34 0 0 Z " fill="#E5DFE8" transform="translate(470,320)"/>
<path d="M0 0 C0.99 0.33 1.98 0.66 3 1 C3.33 1.99 3.66 2.98 4 4 C5.29355827 5.37195574 6.62298702 6.71182656 8 8 C3.61110675 7.33501617 0.0188515 5.81242323 -4 4 C-2.68 2.68 -1.36 1.36 0 0 Z " fill="#B0A9D4" transform="translate(243,737)"/>
<path d="M0 0 C0.268125 0.639375 0.53625 1.27875 0.8125 1.9375 C1.88667752 4.33131686 1.88667752 4.33131686 5 5 C4.34 5 3.68 5 3 5 C3 5.66 3 6.32 3 7 C3.99 7 4.98 7 6 7 C5.67 8.65 5.34 10.3 5 12 C5.66 12.33 6.32 12.66 7 13 C6.01 14.485 6.01 14.485 5 16 C4.1605118 13.89828133 3.32860344 11.79353375 2.5 9.6875 C2.0359375 8.51574219 1.571875 7.34398437 1.09375 6.13671875 C0 3 0 3 0 0 Z " fill="#BBB5DA" transform="translate(20,508)"/>
<path d="M0 0 C1.9451 2.91765 2.45276317 4.62537285 3 8 C3.66 7.67 4.32 7.34 5 7 C5.33 8.65 5.66 10.3 6 12 C5.34 12 4.68 12 4 12 C4 13.65 4 15.3 4 17 C2.48300584 14.19547298 1.54691437 11.6142698 0.875 8.5 C0.70742187 7.7471875 0.53984375 6.994375 0.3671875 6.21875 C0 4 0 4 0 0 Z " fill="#B8B2D6" transform="translate(7,460)"/>
<path d="M0 0 C4.67105792 1.55701931 8.08705685 4.08447373 12 7 C10.02 7.99 10.02 7.99 8 9 C7.608125 8.54625 7.21625 8.0925 6.8125 7.625 C4.69167513 5.72357081 2.66957765 4.93795972 0 4 C0 2.68 0 1.36 0 0 Z " fill="#703C8F" transform="translate(587,90)"/>
<path d="M0 0 C3.98381075 2.16264012 6.88983545 4.71211176 10 8 C6.6875 7.8125 6.6875 7.8125 3 7 C1.07828158 4.58235424 0 3.11532786 0 0 Z " fill="#A59DCF" transform="translate(618,79)"/>
<path d="M0 0 C3.875 1.75 3.875 1.75 5 4 C5.13415472 6.6723621 5.04318541 9.32250488 5 12 C1.90407165 8.4912812 0.25805377 5.50802601 -1 1 C-0.67 0.67 -0.34 0.34 0 0 Z " fill="#ABA4CE" transform="translate(41,555)"/>
<path d="M0 0 C0.66 0 1.32 0 2 0 C2.99 2.31 3.98 4.62 5 7 C4.34 7.66 3.68 8.32 3 9 C1.35 7.35 -0.3 5.7 -2 4 C-1.34 2.68 -0.68 1.36 0 0 Z " fill="#F5F3F4" transform="translate(379,328)"/>
<path d="M0 0 C2.63564456 2.63564456 4.31830856 4.72070169 6 8 C5.67 8.66 5.34 9.32 5 10 C3.68 10 2.36 10 1 10 C0.67 6.7 0.34 3.4 0 0 Z " fill="#A39BCB" transform="translate(706,174)"/>
<path d="M0 0 C0.33 0.66 0.66 1.32 1 2 C1.66 2.33 2.32 2.66 3 3 C2.67 3.66 2.34 4.32 2 5 C2.66 5.33 3.32 5.66 4 6 C2.63875 5.9690625 2.63875 5.9690625 1.25 5.9375 C-1.42672588 5.9889755 -3.46988052 6.2215017 -6 7 C-6 6.34 -6 5.68 -6 5 C-4.04072937 3.2856382 -2.04119788 1.61594832 0 0 Z " fill="#9B93C7" transform="translate(104,120)"/>
<path d="M0 0 C0 0.66 0 1.32 0 2 C-0.99 2.66 -1.98 3.32 -3 4 C-3.33 4.66 -3.66 5.32 -4 6 C-4.66 6 -5.32 6 -6 6 C-6 6.66 -6 7.32 -6 8 C-6.99 7.67 -7.98 7.34 -9 7 C-9.99 7 -10.98 7 -12 7 C-10.3790787 5.82767315 -8.75313167 4.6622923 -7.125 3.5 C-6.22007812 2.8503125 -5.31515625 2.200625 -4.3828125 1.53125 C-2 0 -2 0 0 0 Z " fill="#B1ABD4" transform="translate(179,59)"/>
<path d="M0 0 C4.1870076 2.7913384 5.43636734 5.30910203 7 10 C3.18315774 8.44499019 0.80804268 5.96404505 -2 3 C-1.34 2.01 -0.68 1.02 0 0 Z M1 4 C1.33 4.66 1.66 5.32 2 6 C2.66 5.67 3.32 5.34 4 5 C3.01 4.67 2.02 4.34 1 4 Z " fill="#A49CCE" transform="translate(146,681)"/>
<path d="M0 0 C0.99 0.33 1.98 0.66 3 1 C2.67 7.93 2.34 14.86 2 22 C1.34 22.33 0.68 22.66 0 23 C0 15.41 0 7.82 0 0 Z " fill="#EDE6EF" transform="translate(312,407)"/>
<path d="M0 0 C4.875 0.875 4.875 0.875 6 2 C8.01594582 2.23427778 10.038474 2.41336124 12.0625 2.5625 C13.16722656 2.64628906 14.27195312 2.73007812 15.41015625 2.81640625 C16.26480469 2.87699219 17.11945313 2.93757813 18 3 C18 3.33 18 3.66 18 4 C15.37493198 4.02690844 12.75013827 4.04679404 10.125 4.0625 C9.37863281 4.07087891 8.63226563 4.07925781 7.86328125 4.08789062 C2.2265625 4.11328125 2.2265625 4.11328125 0 3 C0 2.01 0 1.02 0 0 Z " fill="#EDE7EE" transform="translate(442,384)"/>
<path d="M0 0 C0.625 1.8125 0.625 1.8125 1 4 C0.01 5.485 0.01 5.485 -1 7 C-1.33 6.67 -1.66 6.34 -2 6 C-2.33 7.65 -2.66 9.3 -3 11 C-3.66 10.67 -4.32 10.34 -5 10 C-4.56802365 5.2482602 -3.67230705 3.07999946 0 0 Z " fill="#EFEBF1" transform="translate(238,299)"/>
<path d="M0 0 C1.93884889 0.28256092 3.87605961 0.5763793 5.8125 0.875 C6.89144531 1.03742187 7.97039062 1.19984375 9.08203125 1.3671875 C12 2 12 2 15 4 C8.375 5.125 8.375 5.125 5 4 C5 3.34 5 2.68 5 2 C3.35 1.67 1.7 1.34 0 1 C0 0.67 0 0.34 0 0 Z " fill="#724293" transform="translate(451,32)"/>
<path d="M0 0 C2.99332739 0.9977758 3.94766315 1.7522025 6 4 C3.36 4.66 0.72 5.32 -2 6 C-2 4.33333333 -2 2.66666667 -2 1 C-1.34 0.67 -0.68 0.34 0 0 Z " fill="#F5F4F2" transform="translate(307,472)"/>
<path d="M0 0 C-3.13498292 1.85776765 -5.37471432 2.20140476 -9 2 C-9.33 2.99 -9.66 3.98 -10 5 C-12.31 4.34 -14.62 3.68 -17 3 C-14.20261218 1.4932252 -11.59677568 0.51775885 -8.5 -0.1875 C-7.7471875 -0.36667969 -6.994375 -0.54585937 -6.21875 -0.73046875 C-3.85166621 -1.01801942 -2.25455985 -0.72248395 0 0 Z " fill="#724394" transform="translate(318,33)"/>
<path d="M0 0 C1.01382963 3.6208201 1.49897691 7.27811418 2 11 C0.35 9.35 -1.3 7.7 -3 6 C-1.125 1.125 -1.125 1.125 0 0 Z " fill="#9990C7" transform="translate(70,597)"/>
<path d="M0 0 C2.375 0.25 2.375 0.25 5 1 C6.3125 3.0625 6.3125 3.0625 7 5 C6.01 6.485 6.01 6.485 5 8 C1.75267068 6.37633534 1.29844864 3.24612161 0 0 Z " fill="#A8A0CD" transform="translate(61,593)"/>
<path d="M0 0 C3.98175544 2.10148204 6.35039045 4.36905358 9 8 C8.01 8 7.02 8 6 8 C5.67 8.66 5.34 9.32 5 10 C2 6.375 2 6.375 2 3 C1.34 2.67 0.68 2.34 0 2 C0 1.34 0 0.68 0 0 Z " fill="#AFA8D4" transform="translate(648,105)"/>
<path d="M0 0 C1.5625 1.75 1.5625 1.75 3 4 C2.75203633 6.16968209 2.55766393 7.44233607 1 9 C0.76807135 10.51469448 0.58784762 12.03754562 0.4375 13.5625 C0.35371094 14.38878906 0.26992188 15.21507812 0.18359375 16.06640625 C0.12300781 16.70449219 0.06242188 17.34257812 0 18 C-0.33 18 -0.66 18 -1 18 C-1.09945415 11.88909517 -1.0712828 6.02596573 0 0 Z " fill="#958CC4" transform="translate(2,340)"/>
<path d="M0 0 C3.3 0.99 6.6 1.98 10 3 C9.67 3.66 9.34 4.32 9 5 C2.9453125 5.1953125 2.9453125 5.1953125 1 5 C0.34 4.34 -0.32 3.68 -1 3 C-0.67 2.01 -0.34 1.02 0 0 Z " fill="#71398C" transform="translate(514,51)"/>
<path d="M0 0 C5.61 0 11.22 0 17 0 C16.01 0.33 15.02 0.66 14 1 C14 1.66 14 2.32 14 3 C12.68 3 11.36 3 10 3 C10 2.34 10 1.68 10 1 C6.7 1 3.4 1 0 1 C0 0.67 0 0.34 0 0 Z " fill="#867BBD" transform="translate(338,2)"/>
<path d="M0 0 C0 3 0 3 -1.3125 4.38671875 C-2.875 5.59114583 -4.4375 6.79557292 -6 8 C-5.67 5.69 -5.34 3.38 -5 1 C-3.35 0.67 -1.7 0.34 0 0 Z " fill="#B1ABD3" transform="translate(662,648)"/>
<path d="M0 0 C2 3 2 3 2.5 5.5625 C2.80148247 8.16854564 2.80148247 8.16854564 5 10 C4.34 10 3.68 10 3 10 C2.67 11.32 2.34 12.64 2 14 C1.46658816 12.42085985 0.94874237 10.83645613 0.4375 9.25 C0.14746094 8.36828125 -0.14257812 7.4865625 -0.44140625 6.578125 C-1.01697435 3.92165684 -0.89248371 2.52968894 0 0 Z " fill="#B9B3D6" transform="translate(16,491)"/>
<path d="M0 0 C2.64 0.99 5.28 1.98 8 3 C8 3.66 8 4.32 8 5 C6.02 5 4.04 5 2 5 C2 4.34 2 3.68 2 3 C1.34 3 0.68 3 0 3 C0 2.01 0 1.02 0 0 Z " fill="#F4F2F3" transform="translate(315,359)"/>
<path d="M0 0 C-1.625 2 -1.625 2 -4 4 C-7.25 4.25 -7.25 4.25 -10 4 C-6.87839899 0.56623888 -4.64008112 -1.54669371 0 0 Z " fill="#734092" transform="translate(223,66)"/>
<path d="M0 0 C-0.99 0.33 -1.98 0.66 -3 1 C-3 2.32 -3 3.64 -3 5 C-3.66 5 -4.32 5 -5 5 C-5 4.34 -5 3.68 -5 3 C-5.66 3 -6.32 3 -7 3 C-7.33 3.66 -7.66 4.32 -8 5 C-8.66 4.34 -9.32 3.68 -10 3 C-9.34 3 -8.68 3 -8 3 C-8 2.34 -8 1.68 -8 1 C-2.25 -1.125 -2.25 -1.125 0 0 Z " fill="#AFA9D1" transform="translate(211,42)"/>
<path d="M0 0 C-0.75 2.4375 -0.75 2.4375 -2 5 C-4.125 5.8125 -4.125 5.8125 -6 6 C-6 5.01 -6 4.02 -6 3 C-6.66 2.34 -7.32 1.68 -8 1 C-5.29120665 -0.35439668 -2.99066732 -0.06501451 0 0 Z " fill="#F8F5F8" transform="translate(474,321)"/>
<path d="M0 0 C0.33 0 0.66 0 1 0 C1.33 1.98 1.66 3.96 2 6 C0.02 6.99 -1.96 7.98 -4 9 C-2.94124926 5.59687262 -1.99097846 2.98646769 0 0 Z " fill="#A8A1CC" transform="translate(49,194)"/>
<path d="M0 0 C1.60379341 -0.05416188 3.20811406 -0.09286638 4.8125 -0.125 C5.70582031 -0.14820312 6.59914063 -0.17140625 7.51953125 -0.1953125 C10 0 10 0 13 2 C11.948125 1.979375 10.89625 1.95875 9.8125 1.9375 C6.67295096 1.98896802 4.03116604 2.26517187 1 3 C0.67 2.01 0.34 1.02 0 0 Z " fill="#773E92" transform="translate(339,28)"/>
<path d="M0 0 C3.04470873 1.52235436 4.20270948 4.18424486 6 7 C3 7 3 7 0.3125 4.5 C-0.450625 3.675 -1.21375 2.85 -2 2 C-1.34 2 -0.68 2 0 2 C0 1.34 0 0.68 0 0 Z " fill="#ABA3D0" transform="translate(155,689)"/>
<path d="M0 0 C0.66 0.33 1.32 0.66 2 1 C1.8125 2.875 1.8125 2.875 1 5 C-1.5625 6.25 -1.5625 6.25 -4 7 C-3.43628586 3.73045798 -2.50037734 2.17424117 0 0 Z " fill="#6D4B95" transform="translate(530,382)"/>
<path d="M0 0 C2.5 2.3125 2.5 2.3125 5 5 C5 5.99 5 6.98 5 8 C-0.875 4.25 -0.875 4.25 -2 2 C-1.34 2 -0.68 2 0 2 C0 1.34 0 0.68 0 0 Z " fill="#AAA3D1" transform="translate(691,153)"/>
<path d="M0 0 C0.66 0.33 1.32 0.66 2 1 C1.01 2.485 1.01 2.485 0 4 C-0.99 4 -1.98 4 -3 4 C-3 4.66 -3 5.32 -3 6 C-4.65 6 -6.3 6 -8 6 C-5.54080489 3.3651481 -3.42227589 1.25483449 0 0 Z " fill="#B9B3D4" transform="translate(195,48)"/>
<path d="M0 0 C1.65 0 3.3 0 5 0 C5 0.99 5 1.98 5 3 C4.34 3 3.68 3 3 3 C3 3.66 3 4.32 3 5 C2.01 5.33 1.02 5.66 0 6 C-1.125 2.25 -1.125 2.25 0 0 Z " fill="#B0AACF" transform="translate(675,629)"/>
<path d="M0 0 C0.433125 0.474375 0.86625 0.94875 1.3125 1.4375 C3.02309613 3.23686957 3.02309613 3.23686957 6 4 C6 4.66 6 5.32 6 6 C4.02 6 2.04 6 0 6 C-1.125 2.25 -1.125 2.25 0 0 Z " fill="#F3F0F3" transform="translate(498,445)"/>
<path d="M0 0 C0.99 0.33 1.98 0.66 3 1 C1.68 3.64 0.36 6.28 -1 9 C-1.33 9 -1.66 9 -2 9 C-2 6.36 -2 3.72 -2 1 C-1.34 0.67 -0.68 0.34 0 0 Z " fill="#6E4996" transform="translate(380,356)"/>
<path d="M0 0 C2.55803184 3.83704776 4.34505724 7.75712791 3.625 12.4375 C3.41875 12.953125 3.2125 13.46875 3 14 C2.34 13.67 1.68 13.34 1 13 C1.020625 11.96875 1.04125 10.9375 1.0625 9.875 C1.00723339 6.44847031 0.65449285 3.35427586 0 0 Z " fill="#D6D2E9" transform="translate(753,276)"/>
<path d="M0 0 C0.33 0.66 0.66 1.32 1 2 C-2.625 6.875 -2.625 6.875 -6 8 C-6 5 -6 5 -4.6875 3.61328125 C-3.125 2.40885417 -1.5625 1.20442708 0 0 Z " fill="#A8A1CC" transform="translate(70,163)"/>
<path d="M0 0 C0.66 0.66 1.32 1.32 2 2 C-3.52841596 6.76058041 -3.52841596 6.76058041 -7 7 C-7.66 6.34 -8.32 5.68 -9 5 C-6.03 3.35 -3.06 1.7 0 0 Z " fill="#C3BEDD" transform="translate(232,29)"/>
<path d="M0 0 C2.64 0 5.28 0 8 0 C8 0.66 8 1.32 8 2 C5.36 2.33 2.72 2.66 0 3 C0 2.01 0 1.02 0 0 Z " fill="#73388C" transform="translate(416,28)"/>
<path d="M0 0 C-2.91985315 2.48728231 -5.14219907 3.71066493 -9 4 C-11.3125 3.0625 -11.3125 3.0625 -13 2 C-4.57142857 -0.28571429 -4.57142857 -0.28571429 0 0 Z " fill="#C0BBDA" transform="translate(304,8)"/>
<path d="M0 0 C-3.20336822 2.83374881 -5.78087253 3.5205537 -10 4 C-9.67 3.01 -9.34 2.02 -9 1 C-6.04335481 -0.4783226 -3.25770263 -0.06032783 0 0 Z " fill="#BCB6DA" transform="translate(529,740)"/>
<path d="M0 0 C-2.05233685 2.2477975 -3.00667261 3.0022242 -6 4 C-6.33 2.68 -6.66 1.36 -7 0 C-4.3333581 -1.33332095 -2.83319697 -0.67102033 0 0 Z " fill="#A49CCD" transform="translate(591,708)"/>
<path d="M0 0 C0.6875 1.75 0.6875 1.75 1 4 C-0.4375 6.25 -0.4375 6.25 -2 8 C-2.66 7.67 -3.32 7.34 -4 7 C-3.67 6.01 -3.34 5.02 -3 4 C-3.66 4 -4.32 4 -5 4 C-5 3.34 -5 2.68 -5 2 C-2.525 2.495 -2.525 2.495 0 3 C0 2.01 0 1.02 0 0 Z " fill="#9D95C6" transform="translate(636,670)"/>
<path d="M0 0 C0.66 0.33 1.32 0.66 2 1 C0.25 6.75 0.25 6.75 -2 9 C-2.6875 6.1875 -2.6875 6.1875 -3 3 C-1.5625 1.125 -1.5625 1.125 0 0 Z " fill="#AFA8D3" transform="translate(727,553)"/>
<path d="M0 0 C0.33 0 0.66 0 1 0 C1.05399736 1.45792884 1.09279177 2.91642712 1.125 4.375 C1.14820313 5.18710937 1.17140625 5.99921875 1.1953125 6.8359375 C1 9 1 9 -1 11 C-2.60080151 6.99799622 -1.29279692 3.95443764 0 0 Z " fill="#F0ECEF" transform="translate(534,459)"/>
<path d="M0 0 C0.66 0.33 1.32 0.66 2 1 C0.75023244 4.65316671 0.32901247 5.78065836 -3 8 C-3 6.68 -3 5.36 -3 4 C-2.01 3.67 -1.02 3.34 0 3 C0 2.01 0 1.02 0 0 Z " fill="#EBE7ED" transform="translate(413,328)"/>
<path d="M0 0 C0.33 0.66 0.66 1.32 1 2 C1.66 2.33 2.32 2.66 3 3 C2.01 3.495 2.01 3.495 1 4 C0.67 4.99 0.34 5.98 0 7 C-1.32 6.67 -2.64 6.34 -4 6 C-2.68 4.02 -1.36 2.04 0 0 Z " fill="#ECE8EC" transform="translate(380,305)"/>
<path d="M0 0 C2 2 2 2 2 6 C-0.5 8.25 -0.5 8.25 -3 10 C-2.39009109 6.44219804 -1.4216319 3.3171411 0 0 Z " fill="#B9B3D7" transform="translate(28,236)"/>
<path d="M0 0 C2.475 0.99 2.475 0.99 5 2 C4.67 3.65 4.34 5.3 4 7 C3.34 7 2.68 7 2 7 C0.5393715 4.35261084 0 3.10551666 0 0 Z " fill="#9D94CA" transform="translate(138,676)"/>
<path d="M0 0 C1.32 0.33 2.64 0.66 4 1 C-1.75 5 -1.75 5 -4 5 C-4 4.01 -4 3.02 -4 2 C-2.68 2 -1.36 2 0 2 C0 1.34 0 0.68 0 0 Z " fill="#ECE8EF" transform="translate(407,474)"/>
<path d="M0 0 C0.66 0.99 1.32 1.98 2 3 C1.67 3.66 1.34 4.32 1 5 C0.34 5 -0.32 5 -1 5 C-1.33 6.32 -1.66 7.64 -2 9 C-2.99 8.67 -3.98 8.34 -5 8 C-3.35 5.36 -1.7 2.72 0 0 Z " fill="#715699" transform="translate(342,449)"/>
<path d="M0 0 C1.32 0.33 2.64 0.66 4 1 C4 3.31 4 5.62 4 8 C3.01 7.67 2.02 7.34 1 7 C0.67 4.69 0.34 2.38 0 0 Z " fill="#F4F0F5" transform="translate(436,375)"/>
<path d="M0 0 C0 0.99 0 1.98 0 3 C-3.63 2.67 -7.26 2.34 -11 2 C-11 1.67 -11 1.34 -11 1 C-9.54182203 0.83197949 -8.0834516 0.66562857 -6.625 0.5 C-5.81289063 0.4071875 -5.00078125 0.314375 -4.1640625 0.21875 C-2 0 -2 0 0 0 Z " fill="#73509A" transform="translate(404,340)"/>
<path d="M0 0 C1.98 0.66 3.96 1.32 6 2 C5.01 4.31 4.02 6.62 3 9 C2.67 9 2.34 9 2 9 C1.34 6.03 0.68 3.06 0 0 Z " fill="#735097" transform="translate(458,321)"/>
<path d="M0 0 C0.93423645 3.01031744 1.04449911 3.86650268 0 7 C-2.0625 7.6875 -2.0625 7.6875 -4 8 C-2.87548273 5.0280615 -1.77706209 2.66559313 0 0 Z " fill="#ADA6CD" transform="translate(63,171)"/>
<path d="M0 0 C-0.25 1.875 -0.25 1.875 -1 4 C-3.0625 5.25 -3.0625 5.25 -5 6 C-5 3 -5 3 -3.625 1.3125 C-2 0 -2 0 0 0 Z " fill="#713B8F" transform="translate(126,138)"/>
<path d="M0 0 C0 0.99 0 1.98 0 3 C-3.465 4.485 -3.465 4.485 -7 6 C-6.6875 4.125 -6.6875 4.125 -6 2 C-3 0 -3 0 0 0 Z " fill="#ABA3D2" transform="translate(91,138)"/>
<path d="M0 0 C2.42102911 1.18098981 3.82068009 2.2331559 5.5625 4.25 C3.9125 4.25 2.2625 4.25 0.5625 4.25 C0.2325 3.26 -0.0975 2.27 -0.4375 1.25 C-2.45258358 0.51676204 -2.45258358 0.51676204 -4.4375 0.25 C-2.4375 -0.75 -2.4375 -0.75 0 0 Z " fill="#B4ADD4" transform="translate(591.4375,59.75)"/>
<path d="M0 0 C1.98 0.495 1.98 0.495 4 1 C3.67 3.31 3.34 5.62 3 8 C0.9375 6.25 0.9375 6.25 -1 4 C-0.75 1.75 -0.75 1.75 0 0 Z " fill="#A098CC" transform="translate(83,619)"/>
<path d="M0 0 C4.8 3.44615385 4.8 3.44615385 5.8125 6.25 C5.874375 6.8275 5.93625 7.405 6 8 C4.125 7.375 4.125 7.375 2 6 C0.75 2.875 0.75 2.875 0 0 Z " fill="#EAE6EC" transform="translate(528,449)"/>
<path d="M0 0 C2 0 2 0 3.625 1.25 C5 3 5 3 5 7 C3.0625 6.3125 3.0625 6.3125 1 5 C0.25 2.375 0.25 2.375 0 0 Z " fill="#6C4E99" transform="translate(498,442)"/>
<path d="M0 0 C1.98 1.65 3.96 3.3 6 5 C4.1875 5.625 4.1875 5.625 2 6 C1.01 5.34 0.02 4.68 -1 4 C-0.67 2.68 -0.34 1.36 0 0 Z " fill="#AAA3CD" transform="translate(639,96)"/>
<path d="M0 0 C2.88437779 1.29299694 4.87219421 2.65941363 7 5 C5.02 5 3.04 5 1 5 C0.67 3.35 0.34 1.7 0 0 Z " fill="#AAA3D0" transform="translate(597,64)"/>
<path d="M0 0 C3.96 1.98 3.96 1.98 8 4 C6.02 4.99 6.02 4.99 4 6 C2.35 4.35 0.7 2.7 -1 1 C-0.67 0.67 -0.34 0.34 0 0 Z " fill="#C2BEDA" transform="translate(535,29)"/>
<path d="M0 0 C0.99 0.33 1.98 0.66 3 1 C4.1875 4.0625 4.1875 4.0625 5 7 C2.525 6.01 2.525 6.01 0 5 C0 3.33333333 0 1.66666667 0 0 Z " fill="#ADA6D1" transform="translate(172,701)"/>
<path d="M0 0 C1.32 0.66 2.64 1.32 4 2 C2 4 2 4 -0.625 4.125 C-1.40875 4.08375 -2.1925 4.0425 -3 4 C-3 3.34 -3 2.68 -3 2 C-2.01 1.34 -1.02 0.68 0 0 Z " fill="#8C82BD" transform="translate(662,644)"/>
<path d="M0 0 C0 0.66 0 1.32 0 2 C1.98 2 3.96 2 6 2 C6 2.33 6 2.66 6 3 C-2.57142857 3.28571429 -2.57142857 3.28571429 -6 1 C-3 0 -3 0 0 0 Z " fill="#C9BFD5" transform="translate(271,477)"/>
<path d="M0 0 C0.66 0 1.32 0 2 0 C2.33 1.98 2.66 3.96 3 6 C2.01 6.495 2.01 6.495 1 7 C0.34 6.34 -0.32 5.68 -1 5 C-0.625 2.375 -0.625 2.375 0 0 Z " fill="#9A92C4" transform="translate(756,467)"/>
<path d="M0 0 C0.66 0.33 1.32 0.66 2 1 C1.34 2.98 0.68 4.96 0 7 C-0.66 6.67 -1.32 6.34 -2 6 C-1.125 1.125 -1.125 1.125 0 0 Z " fill="#6B4C98" transform="translate(348,436)"/>
<path d="M0 0 C1 2 2 4 3 6 C2.34 6.66 1.68 7.32 1 8 C0.01 6.68 -0.98 5.36 -2 4 C-1.34 2.68 -0.68 1.36 0 0 Z " fill="#725399" transform="translate(436,378)"/>
<path d="M0 0 C0.66 0.33 1.32 0.66 2 1 C-0.97 3.475 -0.97 3.475 -4 6 C-4 5.34 -4 4.68 -4 4 C-4.66 3.67 -5.32 3.34 -6 3 C-4.03533587 1.93224776 -2.03144641 0.93446535 0 0 Z " fill="#F2EFF2" transform="translate(274,359)"/>
<path d="M0 0 C1.65 1.32 3.3 2.64 5 4 C3.02 4.99 3.02 4.99 1 6 C0.01 5.34 -0.98 4.68 -2 4 C-1.34 4 -0.68 4 0 4 C0 2.68 0 1.36 0 0 Z " fill="#724E96" transform="translate(312,353)"/>
<path d="M0 0 C-2 2 -2 2 -5.625 2.125 C-6.73875 2.08375 -7.8525 2.0425 -9 2 C-5.945634 -1.054366 -3.9532319 -1.22686507 0 0 Z " fill="#E8E2EB" transform="translate(393,301)"/>
<path d="M0 0 C0.99 0.33 1.98 0.66 3 1 C2.67 2.32 2.34 3.64 2 5 C0.35 5.33 -1.3 5.66 -3 6 C-1.125 1.125 -1.125 1.125 0 0 Z " fill="#ABA3D2" transform="translate(58,179)"/>
<path d="M0 0 C0.66 0.33 1.32 0.66 2 1 C1.6875 2.9375 1.6875 2.9375 1 5 C0.01 5.33 -0.98 5.66 -2 6 C-2.33 5.01 -2.66 4.02 -3 3 C-2.01 2.01 -1.02 1.02 0 0 Z " fill="#978EC3" transform="translate(199,46)"/>
</svg>
