<?xml version="1.0" encoding="UTF-8"?>
<svg version="1.1" xmlns="http://www.w3.org/2000/svg" width="256" height="256">
<path d="M0 0 C1.81177734 0.36738281 1.81177734 0.36738281 3.66015625 0.7421875 C21.70511768 4.95952078 40.85217659 14.85884777 51.5625 30.4375 C56.17330798 38.32399985 59.26715077 47.26611924 62.41796875 55.81640625 C62.83691406 56.94949219 63.25585938 58.08257812 63.6875 59.25 C64.21923828 60.74273437 64.21923828 60.74273437 64.76171875 62.265625 C67.0548298 67.32927717 70.01120182 70.34806528 74.8125 73.0625 C75.68519531 73.56394531 76.55789062 74.06539063 77.45703125 74.58203125 C78.29621094 75.04996094 79.13539063 75.51789063 80 76 C86.8375 79.8375 86.8375 79.8375 89 82 C89.61304908 88.13049081 88.99248422 91.06810772 85 96 C84.34 96.66 83.68 97.32 83 98 C82.5832448 100.95788569 82.5832448 100.95788569 83 104 C83.515625 104.495 84.03125 104.99 84.5625 105.5 C85.036875 105.995 85.51125 106.49 86 107 C85.77669287 110.64734979 85.61627165 112.38372835 83 115 C83.66 115.66 84.32 116.32 85 117 C84.625 120.125 84.625 120.125 84 123 C83.34 123 82.68 123 82 123 C81.84728285 127.27608025 81.84678021 130.88776662 83.0625 135 C84.58667337 140.59229079 84.02579891 145.02438728 81.3125 150.25 C77.91279586 154.29289141 74.25348985 157.093368 69 158 C66.84281842 157.99275995 64.68552966 157.92068267 62.53125 157.80859375 C61.24750488 157.74937744 59.96375977 157.69016113 58.64111328 157.62915039 C57.96502014 157.59709503 57.288927 157.56503967 56.59234619 157.53201294 C23.33911658 156.02993814 -0.00392567 164.34955204 -29.234375 179.74609375 C-36.28103507 182.94097777 -42.56080881 184.53713613 -50.3125 184.4375 C-51.13919189 184.43065186 -51.96588379 184.42380371 -52.81762695 184.41674805 C-63.3136649 184.14336573 -73.89319087 181.04433538 -81.52734375 173.48828125 C-84.68193933 169.85821039 -86.75333337 166.89111081 -87.375 162.125 C-86.75063799 156.92198324 -84.25540883 154.05103995 -80.3125 150.75 C-75.2223183 148.0608474 -70.27407473 147.28132883 -64.58984375 146.578125 C-53.79057388 145.23832254 -47.58906455 143.45418481 -40.4453125 135.09765625 C-36.49271698 129.3610514 -36.3685546 123.76132305 -37 117 C-38.77228199 110.0661084 -42.77821092 105.51357886 -48.75 101.8125 C-60.08009366 96.01955703 -71.45839226 96.05586127 -83.375 99.7421875 C-100.6233503 105.72706767 -109.74085071 117.62930173 -118.9375 132.8359375 C-119.43580322 133.659729 -119.93410645 134.48352051 -120.44750977 135.33227539 C-121.43095887 136.9693161 -122.40561815 138.6116736 -123.37084961 140.25952148 C-123.81436768 141.00532471 -124.25788574 141.75112793 -124.71484375 142.51953125 C-125.10792725 143.19089111 -125.50101074 143.86225098 -125.90600586 144.55395508 C-126.26702393 145.0311499 -126.62804199 145.50834473 -127 146 C-127.66 146 -128.32 146 -129 146 C-129.24878906 146.60457031 -129.49757813 147.20914063 -129.75390625 147.83203125 C-131.19797455 150.34443848 -132.46135813 151.22579242 -134.9375 152.6875 C-135.62714844 153.10386719 -136.31679687 153.52023438 -137.02734375 153.94921875 C-141.58034007 156.37447817 -145.95606155 156.72056264 -151 156 C-155.32864796 154.22542018 -158.06892381 151.59718865 -159.9375 147.3125 C-162.09303308 140.1453525 -161.89570321 133.25942469 -158.515625 126.546875 C-150.41470682 112.93399187 -141.08206948 102.64027174 -127 95 C-128.08539063 94.90203125 -129.17078125 94.8040625 -130.2890625 94.703125 C-131.73446565 94.55295324 -133.17977353 94.40186268 -134.625 94.25 C-135.69427734 94.1571875 -135.69427734 94.1571875 -136.78515625 94.0625 C-142.7720068 93.40339719 -146.97614788 91.49608428 -150.875 86.6875 C-153.53396196 80.33553532 -151.6496063 74.86664579 -149.24609375 68.75390625 C-144.11143961 57.40615964 -134.6927321 48.67895598 -126 40 C-125.21882813 39.17242187 -124.43765625 38.34484375 -123.6328125 37.4921875 C-92.04065702 4.52218101 -44.70301272 -9.33772414 0 0 Z " fill="#DE4D33" transform="translate(164,37)"/>
<path d="M0 0 C8.85270581 6.56475988 15.28813419 14.04799338 18.3125 24.71484375 C19.78402575 37.91950843 18.03588155 49.57196656 10.03027344 60.45849609 C7.04641078 64.15757963 3.7593174 67.44838307 0.3125 70.71484375 C-0.368125 71.3903125 -1.04875 72.06578125 -1.75 72.76171875 C-9.29659995 79.86810037 -18.39203579 84.43449466 -28 88.08984375 C-28.65742187 88.34064697 -29.31484375 88.5914502 -29.9921875 88.84985352 C-34.24967971 90.39319444 -38.21735907 91.21751889 -42.6875 91.71484375 C-42.6875 92.37484375 -42.6875 93.03484375 -42.6875 93.71484375 C-44.24597656 94.06095703 -44.24597656 94.06095703 -45.8359375 94.4140625 C-64.41219708 98.68664682 -76.00078218 106.32806827 -86.453125 122.73144531 C-87.86133904 124.99416897 -89.2457903 127.27026159 -90.625 129.55078125 C-91.12330322 130.37457275 -91.62160645 131.19836426 -92.13500977 132.04711914 C-93.11845887 133.68415985 -94.09311815 135.32651735 -95.05834961 136.97436523 C-95.50186768 137.72016846 -95.94538574 138.46597168 -96.40234375 139.234375 C-96.79542725 139.90573486 -97.18851074 140.57709473 -97.59350586 141.26879883 C-97.95452393 141.74599365 -98.31554199 142.22318848 -98.6875 142.71484375 C-99.3475 142.71484375 -100.0075 142.71484375 -100.6875 142.71484375 C-100.93628906 143.31941406 -101.18507813 143.92398438 -101.44140625 144.546875 C-102.88547455 147.05928223 -104.14885813 147.94063617 -106.625 149.40234375 C-107.31464844 149.81871094 -108.00429687 150.23507813 -108.71484375 150.6640625 C-113.26784007 153.08932192 -117.64356155 153.43540639 -122.6875 152.71484375 C-127.01614796 150.94026393 -129.75642381 148.3120324 -131.625 144.02734375 C-133.78053308 136.86019625 -133.58320321 129.97426844 -130.203125 123.26171875 C-122.10220682 109.64883562 -112.76956948 99.35511549 -98.6875 91.71484375 C-99.77289063 91.616875 -100.85828125 91.51890625 -101.9765625 91.41796875 C-103.42196565 91.26779699 -104.86727353 91.11670643 -106.3125 90.96484375 C-107.38177734 90.87203125 -107.38177734 90.87203125 -108.47265625 90.77734375 C-114.4595068 90.11824094 -118.66364788 88.21092803 -122.5625 83.40234375 C-125.22146196 77.05037907 -123.3371063 71.58148954 -120.93359375 65.46875 C-115.79893961 54.12100339 -106.3802321 45.39379973 -97.6875 36.71484375 C-96.90632813 35.88726562 -96.12515625 35.0596875 -95.3203125 34.20703125 C-75.35164027 13.36745119 -29.73873823 -17.33085252 0 0 Z " fill="#389EB5" transform="translate(135.6875,40.28515625)"/>
<path d="M0 0 C20.80745859 9.42634345 30.05257741 23.46641673 38 44 C38.47585364 45.27094286 38.94871708 46.54301106 39.41796875 47.81640625 C39.83691406 48.94949219 40.25585938 50.08257812 40.6875 51.25 C41.21923828 52.74273437 41.21923828 52.74273437 41.76171875 54.265625 C44.0548298 59.32927717 47.01120182 62.34806528 51.8125 65.0625 C52.68519531 65.56394531 53.55789062 66.06539063 54.45703125 66.58203125 C55.29621094 67.04996094 56.13539063 67.51789063 57 68 C63.8375 71.8375 63.8375 71.8375 66 74 C66.61304908 80.13049081 65.99248422 83.06810772 62 88 C61.34 88.66 60.68 89.32 60 90 C59.5832448 92.95788569 59.5832448 92.95788569 60 96 C60.515625 96.495 61.03125 96.99 61.5625 97.5 C62.036875 97.995 62.51125 98.49 63 99 C62.77669287 102.64734979 62.61627165 104.38372835 60 107 C60.66 107.66 61.32 108.32 62 109 C61.625 112.125 61.625 112.125 61 115 C60.34 115 59.68 115 59 115 C58.84728285 119.27608025 58.84678021 122.88776662 60.0625 127 C61.58667337 132.59229079 61.02579891 137.02438728 58.3125 142.25 C54.91138665 146.29456722 51.25384143 149.08990392 46 150 C43.81969445 150.0042384 41.63894508 149.94391602 39.4609375 149.84375 C38.16551025 149.79017334 36.87008301 149.73659668 35.53540039 149.68139648 C34.85494659 149.65149628 34.1744928 149.62159607 33.47341919 149.59078979 C21.25729599 149.06224939 9.19451596 148.91269748 -3 150 C-0.16337656 148.51353142 2.67330827 147.38518337 5.6875 146.3125 C18.76978909 141.09882303 27.94604316 129.74547131 33.82250977 117.2512207 C36.09040476 111.87010603 36.50841943 106.98904178 36.4375 101.1875 C36.42847656 100.30457275 36.41945312 99.42164551 36.41015625 98.51196289 C35.97620161 82.14072271 26.99414509 71.54497203 15.66796875 60.484375 C13.43538144 58.40542108 11.16405957 56.44038314 8.8125 54.5 C-0.65348568 46.33098987 -8.7547549 33.29995588 -10.2734375 20.73828125 C-10.55593896 13.99084242 -9.07398514 9.40628839 -5 4 C-2.1875 1.4375 -2.1875 1.4375 0 0 Z " fill="#49CA9C" transform="translate(187,45)"/>
<path d="M0 0 C22.20267909 -0.67967385 22.20267909 -0.67967385 32 3 C32.495 4.485 32.495 4.485 33 6 C33.598125 6.12375 34.19625 6.2475 34.8125 6.375 C38.89723973 7.5420685 40.74284314 11.6142647 43 15 C43.33 13.68 43.66 12.36 44 11 C51.43693091 17.39576058 58.1556713 24.85379165 59.2109375 35.03515625 C59.61746271 47.29866689 57.18690901 60.55356653 49 70 C48.01 70.66 47.02 71.32 46 72 C45.505 73.485 45.505 73.485 45 75 C42.890625 76.68359375 42.890625 76.68359375 40.25 78.4375 C37.45893566 80.31671094 34.82781702 82.14479023 32.25 84.3125 C24.78477545 89.91141841 13.84909741 88.76793568 5 88 C-5.2131491 85.96616514 -13.86823182 81.47626778 -20 73 C-22.20684638 69.63718647 -22.47954707 66.99622561 -22 63 C-19.26499606 57.74037704 -15.83864837 54.25052875 -10.10546875 52.3828125 C-6.62066109 51.54232086 -3.14740154 51.01823524 0.41015625 50.578125 C11.20942612 49.23832254 17.41093545 47.45418481 24.5546875 39.09765625 C28.50728302 33.3610514 28.6314454 27.76132305 28 21 C26.54460103 15.30588432 23.54085081 10.69671433 18.6484375 7.4296875 C12.57793354 3.88998519 6.96707274 1.87655145 0 1 C0 0.67 0 0.34 0 0 Z " fill="#DC9041" transform="translate(99,133)"/>
<path d="M0 0 C8.47520618 -0.32987329 14.47922644 0.39445823 21.5390625 5.22265625 C22.4053125 5.80015625 23.2715625 6.37765625 24.1640625 6.97265625 C26.42991756 10.68041908 26.41767421 14.01883716 25.5390625 18.22265625 C18.45169391 33.4837784 2.92511799 41.2825479 -11.4609375 48.22265625 C-12.83690794 48.92910261 -14.21203045 49.63720532 -15.5859375 50.34765625 C-19.34182792 52.24131649 -23.22276456 53.73301565 -27.1640625 55.1953125 C-29.5197828 56.10817228 -29.5197828 56.10817228 -31.2734375 57.8515625 C-34.5063571 59.87791032 -37.55476295 59.41978803 -41.2109375 59.09765625 C-41.92668945 59.04198486 -42.64244141 58.98631348 -43.37988281 58.92895508 C-49.80620659 58.34560883 -54.81893714 57.39045142 -59.8984375 53.22265625 C-62.29953127 50.14925623 -62.81142557 47.22336135 -62.73828125 43.37109375 C-61.54065799 34.09373045 -56.4399425 24.46518334 -49.4609375 18.22265625 C-46.571846 16.36037211 -43.50338872 14.81897762 -40.4609375 13.22265625 C-39.41292969 12.660625 -38.36492188 12.09859375 -37.28515625 11.51953125 C-25.32503152 5.28888869 -13.52921625 0.87038976 0 0 Z " fill="#2E9F96" transform="translate(74.4609375,72.77734375)"/>
<path d="M0 0 C2.89359609 2.80591136 5.58743792 5.66935772 8.1875 8.75 C12.39227255 13.61434472 17.19791418 17.74096104 22 22 C31.33511106 30.32489864 38.58504542 41.01219938 39.50390625 53.76171875 C39.92349732 69.05911786 36.62824776 79.83864904 26.28515625 91.59765625 C17.01108012 101.34732603 7.19648696 105.85648969 -5.5625 109.8125 C-14.04199148 112.51876262 -22.07242308 115.59148988 -29.99829102 119.6496582 C-31.64131144 120.4826951 -33.31796081 121.24886036 -35 122 C-35.66 121.67 -36.32 121.34 -37 121 C-36.27554688 120.41992188 -35.55109375 119.83984375 -34.8046875 119.2421875 C-28.39060223 114.09635292 -28.39060223 114.09635292 -22.4375 108.4375 C-21.633125 107.633125 -20.82875 106.82875 -20 106 C-19.34 106 -18.68 106 -18 106 C-17.73445313 105.41605469 -17.46890625 104.83210938 -17.1953125 104.23046875 C-15.96658391 101.93764514 -14.58164114 100.26918391 -12.875 98.3125 C3.23053116 77.87860734 8.53619627 49.00553512 5.74511719 23.68798828 C4.63292496 16.20737646 2.52923944 9.10595842 0 2 C0 1.34 0 0.68 0 0 Z " fill="#E6AD47" transform="translate(185,87)"/>
<path d="M0 0 C-0.39832031 0.43570313 -0.79664063 0.87140625 -1.20703125 1.3203125 C-6.66358452 7.45395632 -9.47921987 12.08367831 -9.23828125 20.453125 C-8.89425392 24.13026958 -8.04848279 27.46137057 -7 31 C-9.71191737 28.37690089 -12.09942405 25.69489264 -14.375 22.6875 C-14.98730469 21.89730469 -15.59960938 21.10710937 -16.23046875 20.29296875 C-17.28406194 18.92771665 -18.33093671 17.55717064 -19.36328125 16.17578125 C-28.1026592 5.11621447 -43.87931266 -5.54309655 -58.0534668 -7.24682617 C-60.18145777 -7.4138948 -62.30507171 -7.53135265 -64.4375 -7.625 C-65.53481445 -7.68300781 -65.53481445 -7.68300781 -66.65429688 -7.7421875 C-68.43583532 -7.83533984 -70.21788122 -7.91870286 -72 -8 C-72 -8.33 -72 -8.66 -72 -9 C-50.43285042 -14.01299964 -19.48732644 -11.13561511 0 0 Z " fill="#E3C460" transform="translate(187,45)"/>
<path d="M0 0 C22.20267909 -0.67967385 22.20267909 -0.67967385 32 3 C32.495 4.485 32.495 4.485 33 6 C33.598125 6.12375 34.19625 6.2475 34.8125 6.375 C38.19246312 7.34070375 39.08662606 9.07014615 41 12 C42.46732616 15.28640859 43.76602936 18.61970809 45 22 C44.01 22.33 43.02 22.66 42 23 C41.95875 24.155 41.9175 25.31 41.875 26.5 C40.99341652 33.33529111 36.55912793 37.95577971 31.375 42.1875 C26.4176272 45.67779729 20.80583735 48.27115066 15 50 C14.01 49.67 13.02 49.34 12 49 C12.50789063 48.72027344 13.01578125 48.44054687 13.5390625 48.15234375 C20.3398546 44.19158281 25.5008921 39.64567258 28 32 C28.92651962 23.84181423 27.59523051 18.43351878 23.5 11.4375 C16.98463056 5.0850148 8.89912133 2.11962915 0 1 C0 0.67 0 0.34 0 0 Z " fill="#7A665C" transform="translate(99,133)"/>
<path d="M0 0 C12.39168797 5.61377096 25.06106436 14.27725922 31 27 C31.61377413 29.40053881 31.84450529 31.51208463 32 34 C31.4225 33.2575 30.845 32.515 30.25 31.75 C28.12192547 29.04166225 28.12192547 29.04166225 25.9375 27 C24 25 24 25 22.6953125 22.62109375 C20.76143814 19.63116357 18.84175192 18.1059233 15.9375 16.0625 C14.48730469 15.03962891 14.48730469 15.03962891 13.0078125 13.99609375 C9.35985644 11.57517745 5.62534016 9.35594367 1.80078125 7.2265625 C1.20652344 6.82179688 0.61226562 6.41703125 0 6 C0 5.34 0 4.68 0 4 C0.66 4 1.32 4 2 4 C2 3.34 2 2.68 2 2 C1.01 1.67 0.02 1.34 -1 1 C-0.67 0.67 -0.34 0.34 0 0 Z " fill="#53D1A0" transform="translate(187,45)"/>
<path d="M0 0 C0 3.69418201 -1.28179295 5.77836178 -3 9 C-1.72689688 8.06558465 -0.456612 7.12732889 0.8125 6.1875 C1.52019531 5.66542969 2.22789062 5.14335937 2.95703125 4.60546875 C4.78531393 3.16871123 6.39896688 1.68184237 8 0 C8.66 0.33 9.32 0.66 10 1 C8.2725597 2.5852517 6.54312043 4.16822626 4.8125 5.75 C3.36810547 7.07257813 3.36810547 7.07257813 1.89453125 8.421875 C-2.95453075 12.74087759 -7.48935629 15.95537078 -13.3125 18.75 C-13.95767578 19.06582031 -14.60285156 19.38164062 -15.26757812 19.70703125 C-16.84234459 20.47691708 -18.4208004 21.23924891 -20 22 C-20 21.01 -20 20.02 -20 19 C-18.13671875 17.46484375 -18.13671875 17.46484375 -15.6875 15.9375 C-14.48673828 15.17759766 -14.48673828 15.17759766 -13.26171875 14.40234375 C-12.51535156 13.93957031 -11.76898438 13.47679687 -11 13 C-10.01 12.34 -9.02 11.68 -8 11 C-8 10.01 -8 9.02 -8 8 C-7.38125 7.938125 -6.7625 7.87625 -6.125 7.8125 C-3.7409707 7.18447843 -3.7409707 7.18447843 -2.875 4.5625 C-2.58625 3.716875 -2.2975 2.87125 -2 2 C-1.34 1.34 -0.68 0.68 0 0 Z " fill="#B95741" transform="translate(152,196)"/>
<path d="M0 0 C10.25476621 -0.77818631 18.64643779 0.83895415 28 5 C29.9296875 6.66796875 29.9296875 6.66796875 31 8 C29.3671875 9.1328125 29.3671875 9.1328125 27 10 C24.2578125 9.2421875 24.2578125 9.2421875 21.125 7.875 C14.1911748 5.00230284 7.24666037 2.94475593 0 1 C0 0.67 0 0.34 0 0 Z " fill="#F0C74B" transform="translate(156,38)"/>
<path d="M0 0 C0.66 0.33 1.32 0.66 2 1 C1.690625 1.53625 1.38125 2.0725 1.0625 2.625 C-0.17827439 5.3984957 -0.5909675 8.00042837 -1 11 C-2.41782145 10.93940934 -3.83444466 10.85045877 -5.25 10.75 C-6.03890625 10.70359375 -6.8278125 10.6571875 -7.640625 10.609375 C-10.67898672 9.82463257 -11.96841312 8.32980147 -14 6 C-13.15695313 5.65066406 -12.31390625 5.30132812 -11.4453125 4.94140625 C-10.34960938 4.48636719 -9.25390625 4.03132812 -8.125 3.5625 C-7.03445312 3.11003906 -5.94390625 2.65757812 -4.8203125 2.19140625 C-3.19441376 1.50456537 -1.57868226 0.78934113 0 0 Z " fill="#60D1A8" transform="translate(247,130)"/>
<path d="M0 0 C1.14210937 -0.01224609 2.28421875 -0.02449219 3.4609375 -0.03710938 C10.0542861 -0.04847722 15.87891178 0.47272838 22.25 2.1875 C22.25 2.5175 22.25 2.8475 22.25 3.1875 C8.87329823 3.29640351 -4.41119695 3.28598966 -17.75 2.1875 C-17.75 1.8575 -17.75 1.5275 -17.75 1.1875 C-11.84747007 -0.16657008 -6.0283517 0.00335654 0 0 Z " fill="#ECBC4A" transform="translate(132.75,34.8125)"/>
<path d="M0 0 C7.17700471 0.35885024 11.47839711 4.77858793 16.625 9.3125 C21.69339755 15.04779196 25.66740598 20.1840406 26 28 C23.0547944 26.5273972 22.9698172 24.49609771 21.875 21.4375 C19.39536555 15.20490531 16.08429478 11.28947946 11 7 C11 8.65 11 10.3 11 12 C8 10 8 10 6.625 7.125 C4.86145087 3.73355936 3.09531384 2.1750854 0 0 Z " fill="#913834" transform="translate(132,138)"/>
<path d="M0 0 C0.33 0 0.66 0 1 0 C1.738041 13.6332574 1.738041 13.6332574 -3 20 C-1.02 19.34 0.96 18.68 3 18 C-1.39121147 23.48901434 -7.33742939 26.00692332 -14 28 C-14.99 27.67 -15.98 27.34 -17 27 C-16.49210937 26.72027344 -15.98421875 26.44054687 -15.4609375 26.15234375 C-9.47676602 22.66718021 -5.12446624 18.74310718 -1.6875 12.6875 C-0.62025993 8.51556153 -0.3162939 4.28661468 0 0 Z " fill="#63A487" transform="translate(128,155)"/>
<path d="M0 0 C0.66 0.33 1.32 0.66 2 1 C0.91332031 2.17755859 0.91332031 2.17755859 -0.1953125 3.37890625 C-8.9900702 12.07016107 -8.9900702 12.07016107 -16 22 C-16.66 22 -17.32 22 -18 22 C-18.12375 22.639375 -18.2475 23.27875 -18.375 23.9375 C-18.58125 24.618125 -18.7875 25.29875 -19 26 C-19.66 26.33 -20.32 26.66 -21 27 C-20.40686977 22.78565359 -17.98053295 19.68394437 -15.5625 16.3125 C-15.12309082 15.69616699 -14.68368164 15.07983398 -14.23095703 14.44482422 C-10.10978754 8.84020927 -5.42847511 4.36587998 0 0 Z " fill="#4C8E9E" transform="translate(27,138)"/>
<path d="M0 0 C-2.37466762 2.37466762 -4.37236734 3.04086366 -7.5 4.25 C-12.72446153 6.35237368 -17.33821877 8.87268094 -22.0390625 11.9609375 C-22.68617187 12.30382813 -23.33328125 12.64671875 -24 13 C-24.66 12.67 -25.32 12.34 -26 12 C-20.22497626 5.8532506 -8.81653012 -2.93884337 0 0 Z " fill="#35AABE" transform="translate(88,46)"/>
<path d="M0 0 C0.33 0.99 0.66 1.98 1 3 C0.01 3.99 -0.98 4.98 -2 6 C-1.01 6 -0.02 6 1 6 C0 9 0 9 -3.30859375 10.859375 C-4.67986574 11.50045463 -6.05645615 12.13025179 -7.4375 12.75 C-8.13166016 13.07871094 -8.82582031 13.40742188 -9.54101562 13.74609375 C-11.33029974 14.56712054 -13.16336687 15.2911972 -15 16 C-15.66 15.67 -16.32 15.34 -17 15 C-16.27554688 14.41992188 -15.55109375 13.83984375 -14.8046875 13.2421875 C-9.60374413 9.03982526 -4.60347013 4.85230636 0 0 Z " fill="#CC9946" transform="translate(165,193)"/>
<path d="M0 0 C3.3 1.65 6.6 3.3 10 5 C9.67 5.99 9.34 6.98 9 8 C11.97 10.64 14.94 13.28 18 16 C14.47961808 16 13.90781758 15.39751661 11.25 13.25 C7.64892645 10.43582771 4.0155129 8.17506949 0 6 C0 5.34 0 4.68 0 4 C0.66 4 1.32 4 2 4 C2 3.34 2 2.68 2 2 C1.01 1.67 0.02 1.34 -1 1 C-0.67 0.67 -0.34 0.34 0 0 Z " fill="#67CDA0" transform="translate(187,45)"/>
<path d="M0 0 C7.4727727 3.40426312 12.89510174 9.74649963 18 16 C18.66 15.34 19.32 14.68 20 14 C21.485 19.94 21.485 19.94 23 26 C20.2272209 23.2272209 17.95351952 20.76486266 15.625 17.6875 C10.81091958 11.43638065 6.13899667 5.96966397 0 1 C0 0.67 0 0.34 0 0 Z " fill="#E8C853" transform="translate(157,50)"/>
<path d="M0 0 C1 3 1 3 0.22729492 4.85351562 C-0.18415771 5.53091797 -0.59561035 6.20832031 -1.01953125 6.90625 C-1.46490234 7.65003906 -1.91027344 8.39382812 -2.36914062 9.16015625 C-2.84544922 9.93230469 -3.32175781 10.70445312 -3.8125 11.5 C-4.27720703 12.27214844 -4.74191406 13.04429687 -5.22070312 13.83984375 C-7.09114864 16.93667894 -8.99282614 19.98923921 -11 23 C-11.66 23 -12.32 23 -13 23 C-13 23.66 -13 24.32 -13 25 C-13.99 24.67 -14.98 24.34 -16 24 C-15.59910156 23.52433594 -15.19820312 23.04867187 -14.78515625 22.55859375 C-9.05521588 15.50336105 -4.5540537 7.83792916 0 0 Z " fill="#408D99" transform="translate(48,160)"/>
<path d="M0 0 C0.66 0.33 1.32 0.66 2 1 C-1.96 4.465 -1.96 4.465 -6 8 C-5.01 8.66 -4.02 9.32 -3 10 C-8.94 10.33 -14.88 10.66 -21 11 C-18.03754149 9.51877074 -15.27099865 8.3286373 -12.1875 7.1875 C-7.52830816 5.3583358 -3.93271921 3.07778025 0 0 Z " fill="#31B88E" transform="translate(205,184)"/>
<path d="M0 0 C11.24324 10.90253575 11.24324 10.90253575 14 17 C13.51789063 16.57847656 13.03578125 16.15695313 12.5390625 15.72265625 C11.90742188 15.17480469 11.27578125 14.62695312 10.625 14.0625 C9.68527344 13.24458984 9.68527344 13.24458984 8.7265625 12.41015625 C7.04367666 10.93041376 7.04367666 10.93041376 5 10 C5.33 11.98 5.66 13.96 6 16 C3.50063756 13.50063756 2.96276247 11.35191992 1.875 8 C1.52179688 6.9275 1.16859375 5.855 0.8046875 4.75 C0 2 0 2 0 0 Z " fill="#F3B541" transform="translate(185,87)"/>
<path d="M0 0 C6.50799121 0.99518578 11.4667853 2.39138172 17 6 C16.01 6.99 15.02 7.98 14 9 C13.40832031 8.59007812 12.81664062 8.18015625 12.20703125 7.7578125 C11.41683594 7.21898437 10.62664062 6.68015625 9.8125 6.125 C9.03519531 5.59132813 8.25789062 5.05765625 7.45703125 4.5078125 C5.0323391 3.01984561 2.6666501 1.97571922 0 1 C0 0.67 0 0.34 0 0 Z " fill="#DD684A" transform="translate(128,37)"/>
<path d="M0 0 C1.11084961 0.07831055 1.11084961 0.07831055 2.24414062 0.15820312 C4.05902709 0.28700152 5.87333325 0.42393262 7.6875 0.5625 C5.48458046 3.06881564 5.0644499 3.53234401 1.5625 3.8125 C-1.3125 3.5625 -1.3125 3.5625 -2.3125 2.5625 C-3.405625 2.583125 -4.49875 2.60375 -5.625 2.625 C-9.02853882 2.5673129 -10.52344566 2.34749478 -13.3125 0.5625 C-8.82082172 -0.63350901 -4.57980207 -0.3560704 0 0 Z " fill="#4EA6B3" transform="translate(120.3125,36.4375)"/>
<path d="M0 0 C-2.36196759 3.54295139 -3.92015058 3.77042481 -7.95703125 4.66015625 C-10.33448358 5.05564067 -12.59508395 5.15030725 -15 5 C-9.79981505 0.64308829 -6.77267164 -0.12778626 0 0 Z " fill="#32ACC3" transform="translate(103,40)"/>
<path d="M0 0 C0.99 0.33 1.98 0.66 3 1 C-1.43322068 5.13767263 -6.39879629 6.95528874 -12 9 C-10.72995023 5.18985068 -9.48886603 4.82372543 -6 3 C-4.33859237 2.32033324 -2.67299959 1.65061095 -1 1 C-0.67 0.67 -0.34 0.34 0 0 Z " fill="#C65A3C" transform="translate(143,209)"/>
<path d="M0 0 C0 0.66 0 1.32 0 2 C3.63 2 7.26 2 11 2 C11 2.33 11 2.66 11 3 C8.25048307 3.22212255 5.50134388 3.42815588 2.75 3.625 C1.97269531 3.68945312 1.19539063 3.75390625 0.39453125 3.8203125 C-6.72431144 4.30707097 -6.72431144 4.30707097 -10 2 C-3.375 0 -3.375 0 0 0 Z " fill="#C04D3B" transform="translate(103,130)"/>
<path d="M0 0 C0.99 0.66 1.98 1.32 3 2 C-1.10457614 4.98514628 -3.97745369 5.2954439 -9 5 C-9 4.34 -9 3.68 -9 3 C-7.56879256 2.44191911 -6.12969645 1.90403538 -4.6875 1.375 C-3.88699219 1.07335937 -3.08648437 0.77171875 -2.26171875 0.4609375 C-1.51535156 0.30882812 -0.76898438 0.15671875 0 0 Z " fill="#61D1A9" transform="translate(244,149)"/>
<path d="M0 0 C1.485 0.99 1.485 0.99 3 2 C3.66 1.34 4.32 0.68 5 0 C5.99 3.96 6.98 7.92 8 12 C4.71547 8.71547 2.38606681 5.91996691 0 2 C0 1.34 0 0.68 0 0 Z " fill="#F3CA47" transform="translate(172,64)"/>
<path d="M0 0 C-0.95367949 2.38419873 -1.57989872 3.73467287 -3.78125 5.125 C-6.27893252 6.11000156 -8.0776682 6.20359799 -10.75 6.125 C-11.54921875 6.10695312 -12.3484375 6.08890625 -13.171875 6.0703125 C-13.77515625 6.04710937 -14.3784375 6.02390625 -15 6 C-15 5.67 -15 5.34 -15 5 C-14.31292969 4.80664062 -13.62585938 4.61328125 -12.91796875 4.4140625 C-12.01691406 4.15367187 -11.11585937 3.89328125 -10.1875 3.625 C-9.29417969 3.36976563 -8.40085937 3.11453125 -7.48046875 2.8515625 C-4.71284429 1.90141741 -2.93719844 0 0 0 Z " fill="#427F8B" transform="translate(31,186)"/>
<path d="M0 0 C-4.47718792 2.98479194 -8.63824093 4 -14 4 C-14 3.34 -14 2.68 -14 2 C-9.126739 0.4087311 -5.19209404 -0.21192221 0 0 Z " fill="#2FA6C0" transform="translate(69,72)"/>
<path d="M0 0 C4.29 0 8.58 0 13 0 C13.33 1.32 13.66 2.64 14 4 C9.38 3.01 4.76 2.02 0 1 C0 0.67 0 0.34 0 0 Z " fill="#696C65" transform="translate(99,133)"/>
<path d="M0 0 C0.33 0.66 0.66 1.32 1 2 C-1.375 3.5625 -1.375 3.5625 -4 5 C-4.66 4.67 -5.32 4.34 -6 4 C-4.02 2.68 -2.04 1.36 0 0 Z M-9 5 C-8.01 5.33 -7.02 5.66 -6 6 C-8.97 8.475 -8.97 8.475 -12 11 C-11.42655063 8.13275314 -11.1385485 7.1385485 -9 5 Z " fill="#25A6A0" transform="translate(34,86)"/>
<path d="M0 0 C0.66 0.33 1.32 0.66 2 1 C1.67 2.03125 1.34 3.0625 1 4.125 C0.0284808 7.48426709 -0.17116771 10.49106202 0 14 C-0.99 14.495 -0.99 14.495 -2 15 C-2.3690205 4.44191344 -2.3690205 4.44191344 0 0 Z " fill="#507F87" transform="translate(5,165)"/>
<path d="M0 0 C1 3 1 3 -0.3125 5.6875 C-0.869375 6.450625 -1.42625 7.21375 -2 8 C-2.66 8 -3.32 8 -4 8 C-4.12375 8.639375 -4.2475 9.27875 -4.375 9.9375 C-4.58125 10.618125 -4.7875 11.29875 -5 12 C-5.99 12.495 -5.99 12.495 -7 13 C-6.36610765 9.50155614 -4.94822306 7.15913124 -2.9375 4.25 C-2.38964844 3.45078125 -1.84179688 2.6515625 -1.27734375 1.828125 C-0.85582031 1.22484375 -0.43429688 0.6215625 0 0 Z " fill="#4C8794" transform="translate(13,152)"/>
<path d="M0 0 C0.48210938 0.42152344 0.96421875 0.84304687 1.4609375 1.27734375 C2.09257813 1.82519531 2.72421875 2.37304688 3.375 2.9375 C4.00148438 3.48277344 4.62796875 4.02804688 5.2734375 4.58984375 C6.95632334 6.06958624 6.95632334 6.06958624 9 7 C9 7.66 9 8.32 9 9 C4.74822077 8.52758009 2.70030797 6.15035929 0 3 C0 2.01 0 1.02 0 0 Z " fill="#4B858B" transform="translate(5,183)"/>
<path d="M0 0 C3.3 0 6.6 0 10 0 C10 0.99 10 1.98 10 3 C5.06071112 3.3367697 4.21507278 3.16130459 0 0 Z " fill="#5ED0A7" transform="translate(236,159)"/>
<path d="M0 0 C0.33 0.99 0.66 1.98 1 3 C-1.8125 5.0625 -1.8125 5.0625 -5 7 C-5.99 6.67 -6.98 6.34 -8 6 C-7.0479279 4.99403703 -6.08812654 3.99538437 -5.125 3 C-4.59132813 2.443125 -4.05765625 1.88625 -3.5078125 1.3125 C-2 0 -2 0 0 0 Z " fill="#3E9AAD" transform="translate(33,84)"/>
<path d="M0 0 C0 3 0 3 -1 6 C-3.06640625 6.73046875 -3.06640625 6.73046875 -5.5625 7.1875 C-6.38878906 7.34605469 -7.21507813 7.50460938 -8.06640625 7.66796875 C-9.02353516 7.83232422 -9.02353516 7.83232422 -10 8 C-9.195625 7.4121875 -9.195625 7.4121875 -8.375 6.8125 C-5.50791468 4.6244612 -2.76035432 2.32120704 0 0 Z " fill="#48BA94" transform="translate(121,175)"/>
<path d="M0 0 C0.33 0.66 0.66 1.32 1 2 C-1.33333333 4.33333333 -3.66666667 6.66666667 -6 9 C-5.69381595 5.32579134 -5.24228216 4.21864487 -2.4375 1.6875 C-1.633125 1.130625 -0.82875 0.57375 0 0 Z " fill="#F0AB40" transform="translate(85,187)"/>
<path d="M0 0 C0.99 0.33 1.98 0.66 3 1 C3.33 2.98 3.66 4.96 4 7 C2.68 6.67 1.36 6.34 0 6 C0 5.34 0 4.68 0 4 C0.66 4 1.32 4 2 4 C2 3.34 2 2.68 2 2 C1.01 1.67 0.02 1.34 -1 1 C-0.67 0.67 -0.34 0.34 0 0 Z " fill="#64CE9E" transform="translate(187,45)"/>
<path d="M0 0 C0.33 0.99 0.66 1.98 1 3 C-0.28965176 4.37562854 -1.62689293 5.70766393 -3 7 C-3.66 7 -4.32 7 -5 7 C-3.70700306 4.11562221 -2.34058637 2.12780579 0 0 Z " fill="#3898A7" transform="translate(61,144)"/>
</svg>
