<?xml version="1.0" encoding="UTF-8"?>
<svg version="1.1" xmlns="http://www.w3.org/2000/svg" width="900" height="900">
<path d="M0 0 C297 0 594 0 900 0 C900 297 900 594 900 900 C603 900 306 900 0 900 C0 603 0 306 0 0 Z " fill="#212121" transform="translate(0,0)"/>
<path d="M0 0 C1.1449292 0.26530518 2.2898584 0.53061035 3.46948242 0.80395508 C5.61622725 1.30527028 7.76008269 1.81926094 9.8996582 2.3503418 C29.12339982 6.85578752 49.28893492 6.83975462 68.93408203 7.43530273 C113.4425842 8.82281475 113.4425842 8.82281475 127.1640625 22.40625 C134.99779648 32.13616897 135.77627237 44.01123886 134.6015625 56.03125 C131.92939676 76.55789562 121.38525093 97.539322 105.35546875 110.80859375 C98.04756508 116.13645935 91.08448947 119.22623949 82.1640625 120.40625 C80.9280127 120.57044434 79.69196289 120.73463867 78.41845703 120.90380859 C66.79654834 122.35721675 55.3076112 122.80523671 43.6015625 122.78125 C42.68773804 122.78137085 41.77391357 122.7814917 40.83239746 122.78161621 C25.95265421 122.75370412 11.70450693 121.81589883 -2.8359375 118.40625 C-3.53412598 118.24608398 -4.23231445 118.08591797 -4.95166016 117.92089844 C-8.9944921 116.95992249 -12.90924497 115.76077014 -16.8359375 114.40625 C-17.78339844 114.08551514 -17.78339844 114.08551514 -18.75 113.75830078 C-40.62601331 106.27801341 -62.00512844 94.34561106 -73.046875 73.20703125 C-81.48772307 55.93596406 -84.80632269 34.50186788 -79.0859375 15.96875 C-75.82278684 7.25531902 -71.39881561 -0.15796923 -62.92578125 -4.59375 C-43.61784841 -12.57794489 -19.2227853 -4.51398549 0 0 Z " fill="#FD4D43" transform="translate(401.8359375,194.59375)"/>
<path d="M0 0 C8.46383379 12.43125589 8.75974471 28.40023349 6.3515625 42.8203125 C1.16828813 60.85101908 -8.99417455 73.13048011 -24.8828125 82.66796875 C-53.39819218 97.780343 -91.5233456 98.9449048 -122.1328125 89.8046875 C-138.28823896 83.92644799 -151.82247975 74.4485385 -159.546875 58.8046875 C-160.797478 55.86944869 -161.95970361 52.9535531 -163 49.9375 C-163.36609375 48.88304687 -163.7321875 47.82859375 -164.109375 46.7421875 C-167.4977412 32.26732486 -165.83866595 16.21354882 -158.5625 3.25 C-155.7263116 -0.86593195 -153.03375169 -1.67861844 -148.21655273 -2.58789062 C-138.28389062 -4.05347659 -128.32827724 -2.77125889 -118.4375 -1.5625 C-95.26237974 0.98704601 -73.18189376 0.15267283 -50.1875 -3.08984375 C-12.23681468 -8.4128101 -12.23681468 -8.4128101 0 0 Z " fill="#FE4E44" transform="translate(504,377.0625)"/>
<path d="M0 0 C0 0.66 0 1.32 0 2 C0.66 2 1.32 2 2 2 C10.22456065 13.17990417 13.09030572 25.26214792 12 39 C9.35422168 52.03763053 1.81869693 60.66870538 -9 68 C-29.94971096 80.42633541 -57.18858867 84.61751687 -81 80 C-94.9122209 76.33796704 -104.93302114 69.15093494 -112.25 56.8125 C-117.44254592 46.74673584 -120.26409442 33.93316164 -117.42578125 22.734375 C-115.79763344 18.6338546 -113.76435661 15.89352913 -109.83691406 13.90454102 C-101.93544036 10.94486443 -94.10303039 9.84215665 -85.75 8.9375 C-71.71366222 7.34782574 -58.14225851 4.86301717 -44.4375 1.4375 C-14.21718866 -5.89750048 -14.21718866 -5.89750048 0 0 Z " fill="#FE4E44" transform="translate(516,522)"/>
<path d="M0 0 C4.89934621 4.4539511 6.98857712 9.48393049 8 16 C8.32635878 26.75678549 5.53154541 35.50899097 -1 44 C-1.66 44 -2.32 44 -3 44 C-3 44.66 -3 45.32 -3 46 C-17.88274647 58.51790328 -38.39470956 60.09982012 -57 59 C-61.1870776 58.3916212 -65.02092628 57.42460664 -69 56 C-69.7940625 55.7215625 -70.588125 55.443125 -71.40625 55.15625 C-81.39066816 51.18983731 -88.59264786 44.84261707 -93 35 C-96.21063286 26.3089462 -97.21131134 17.47747331 -94.171875 8.57421875 C-92.44227003 4.81987781 -90.71842613 2.03913691 -87 0 C-79.30366981 -2.5654434 -70.15096757 -1.11515158 -62.25 0 C-49.08939568 1.81481506 -36.64263461 1.34559302 -23.57006836 -0.92138672 C-15.54170592 -2.30602119 -7.69465533 -3.31926308 0 0 Z " fill="#FE4E44" transform="translate(527,665)"/>
</svg>
