<?xml version="1.0" encoding="UTF-8"?>
<svg version="1.1" xmlns="http://www.w3.org/2000/svg" width="512" height="512">
<path d="M0 0 C4.06078384 2.35763457 7.15200738 4.53654385 8.8203125 9.05078125 C8.78744141 10.13939453 8.78744141 10.13939453 8.75390625 11.25 C8.5155876 21.87901187 15.97240171 28.67644695 22.8203125 36.05078125 C23.54951904 36.90772583 23.54951904 36.90772583 24.29345703 37.78198242 C25.94478073 39.45557856 25.94478073 39.45557856 29.3515625 38.7578125 C30.05667969 38.64002441 30.76179687 38.52223633 31.48828125 38.40087891 C35.74600058 37.76168612 40.02218147 37.78453087 44.3203125 37.73828125 C45.21878906 37.70927734 46.11726562 37.68027344 47.04296875 37.65039062 C53.80525223 37.58640978 59.30697559 38.79032104 64.38061523 43.4987793 C66.74371016 46.16181678 68.50543004 48.48211341 68.8203125 52.05078125 C68.9440625 53.16453125 69.0678125 54.27828125 69.1953125 55.42578125 C69.06846951 65.12020954 63.8405796 74.97562822 58.8203125 83.05078125 C59.42617188 83.76621094 60.03203125 84.48164062 60.65625 85.21875 C65.32919686 90.77596219 69.93065371 96.37706566 74.3828125 102.11328125 C74.81190918 102.66072998 75.24100586 103.20817871 75.68310547 103.7722168 C77.55423963 106.20317305 78.84136665 108.11394371 79.8203125 111.05078125 C80.55967041 111.0350708 81.29902832 111.01936035 82.06079102 111.00317383 C123.41948133 110.24066822 123.41948133 110.24066822 138.1953125 123.67578125 C147.31838377 133.54164955 149.27609237 144.46330232 149.12109375 157.3359375 C148.90699098 162.76536411 147.59232112 167.35100808 145.6953125 172.44921875 C144.60778696 175.22520385 144.60778696 175.22520385 144.8203125 179.05078125 C145.40024963 179.24678925 145.98018677 179.44279724 146.57769775 179.64474487 C152.61335975 181.68531717 158.64764724 183.72991475 164.68115234 185.77685547 C166.93308065 186.54025949 169.18535743 187.30263637 171.43798828 188.06396484 C174.67572715 189.15843188 177.91219499 190.25658622 181.1484375 191.35546875 C182.15585999 191.69512665 183.16328247 192.03478455 184.20123291 192.38473511 C185.14190613 192.70491608 186.08257935 193.02509705 187.05175781 193.35498047 C187.87782532 193.63477753 188.70389282 193.91457458 189.55499268 194.20285034 C193.93337755 195.84172174 193.93337755 195.84172174 195.8203125 197.05078125 C196.5703125 200.67578125 196.5703125 200.67578125 196.8203125 204.05078125 C195.3828125 205.67578125 195.3828125 205.67578125 192.8203125 207.05078125 C186.70195399 206.39485924 180.66665487 204.15388817 174.84765625 202.23046875 C174.03913712 201.96694611 173.23061798 201.70342346 172.39759827 201.43191528 C169.84969396 200.60047975 167.30374189 199.76324215 164.7578125 198.92578125 C163.01640255 198.35638378 161.27486714 197.78736987 159.53320312 197.21875 C155.29411139 195.83385144 151.05675857 194.44375091 146.8203125 193.05078125 C146.4903125 193.38078125 146.1603125 193.71078125 145.8203125 194.05078125 C146.45195312 194.85257813 147.08359375 195.654375 147.734375 196.48046875 C154.84840642 205.51870977 161.9173131 214.5914663 168.97363281 223.67480469 C170.88738187 226.13707409 172.80283729 228.5980076 174.71875 231.05859375 C175.67044067 232.2811084 175.67044067 232.2811084 176.64135742 233.52832031 C177.85742414 235.09035761 179.07372126 236.65221556 180.2902832 238.21386719 C180.84031006 238.9205957 181.39033691 239.62732422 181.95703125 240.35546875 C182.43873779 240.97405762 182.92044434 241.59264648 183.41674805 242.22998047 C183.87992432 242.83084473 184.34310059 243.43170898 184.8203125 244.05078125 C185.38081299 244.70965332 185.94131348 245.36852539 186.51879883 246.04736328 C188.52060092 249.12873412 187.55158245 251.59386876 186.8203125 255.05078125 C183.96030664 256.14610264 182.76338554 256.5893473 179.8203125 256.05078125 C176.26296971 253.20090251 173.61018841 249.63394455 170.8203125 246.05078125 C169.94335635 244.94089393 169.0657348 243.83153208 168.1875 242.72265625 C166.80364041 240.96844356 165.4243073 239.21121451 164.05444336 237.44604492 C160.40755352 232.75011068 156.61167277 228.20248789 152.75024414 223.68237305 C148.66285289 218.89074281 144.72553553 213.99101885 140.8203125 209.05078125 C139.48783609 207.3834294 138.15471852 205.7165892 136.8203125 204.05078125 C129.74417491 234.13549203 135.55005882 257.74696829 149.8203125 284.86328125 C150.66734741 286.4860498 150.66734741 286.4860498 151.53149414 288.14160156 C155.28802673 295.28708364 159.22559782 302.30831586 163.2578125 309.30078125 C174.68960932 329.2794228 184.92970821 349.70777199 190.8203125 372.05078125 C191.00126465 372.73108398 191.1822168 373.41138672 191.36865234 374.11230469 C194.30275165 385.37947773 195.02428628 396.06566641 195.0703125 407.67578125 C195.10125 409.59197266 195.10125 409.59197266 195.1328125 411.546875 C195.20757526 429.9945861 190.82348519 446.49744992 177.9453125 460.01953125 C170.2630005 467.33011847 162.49851185 469.17560912 152.19470215 470.06173706 C151.26835512 470.14543104 150.34200809 470.22912502 149.38758993 470.31535518 C139.93789254 471.15662403 130.47942046 471.87442544 121.01757812 472.56298828 C119.14395841 472.70103149 117.27035247 472.83926168 115.39675903 472.97766113 C110.3809225 473.34752685 105.36487707 473.71447659 100.34876442 474.08057642 C97.20418677 474.31022787 94.05965841 474.5405427 90.91514587 474.77108383 C79.91658296 475.57743898 68.91784953 476.38141955 57.91894531 477.18310547 C47.70684102 477.92750619 37.49513214 478.67716967 27.28359079 479.42924988 C18.47054407 480.07809833 9.65723428 480.72328664 0.84371328 481.36566055 C-4.40083865 481.74797034 -9.64527542 482.13171525 -14.88945007 482.51916885 C-19.81412452 482.88289061 -24.73911293 483.24202602 -29.66437149 483.5977478 C-31.46188823 483.72833237 -33.25929085 483.8604998 -35.05656052 483.99444199 C-70.9361965 486.66462596 -70.9361965 486.66462596 -81.1796875 478.05078125 C-89.65354481 470.17420023 -92.79965521 460.47602748 -93.3828125 449.08203125 C-93.60490165 436.00635137 -93.34858392 421.5574705 -89.1796875 409.05078125 C-89.8396875 409.38078125 -90.4996875 409.71078125 -91.1796875 410.05078125 C-92.60610675 410.23953906 -94.03949085 410.37713447 -95.47412109 410.48730469 C-96.3619931 410.55697449 -97.24986511 410.62664429 -98.16464233 410.69842529 C-99.12609161 410.76829651 -100.08754089 410.83816772 -101.078125 410.91015625 C-102.06463043 410.98244446 -103.05113586 411.05473267 -104.0675354 411.12921143 C-106.15714418 411.27963865 -108.24694541 411.42741221 -110.33691406 411.57275391 C-113.53577663 411.79944113 -116.73248401 412.04801745 -119.9296875 412.296875 C-121.95823734 412.44016761 -123.98688106 412.58213844 -126.015625 412.72265625 C-126.97302582 412.80062439 -127.93042664 412.87859253 -128.9168396 412.95892334 C-129.81101593 413.0159845 -130.70519226 413.07304565 -131.62646484 413.13183594 C-132.41097015 413.18877625 -133.19547546 413.24571655 -134.00375366 413.30438232 C-136.85198468 412.97242625 -138.12386204 412.01779279 -140.1796875 410.05078125 C-140.98989869 407.46294252 -141.52313185 405.2042024 -141.9296875 402.55078125 C-142.05037598 401.80465576 -142.17106445 401.05853027 -142.29541016 400.28979492 C-144.93127978 382.32897185 -144.16364918 363.75540072 -134.1796875 348.05078125 C-126.19427036 337.43363529 -116.96797643 330.66847841 -103.69319153 328.67793274 C-101.18140567 328.44406972 -98.67506194 328.27525593 -96.15625 328.13671875 C-95.24765228 328.07674713 -94.33905457 328.01677551 -93.40292358 327.95498657 C-90.53741737 327.76763592 -87.67126298 327.59591016 -84.8046875 327.42578125 C-81.91695021 327.24568891 -79.02947154 327.06227591 -76.1421814 326.87515259 C-74.35506357 326.76023213 -72.56764829 326.64982389 -70.77993774 326.54452515 C-69.56749893 326.46906967 -69.56749893 326.46906967 -68.33056641 326.39208984 C-67.26994492 326.32905167 -67.26994492 326.32905167 -66.18789673 326.26473999 C-64.11255569 326.04362889 -62.18992784 325.60361056 -60.1796875 325.05078125 C-60.70755859 324.09377319 -60.70755859 324.09377319 -61.24609375 323.11743164 C-88.59721841 273.40961909 -88.59721841 273.40961909 -88.5546875 246.11328125 C-88.55227051 244.47891113 -88.55227051 244.47891113 -88.54980469 242.81152344 C-88.38682015 231.89795096 -86.67261012 221.54617284 -83.2277832 211.1887207 C-80.57960018 203.16120309 -79.17011268 195.28800397 -78.14105225 186.93771362 C-76.52853755 173.98746328 -74.39048723 161.22647874 -71.5546875 148.48828125 C-71.40857025 147.82645844 -71.262453 147.16463562 -71.11190796 146.48275757 C-69.42886121 138.90792146 -67.5450856 131.44238177 -65.1796875 124.05078125 C-65.96472656 123.85742188 -66.74976563 123.6640625 -67.55859375 123.46484375 C-68.60917969 123.20445312 -69.65976563 122.9440625 -70.7421875 122.67578125 C-71.84175781 122.40894531 -72.94132812 122.14210938 -74.07421875 121.8671875 C-76.46576604 121.23846626 -78.63703776 120.50575796 -80.9296875 119.61328125 C-84.54812386 118.98701342 -84.98090078 119.25215173 -87.9921875 120.98828125 C-92.09074868 123.31556502 -95.1465536 123.48899618 -99.77734375 122.796875 C-104.46883047 121.33984417 -107.79978269 118.30123004 -110.34375 114.15234375 C-112.12052583 109.68549609 -111.96638392 104.5427717 -110.52734375 99.984375 C-108.62126674 96.19676273 -106.03796144 93.59852056 -102.23828125 91.7109375 C-96.79401863 89.96505442 -91.89118428 90.19503286 -86.8046875 92.73828125 C-84.21773925 95.01725947 -82.1262694 97.20577693 -80.1796875 100.05078125 C-80.1796875 100.71078125 -80.1796875 101.37078125 -80.1796875 102.05078125 C-79.58542969 102.2209375 -78.99117188 102.39109375 -78.37890625 102.56640625 C-71.87544632 104.46788443 -65.52409482 106.67464391 -59.1796875 109.05078125 C-58.90125 107.87515625 -58.90125 107.87515625 -58.6171875 106.67578125 C-56.08586628 100.29244947 -52.09740309 93.77150063 -46.1796875 90.05078125 C-43.2421875 89.55078125 -43.2421875 89.55078125 -40.1796875 90.05078125 C-36.09702697 93.20556438 -34.20510577 96.01690973 -33.1796875 101.05078125 C-32.85345996 106.80268781 -32.95792035 112.40010819 -34.1796875 118.05078125 C-32.42983396 118.53048248 -30.67979859 119.00952049 -28.9296875 119.48828125 C-27.95515625 119.75511719 -26.980625 120.02195312 -25.9765625 120.296875 C-23.71596097 120.90622709 -21.45346741 121.4931638 -19.1796875 122.05078125 C-18.81617188 121.12136719 -18.45265625 120.19195312 -18.078125 119.234375 C-12.28027267 104.80308206 -12.28027267 104.80308206 -7.1796875 101.05078125 C-3.6796875 99.80078125 -3.6796875 99.80078125 -0.1796875 100.05078125 C2.84261509 101.79233229 5.23748358 103.8851234 6.8203125 107.05078125 C6.91960196 109.956458 6.95918022 112.83299347 6.9453125 115.73828125 C6.94917969 116.52912109 6.95304688 117.31996094 6.95703125 118.13476562 C6.94919819 122.87768068 6.60925626 127.37347182 5.8203125 132.05078125 C6.38878906 132.16035156 6.95726562 132.26992187 7.54296875 132.3828125 C12.64348008 133.43016291 17.1047545 134.84349878 21.8203125 137.05078125 C22.0265625 136.06078125 22.2328125 135.07078125 22.4453125 134.05078125 C24.07825699 128.27086264 28.26820255 122.92417043 32.8203125 119.05078125 C36.85075677 118.52831625 39.04573896 118.5930787 42.5703125 120.67578125 C48.01757131 126.42566555 48.13035967 131.38240884 48.0234375 139.02734375 C47.85526649 141.53050451 47.54298905 143.66128621 46.8203125 146.05078125 C47.59117187 146.25574219 48.36203125 146.46070313 49.15625 146.671875 C50.15914062 146.94128906 51.16203125 147.21070313 52.1953125 147.48828125 C53.19304687 147.75511719 54.19078125 148.02195313 55.21875 148.296875 C57.8203125 149.05078125 57.8203125 149.05078125 59.8203125 150.05078125 C60.160625 148.75140625 60.160625 148.75140625 60.5078125 147.42578125 C62.1810455 143.12318211 64.54355729 139.18915886 68.8203125 137.05078125 C73.27848459 136.53637678 75.2664594 136.68864653 79.0703125 139.17578125 C82.67215459 142.94134343 84.86274219 145.49085639 84.7734375 150.87890625 C84.53445715 153.62015142 84.22227582 156.32905371 83.8203125 159.05078125 C85.0578125 159.29828125 86.2953125 159.54578125 87.5703125 159.80078125 C93.46858108 161.09896477 99.12376013 163.06518093 104.8203125 165.05078125 C100.77613331 159.47637209 96.46172933 154.21127167 91.99536133 148.97631836 C89.17555894 145.66624021 86.40415265 142.32808448 83.6953125 138.92578125 C82.72851562 137.74822266 82.72851562 137.74822266 81.7421875 136.546875 C79.8203125 134.05078125 79.8203125 134.05078125 77.9609375 131.0234375 C74.43874907 125.51598627 74.43874907 125.51598627 68.83984375 122.54003906 C64.9654428 122.07888249 61.11897996 122.10805203 57.22265625 122.1328125 C50.37210994 122.1518703 43.78239924 120.23145227 38.6953125 115.48828125 C35.08676015 110.79716319 35.19413108 105.74408861 35.8203125 100.05078125 C36.66082946 97.62474365 37.65797115 95.4290176 38.84765625 93.15625 C40.4286921 89.75718842 40.4286921 89.75718842 40.8203125 86.05078125 C39.27305672 83.33894172 37.25012489 81.07783971 35.1953125 78.73828125 C33.98665839 77.32821235 32.77967595 75.91670914 31.57421875 74.50390625 C30.95047363 73.77751953 30.32672852 73.05113281 29.68408203 72.30273438 C27.83064619 70.06326722 26.1124931 67.76594038 24.41015625 65.41015625 C23.8598877 64.66934814 23.30961914 63.92854004 22.74267578 63.1652832 C21.69050267 61.74244007 20.66273642 60.30113282 19.66357422 58.84057617 C18.14388102 56.83830142 16.89467017 55.47094489 14.8203125 54.05078125 C12.59713567 53.85644508 12.59713567 53.85644508 10.21630859 54.26000977 C9.32976089 54.37764175 8.4432132 54.49527374 7.52980042 54.61647034 C3.37417613 55.28258624 -0.75395239 56.02806217 -4.87890625 56.86328125 C-5.7581929 57.03706299 -6.63747955 57.21084473 -7.54341125 57.38989258 C-10.31890117 57.9391118 -13.09309321 58.49455975 -15.8671875 59.05078125 C-18.65218064 59.60599354 -21.43743525 60.15983074 -24.22309875 60.71166992 C-25.9465049 61.05339845 -27.66950394 61.39718899 -29.39201355 61.7434082 C-37.86070308 63.42912661 -45.98517387 64.25637218 -54.6171875 64.30078125 C-55.61556641 64.32140625 -56.61394531 64.34203125 -57.64257812 64.36328125 C-65.24613962 64.40327368 -71.07983201 63.62300176 -77.1171875 58.61328125 C-80.08701948 54.92349001 -80.08701948 54.92349001 -80.1796875 52.05078125 C-79.5546875 49.86328125 -79.5546875 49.86328125 -78.1796875 48.05078125 C-75.9296875 46.98828125 -75.9296875 46.98828125 -73.1796875 47.05078125 C-71.13848962 48.66672957 -69.13895813 50.33641945 -67.1796875 52.05078125 C-58.89962014 55.04080557 -48.29841705 52.7197291 -39.8671875 51.42578125 C-38.71742432 51.25336914 -37.56766113 51.08095703 -36.38305664 50.90332031 C-23.70176578 48.93225025 -11.17458659 46.28021848 1.35961914 43.53808594 C3.8203125 43.05078125 3.8203125 43.05078125 5.8203125 43.05078125 C1.10113551 35.79200901 1.10113551 35.79200901 -5.79296875 31.015625 C-7.48327273 30.75143485 -9.18090128 30.52988822 -10.8828125 30.35546875 C-14.39962761 29.88895246 -16.52324238 28.3184783 -19.1796875 26.05078125 C-23.07430991 20.62446082 -23.07971059 15.52237587 -22.1796875 9.05078125 C-20.41921862 4.58310246 -17.97159522 2.51397256 -13.8671875 0.11328125 C-8.85102243 -1.33205445 -4.82971392 -2.10326251 0 0 Z M32.8203125 49.05078125 C34.58233455 53.20708031 37.39817773 56.49554323 40.1953125 59.98828125 C40.67742187 60.59607422 41.15953125 61.20386719 41.65625 61.83007812 C43.04040636 63.57343811 44.42935213 65.3128473 45.8203125 67.05078125 C46.98433594 68.50677734 46.98433594 68.50677734 48.171875 69.9921875 C48.71585938 70.67152344 49.25984375 71.35085937 49.8203125 72.05078125 C52.96342744 71.3602351 52.96342744 71.3602351 54.20703125 68.79296875 C57.75913369 61.23955137 57.75913369 61.23955137 57.8203125 53.05078125 C56.6416462 50.45165874 56.6416462 50.45165874 53.8203125 49.05078125 C46.80497199 47.57813952 39.86579429 48.0573836 32.8203125 49.05078125 Z M48.8203125 97.05078125 C46.49440396 100.68501334 46.65765417 103.82166456 46.8203125 108.05078125 C51.9671317 111.2180546 55.9785685 111.40128589 61.8203125 111.05078125 C56.54389842 103.87058299 56.54389842 103.87058299 50.8203125 97.05078125 C50.1603125 97.05078125 49.5003125 97.05078125 48.8203125 97.05078125 Z M-45.1796875 104.05078125 C-45.8396875 105.16453125 -46.4996875 106.27828125 -47.1796875 107.42578125 C-47.5509375 108.05226563 -47.9221875 108.67875 -48.3046875 109.32421875 C-49.33037098 111.02550792 -49.33037098 111.02550792 -49.1796875 113.05078125 C-46.7046875 113.54578125 -46.7046875 113.54578125 -44.1796875 114.05078125 C-44.1796875 110.75078125 -44.1796875 107.45078125 -44.1796875 104.05078125 C-44.5096875 104.05078125 -44.8396875 104.05078125 -45.1796875 104.05078125 Z M-4.1796875 114.05078125 C-5.8296875 118.34078125 -7.4796875 122.63078125 -9.1796875 127.05078125 C-7.8596875 127.38078125 -6.5396875 127.71078125 -5.1796875 128.05078125 C-3.45039913 121.13919087 -3.45039913 121.13919087 -3.1796875 114.05078125 C-3.5096875 114.05078125 -3.8396875 114.05078125 -4.1796875 114.05078125 Z M89.8203125 122.05078125 C91.17150095 124.9493438 92.71729891 127.3742185 94.69140625 129.88671875 C95.54436279 130.97750732 95.54436279 130.97750732 96.41455078 132.09033203 C97.02282715 132.86103027 97.63110352 133.63172852 98.2578125 134.42578125 C98.88671387 135.22870605 99.51561523 136.03163086 100.16357422 136.85888672 C103.02365149 140.50775083 105.89561584 144.14718777 108.76953125 147.78515625 C109.21748047 148.35290771 109.66542969 148.92065918 110.12695312 149.50561523 C111.00314387 150.61561911 111.88074069 151.72451459 112.75976562 152.83227539 C115.24987778 155.98767415 117.66398179 159.18584723 120.02734375 162.4375 C120.56601074 163.17403809 121.10467773 163.91057617 121.65966797 164.66943359 C122.70313118 166.10184429 123.73775577 167.54074742 124.76220703 168.98681641 C125.46966064 169.95627197 125.46966064 169.95627197 126.19140625 170.9453125 C126.60318115 171.52128174 127.01495605 172.09725098 127.43920898 172.69067383 C129.14040607 174.36600863 130.49670842 174.66356541 132.8203125 175.05078125 C133.63787488 172.9902827 134.44915984 170.92729272 135.2578125 168.86328125 C135.71027344 167.71472656 136.16273438 166.56617188 136.62890625 165.3828125 C139.85399122 156.36314863 139.67446728 147.83119724 135.8203125 139.05078125 C130.36256254 130.24395745 123.76223982 125.65225223 113.8203125 123.05078125 C108.66545216 121.94510106 103.68787505 121.93393252 98.4453125 121.98828125 C97.19814453 121.99504883 97.19814453 121.99504883 95.92578125 122.00195312 C93.89059353 122.01364961 91.85544327 122.0315819 89.8203125 122.05078125 Z M-55.1796875 128.05078125 C-63.80489589 159.10290125 -63.80489589 159.10290125 -67.1796875 191.05078125 C-65.3149016 188.2536024 -64.35493084 186.02643809 -63.26171875 182.87890625 C-62.89763916 181.83275146 -62.53355957 180.78659668 -62.15844727 179.70874023 C-61.77358154 178.58411377 -61.38871582 177.4594873 -60.9921875 176.30078125 C-60.59507568 175.14586182 -60.19796387 173.99094238 -59.78881836 172.80102539 C-57.15222532 165.06663175 -54.63107146 157.30268944 -52.2421875 149.48828125 C-51.96028564 148.56885742 -51.67838379 147.64943359 -51.38793945 146.70214844 C-49.73156645 141.19137671 -48.36316816 135.68231967 -47.1796875 130.05078125 C-50.08569011 128.79413147 -51.97573334 128.05078125 -55.1796875 128.05078125 Z M35.8203125 131.05078125 C34.5003125 134.35078125 33.1803125 137.65078125 31.8203125 141.05078125 C34.2953125 141.54578125 34.2953125 141.54578125 36.8203125 142.05078125 C37.66129906 138.03273434 37.87436195 135.03274582 36.8203125 131.05078125 C36.4903125 131.05078125 36.1603125 131.05078125 35.8203125 131.05078125 Z M-37.1796875 133.05078125 C-37.43548584 133.94458496 -37.69128418 134.83838867 -37.95483398 135.75927734 C-42.7454857 152.43531291 -47.63967078 169.0111003 -53.48608398 185.35302734 C-54.01890991 186.84310303 -54.01890991 186.84310303 -54.5625 188.36328125 C-54.87590332 189.22566406 -55.18930664 190.08804688 -55.51220703 190.9765625 C-56.28179694 193.0049281 -56.28179694 193.0049281 -56.1796875 195.05078125 C-54.59646556 195.07883046 -53.0130805 195.09762623 -51.4296875 195.11328125 C-50.54796875 195.12488281 -49.66625 195.13648438 -48.7578125 195.1484375 C-43.54672317 195.00621345 -38.37041193 194.51811505 -33.1796875 194.05078125 C-33.01887695 193.0649707 -32.85806641 192.07916016 -32.69238281 191.06347656 C-26.79515298 154.9796667 -26.79515298 154.9796667 -23.1796875 138.05078125 C-24.76168381 137.40167971 -26.34534474 136.75663431 -27.9296875 136.11328125 C-28.81140625 135.75363281 -29.693125 135.39398438 -30.6015625 135.0234375 C-32.796218 134.19545383 -34.90460665 133.59417881 -37.1796875 133.05078125 Z M-13.1796875 141.05078125 C-16.31777851 153.34492523 -18.98125878 165.40467522 -20.1796875 178.05078125 C-18.06210014 174.87440021 -17.15138896 172.19137873 -16.015625 168.5546875 C-15.72022324 167.60975685 -15.72022324 167.60975685 -15.41885376 166.64573669 C-15.00467465 165.31592848 -14.59297483 163.98534585 -14.18359375 162.65405273 C-13.55727261 160.62166981 -12.91980485 158.59302087 -12.28125 156.56445312 C-11.87952965 155.26974163 -11.47846596 153.97482618 -11.078125 152.6796875 C-10.53164307 150.91733765 -10.53164307 150.91733765 -9.97412109 149.11938477 C-9.01260215 145.93368755 -9.01260215 145.93368755 -9.1796875 142.05078125 C-10.4996875 141.72078125 -11.8196875 141.39078125 -13.1796875 141.05078125 Z M1.8203125 146.05078125 C-0.34785507 151.69757825 -2.29272379 157.37233863 -4.09765625 163.14453125 C-4.35976395 163.97666138 -4.62187164 164.8087915 -4.891922 165.6661377 C-5.71905617 168.29371405 -6.54317147 170.92222558 -7.3671875 173.55078125 C-7.93144036 175.34511507 -8.49589161 177.13938652 -9.06054688 178.93359375 C-10.435887 183.30527227 -11.8085227 187.67779145 -13.1796875 192.05078125 C-9.38771301 191.91233278 -5.5962016 191.76377381 -1.8046875 191.61328125 C-0.72445312 191.57396484 0.35578125 191.53464844 1.46875 191.49414062 C3.015625 191.43129883 3.015625 191.43129883 4.59375 191.3671875 C5.54685059 191.33052979 6.49995117 191.29387207 7.48193359 191.25610352 C9.84163599 191.1931466 9.84163599 191.1931466 11.8203125 190.05078125 C12.56279994 186.96522459 12.56279994 186.96522459 13.07421875 183.19921875 C13.17999741 182.50696198 13.28577606 181.8147052 13.39476013 181.10147095 C13.73254797 178.87741843 14.05778449 176.65173067 14.3828125 174.42578125 C14.60530353 172.94779356 14.82860126 171.46992706 15.05273438 169.9921875 C16.00543828 163.68270686 16.92155103 157.36814041 17.8203125 151.05078125 C15.52998939 150.21358742 13.23820293 149.38088835 10.9453125 148.55078125 C10.29433594 148.31230469 9.64335937 148.07382813 8.97265625 147.828125 C5.48573661 146.50200592 5.48573661 146.50200592 1.8203125 146.05078125 Z M71.8203125 148.05078125 C71.1603125 150.03078125 70.5003125 152.01078125 69.8203125 154.05078125 C71.1403125 154.38078125 72.4603125 154.71078125 73.8203125 155.05078125 C73.4903125 152.74078125 73.1603125 150.43078125 72.8203125 148.05078125 C72.4903125 148.05078125 72.1603125 148.05078125 71.8203125 148.05078125 Z M27.8203125 154.05078125 C27.11883417 157.46473187 26.43659014 160.88225094 25.7578125 164.30078125 C25.55865234 165.26886719 25.35949219 166.23695313 25.15429688 167.234375 C24.97060547 168.16894531 24.78691406 169.10351562 24.59765625 170.06640625 C24.42484131 170.92524414 24.25202637 171.78408203 24.07397461 172.66894531 C23.81476462 175.10287476 24.06946641 176.73976588 24.8203125 179.05078125 C26.18967178 175.61913926 27.53813713 172.17966244 28.8828125 168.73828125 C29.27275391 167.76181641 29.66269531 166.78535156 30.06445312 165.77929688 C30.42861328 164.84150391 30.79277344 163.90371094 31.16796875 162.9375 C31.50836182 162.07342529 31.84875488 161.20935059 32.19946289 160.3190918 C33.0833981 157.91427549 33.0833981 157.91427549 31.8203125 155.05078125 C29.80522892 154.31754329 29.80522892 154.31754329 27.8203125 154.05078125 Z M42.8203125 159.05078125 C42.34980469 160.41332031 41.87929688 161.77585938 41.39453125 163.1796875 C40.76575746 164.99093141 40.13684379 166.80212676 39.5078125 168.61328125 C39.19908203 169.50853516 38.89035156 170.40378906 38.57226562 171.32617188 C37.19484019 175.28445761 35.80243911 179.18871438 34.08984375 183.015625 C32.62737269 185.96372798 32.62737269 185.96372798 32.8203125 189.05078125 C38.7603125 188.72078125 44.7003125 188.39078125 50.8203125 188.05078125 C52.49773393 182.24675198 52.49773393 182.24675198 53.671875 176.4296875 C53.80078125 175.64013672 53.9296875 174.85058594 54.0625 174.03710938 C54.25199219 172.83731445 54.25199219 172.83731445 54.4453125 171.61328125 C54.579375 170.78634766 54.7134375 169.95941406 54.8515625 169.10742188 C55.17822025 167.0891436 55.49979465 165.07004368 55.8203125 163.05078125 C51.5303125 161.73078125 47.2403125 160.41078125 42.8203125 159.05078125 Z M65.8203125 167.05078125 C65.4696875 168.30890625 65.1190625 169.56703125 64.7578125 170.86328125 C64.56058594 171.57097656 64.36335937 172.27867187 64.16015625 173.0078125 C63.62467433 175.24322284 63.62467433 175.24322284 64.8203125 178.05078125 C65.49150799 176.59452675 66.15713057 175.13570258 66.8203125 173.67578125 C67.1915625 172.86367187 67.5628125 172.0515625 67.9453125 171.21484375 C68.94526263 169.13079692 68.94526263 169.13079692 68.8203125 167.05078125 C67.8303125 167.05078125 66.8403125 167.05078125 65.8203125 167.05078125 Z M78.8203125 171.05078125 C77.81813189 173.36235855 76.81847592 175.67497009 75.8203125 177.98828125 C75.53414062 178.64763672 75.24796875 179.30699219 74.953125 179.98632812 C73.46529252 182.91656622 73.46529252 182.91656622 72.8203125 186.05078125 C77.33707185 185.78687466 81.85365943 185.52023951 86.37011719 185.2512207 C87.90230087 185.16032572 89.43452677 185.07013923 90.96679688 184.98071289 C99.27040679 184.49561296 107.55014082 183.96329522 115.8203125 183.05078125 C112.61175468 180.9117427 109.4823595 179.82645385 105.8515625 178.66796875 C104.83648621 178.33927292 104.83648621 178.33927292 103.80090332 178.00393677 C102.37272614 177.54281545 100.94379122 177.08403526 99.51416016 176.62744141 C97.32620519 175.92766591 95.14153452 175.21828003 92.95703125 174.5078125 C91.56789491 174.06061792 90.17857786 173.61398424 88.7890625 173.16796875 C88.13587036 172.95550507 87.48267822 172.74304138 86.80969238 172.5241394 C84.01581638 171.63779648 81.7734967 171.05078125 78.8203125 171.05078125 Z M-68.1796875 192.05078125 C-67.1796875 194.05078125 -67.1796875 194.05078125 -67.1796875 194.05078125 Z " fill="#FDFEFD" transform="translate(229.1796875,13.94921875)"/>
<path d="M0 0 C4.06078384 2.35763457 7.15200738 4.53654385 8.8203125 9.05078125 C8.78744141 10.13939453 8.78744141 10.13939453 8.75390625 11.25 C8.5155876 21.87901187 15.97240171 28.67644695 22.8203125 36.05078125 C23.54951904 36.90772583 23.54951904 36.90772583 24.29345703 37.78198242 C25.94478073 39.45557856 25.94478073 39.45557856 29.3515625 38.7578125 C30.05667969 38.64002441 30.76179687 38.52223633 31.48828125 38.40087891 C35.74600058 37.76168612 40.02218147 37.78453087 44.3203125 37.73828125 C45.21878906 37.70927734 46.11726562 37.68027344 47.04296875 37.65039062 C53.80525223 37.58640978 59.30697559 38.79032104 64.38061523 43.4987793 C66.74371016 46.16181678 68.50543004 48.48211341 68.8203125 52.05078125 C68.9440625 53.16453125 69.0678125 54.27828125 69.1953125 55.42578125 C69.06846951 65.12020954 63.8405796 74.97562822 58.8203125 83.05078125 C59.42617188 83.76621094 60.03203125 84.48164062 60.65625 85.21875 C65.32919686 90.77596219 69.93065371 96.37706566 74.3828125 102.11328125 C74.81190918 102.66072998 75.24100586 103.20817871 75.68310547 103.7722168 C77.55423963 106.20317305 78.84136665 108.11394371 79.8203125 111.05078125 C80.55967041 111.0350708 81.29902832 111.01936035 82.06079102 111.00317383 C123.41948133 110.24066822 123.41948133 110.24066822 138.1953125 123.67578125 C147.31838377 133.54164955 149.27609237 144.46330232 149.12109375 157.3359375 C148.90699098 162.76536411 147.59232112 167.35100808 145.6953125 172.44921875 C144.60778696 175.22520385 144.60778696 175.22520385 144.8203125 179.05078125 C145.40024963 179.24678925 145.98018677 179.44279724 146.57769775 179.64474487 C152.61335975 181.68531717 158.64764724 183.72991475 164.68115234 185.77685547 C166.93308065 186.54025949 169.18535743 187.30263637 171.43798828 188.06396484 C174.67572715 189.15843188 177.91219499 190.25658622 181.1484375 191.35546875 C182.15585999 191.69512665 183.16328247 192.03478455 184.20123291 192.38473511 C185.14190613 192.70491608 186.08257935 193.02509705 187.05175781 193.35498047 C187.87782532 193.63477753 188.70389282 193.91457458 189.55499268 194.20285034 C193.93337755 195.84172174 193.93337755 195.84172174 195.8203125 197.05078125 C196.5703125 200.67578125 196.5703125 200.67578125 196.8203125 204.05078125 C195.3828125 205.67578125 195.3828125 205.67578125 192.8203125 207.05078125 C186.70195399 206.39485924 180.66665487 204.15388817 174.84765625 202.23046875 C174.03913712 201.96694611 173.23061798 201.70342346 172.39759827 201.43191528 C169.84969396 200.60047975 167.30374189 199.76324215 164.7578125 198.92578125 C163.01640255 198.35638378 161.27486714 197.78736987 159.53320312 197.21875 C155.29411139 195.83385144 151.05675857 194.44375091 146.8203125 193.05078125 C146.4903125 193.38078125 146.1603125 193.71078125 145.8203125 194.05078125 C146.45195312 194.85257813 147.08359375 195.654375 147.734375 196.48046875 C154.84840642 205.51870977 161.9173131 214.5914663 168.97363281 223.67480469 C170.88738187 226.13707409 172.80283729 228.5980076 174.71875 231.05859375 C175.67044067 232.2811084 175.67044067 232.2811084 176.64135742 233.52832031 C177.85742414 235.09035761 179.07372126 236.65221556 180.2902832 238.21386719 C180.84031006 238.9205957 181.39033691 239.62732422 181.95703125 240.35546875 C182.43873779 240.97405762 182.92044434 241.59264648 183.41674805 242.22998047 C183.87992432 242.83084473 184.34310059 243.43170898 184.8203125 244.05078125 C185.38081299 244.70965332 185.94131348 245.36852539 186.51879883 246.04736328 C188.52060092 249.12873412 187.55158245 251.59386876 186.8203125 255.05078125 C183.96030664 256.14610264 182.76338554 256.5893473 179.8203125 256.05078125 C176.26296971 253.20090251 173.61018841 249.63394455 170.8203125 246.05078125 C169.94335635 244.94089393 169.0657348 243.83153208 168.1875 242.72265625 C166.80364041 240.96844356 165.4243073 239.21121451 164.05444336 237.44604492 C160.40755352 232.75011068 156.61167277 228.20248789 152.75024414 223.68237305 C148.66285289 218.89074281 144.72553553 213.99101885 140.8203125 209.05078125 C139.48783609 207.3834294 138.15471852 205.7165892 136.8203125 204.05078125 C129.74417491 234.13549203 135.55005882 257.74696829 149.8203125 284.86328125 C150.66734741 286.4860498 150.66734741 286.4860498 151.53149414 288.14160156 C155.28802673 295.28708364 159.22559782 302.30831586 163.2578125 309.30078125 C174.68960932 329.2794228 184.92970821 349.70777199 190.8203125 372.05078125 C191.00126465 372.73108398 191.1822168 373.41138672 191.36865234 374.11230469 C194.30275165 385.37947773 195.02428628 396.06566641 195.0703125 407.67578125 C195.10125 409.59197266 195.10125 409.59197266 195.1328125 411.546875 C195.20757526 429.9945861 190.82348519 446.49744992 177.9453125 460.01953125 C170.2630005 467.33011847 162.49851185 469.17560912 152.19470215 470.06173706 C151.26835512 470.14543104 150.34200809 470.22912502 149.38758993 470.31535518 C139.93789254 471.15662403 130.47942046 471.87442544 121.01757812 472.56298828 C119.14395841 472.70103149 117.27035247 472.83926168 115.39675903 472.97766113 C110.3809225 473.34752685 105.36487707 473.71447659 100.34876442 474.08057642 C97.20418677 474.31022787 94.05965841 474.5405427 90.91514587 474.77108383 C79.91658296 475.57743898 68.91784953 476.38141955 57.91894531 477.18310547 C47.70684102 477.92750619 37.49513214 478.67716967 27.28359079 479.42924988 C18.47054407 480.07809833 9.65723428 480.72328664 0.84371328 481.36566055 C-4.40083865 481.74797034 -9.64527542 482.13171525 -14.88945007 482.51916885 C-19.81412452 482.88289061 -24.73911293 483.24202602 -29.66437149 483.5977478 C-31.46188823 483.72833237 -33.25929085 483.8604998 -35.05656052 483.99444199 C-70.9361965 486.66462596 -70.9361965 486.66462596 -81.1796875 478.05078125 C-89.65354481 470.17420023 -92.79965521 460.47602748 -93.3828125 449.08203125 C-93.60490165 436.00635137 -93.34858392 421.5574705 -89.1796875 409.05078125 C-89.8396875 409.38078125 -90.4996875 409.71078125 -91.1796875 410.05078125 C-92.60610675 410.23953906 -94.03949085 410.37713447 -95.47412109 410.48730469 C-96.3619931 410.55697449 -97.24986511 410.62664429 -98.16464233 410.69842529 C-99.12609161 410.76829651 -100.08754089 410.83816772 -101.078125 410.91015625 C-102.06463043 410.98244446 -103.05113586 411.05473267 -104.0675354 411.12921143 C-106.15714418 411.27963865 -108.24694541 411.42741221 -110.33691406 411.57275391 C-113.53577663 411.79944113 -116.73248401 412.04801745 -119.9296875 412.296875 C-121.95823734 412.44016761 -123.98688106 412.58213844 -126.015625 412.72265625 C-126.97302582 412.80062439 -127.93042664 412.87859253 -128.9168396 412.95892334 C-129.81101593 413.0159845 -130.70519226 413.07304565 -131.62646484 413.13183594 C-132.41097015 413.18877625 -133.19547546 413.24571655 -134.00375366 413.30438232 C-136.85198468 412.97242625 -138.12386204 412.01779279 -140.1796875 410.05078125 C-140.98989869 407.46294252 -141.52313185 405.2042024 -141.9296875 402.55078125 C-142.05037598 401.80465576 -142.17106445 401.05853027 -142.29541016 400.28979492 C-144.93127978 382.32897185 -144.16364918 363.75540072 -134.1796875 348.05078125 C-126.19427036 337.43363529 -116.96797643 330.66847841 -103.69319153 328.67793274 C-101.18140567 328.44406972 -98.67506194 328.27525593 -96.15625 328.13671875 C-95.24765228 328.07674713 -94.33905457 328.01677551 -93.40292358 327.95498657 C-90.53741737 327.76763592 -87.67126298 327.59591016 -84.8046875 327.42578125 C-81.91695021 327.24568891 -79.02947154 327.06227591 -76.1421814 326.87515259 C-74.35506357 326.76023213 -72.56764829 326.64982389 -70.77993774 326.54452515 C-69.56749893 326.46906967 -69.56749893 326.46906967 -68.33056641 326.39208984 C-67.26994492 326.32905167 -67.26994492 326.32905167 -66.18789673 326.26473999 C-64.11255569 326.04362889 -62.18992784 325.60361056 -60.1796875 325.05078125 C-60.70755859 324.09377319 -60.70755859 324.09377319 -61.24609375 323.11743164 C-88.59721841 273.40961909 -88.59721841 273.40961909 -88.5546875 246.11328125 C-88.55227051 244.47891113 -88.55227051 244.47891113 -88.54980469 242.81152344 C-88.38682015 231.89795096 -86.67261012 221.54617284 -83.2277832 211.1887207 C-80.57960018 203.16120309 -79.17011268 195.28800397 -78.14105225 186.93771362 C-76.52853755 173.98746328 -74.39048723 161.22647874 -71.5546875 148.48828125 C-71.40857025 147.82645844 -71.262453 147.16463562 -71.11190796 146.48275757 C-69.42886121 138.90792146 -67.5450856 131.44238177 -65.1796875 124.05078125 C-65.96472656 123.85742188 -66.74976563 123.6640625 -67.55859375 123.46484375 C-68.60917969 123.20445312 -69.65976563 122.9440625 -70.7421875 122.67578125 C-71.84175781 122.40894531 -72.94132812 122.14210938 -74.07421875 121.8671875 C-76.46576604 121.23846626 -78.63703776 120.50575796 -80.9296875 119.61328125 C-84.54812386 118.98701342 -84.98090078 119.25215173 -87.9921875 120.98828125 C-92.09074868 123.31556502 -95.1465536 123.48899618 -99.77734375 122.796875 C-104.46883047 121.33984417 -107.79978269 118.30123004 -110.34375 114.15234375 C-112.12052583 109.68549609 -111.96638392 104.5427717 -110.52734375 99.984375 C-108.62126674 96.19676273 -106.03796144 93.59852056 -102.23828125 91.7109375 C-96.79401863 89.96505442 -91.89118428 90.19503286 -86.8046875 92.73828125 C-84.21773925 95.01725947 -82.1262694 97.20577693 -80.1796875 100.05078125 C-80.1796875 100.71078125 -80.1796875 101.37078125 -80.1796875 102.05078125 C-79.58542969 102.2209375 -78.99117188 102.39109375 -78.37890625 102.56640625 C-71.87544632 104.46788443 -65.52409482 106.67464391 -59.1796875 109.05078125 C-58.90125 107.87515625 -58.90125 107.87515625 -58.6171875 106.67578125 C-56.08586628 100.29244947 -52.09740309 93.77150063 -46.1796875 90.05078125 C-43.2421875 89.55078125 -43.2421875 89.55078125 -40.1796875 90.05078125 C-36.09702697 93.20556438 -34.20510577 96.01690973 -33.1796875 101.05078125 C-32.85345996 106.80268781 -32.95792035 112.40010819 -34.1796875 118.05078125 C-32.42983396 118.53048248 -30.67979859 119.00952049 -28.9296875 119.48828125 C-27.95515625 119.75511719 -26.980625 120.02195312 -25.9765625 120.296875 C-23.71596097 120.90622709 -21.45346741 121.4931638 -19.1796875 122.05078125 C-18.81617188 121.12136719 -18.45265625 120.19195312 -18.078125 119.234375 C-12.28027267 104.80308206 -12.28027267 104.80308206 -7.1796875 101.05078125 C-3.6796875 99.80078125 -3.6796875 99.80078125 -0.1796875 100.05078125 C2.84261509 101.79233229 5.23748358 103.8851234 6.8203125 107.05078125 C6.91960196 109.956458 6.95918022 112.83299347 6.9453125 115.73828125 C6.94917969 116.52912109 6.95304688 117.31996094 6.95703125 118.13476562 C6.94919819 122.87768068 6.60925626 127.37347182 5.8203125 132.05078125 C6.38878906 132.16035156 6.95726562 132.26992187 7.54296875 132.3828125 C12.64348008 133.43016291 17.1047545 134.84349878 21.8203125 137.05078125 C22.0265625 136.06078125 22.2328125 135.07078125 22.4453125 134.05078125 C24.07825699 128.27086264 28.26820255 122.92417043 32.8203125 119.05078125 C36.85075677 118.52831625 39.04573896 118.5930787 42.5703125 120.67578125 C48.01757131 126.42566555 48.13035967 131.38240884 48.0234375 139.02734375 C47.85526649 141.53050451 47.54298905 143.66128621 46.8203125 146.05078125 C47.59117187 146.25574219 48.36203125 146.46070313 49.15625 146.671875 C50.15914062 146.94128906 51.16203125 147.21070313 52.1953125 147.48828125 C53.19304687 147.75511719 54.19078125 148.02195313 55.21875 148.296875 C57.8203125 149.05078125 57.8203125 149.05078125 59.8203125 150.05078125 C60.160625 148.75140625 60.160625 148.75140625 60.5078125 147.42578125 C62.1810455 143.12318211 64.54355729 139.18915886 68.8203125 137.05078125 C73.27848459 136.53637678 75.2664594 136.68864653 79.0703125 139.17578125 C82.67215459 142.94134343 84.86274219 145.49085639 84.7734375 150.87890625 C84.53445715 153.62015142 84.22227582 156.32905371 83.8203125 159.05078125 C85.0578125 159.29828125 86.2953125 159.54578125 87.5703125 159.80078125 C93.46858108 161.09896477 99.12376013 163.06518093 104.8203125 165.05078125 C100.77613331 159.47637209 96.46172933 154.21127167 91.99536133 148.97631836 C89.17555894 145.66624021 86.40415265 142.32808448 83.6953125 138.92578125 C82.72851562 137.74822266 82.72851562 137.74822266 81.7421875 136.546875 C79.8203125 134.05078125 79.8203125 134.05078125 77.9609375 131.0234375 C74.43874907 125.51598627 74.43874907 125.51598627 68.83984375 122.54003906 C64.9654428 122.07888249 61.11897996 122.10805203 57.22265625 122.1328125 C50.37210994 122.1518703 43.78239924 120.23145227 38.6953125 115.48828125 C35.08676015 110.79716319 35.19413108 105.74408861 35.8203125 100.05078125 C36.66082946 97.62474365 37.65797115 95.4290176 38.84765625 93.15625 C40.4286921 89.75718842 40.4286921 89.75718842 40.8203125 86.05078125 C39.27305672 83.33894172 37.25012489 81.07783971 35.1953125 78.73828125 C33.98665839 77.32821235 32.77967595 75.91670914 31.57421875 74.50390625 C30.95047363 73.77751953 30.32672852 73.05113281 29.68408203 72.30273438 C27.83064619 70.06326722 26.1124931 67.76594038 24.41015625 65.41015625 C23.8598877 64.66934814 23.30961914 63.92854004 22.74267578 63.1652832 C21.69050267 61.74244007 20.66273642 60.30113282 19.66357422 58.84057617 C18.14388102 56.83830142 16.89467017 55.47094489 14.8203125 54.05078125 C12.59713567 53.85644508 12.59713567 53.85644508 10.21630859 54.26000977 C9.32976089 54.37764175 8.4432132 54.49527374 7.52980042 54.61647034 C3.37417613 55.28258624 -0.75395239 56.02806217 -4.87890625 56.86328125 C-5.7581929 57.03706299 -6.63747955 57.21084473 -7.54341125 57.38989258 C-10.31890117 57.9391118 -13.09309321 58.49455975 -15.8671875 59.05078125 C-18.65218064 59.60599354 -21.43743525 60.15983074 -24.22309875 60.71166992 C-25.9465049 61.05339845 -27.66950394 61.39718899 -29.39201355 61.7434082 C-37.86070308 63.42912661 -45.98517387 64.25637218 -54.6171875 64.30078125 C-55.61556641 64.32140625 -56.61394531 64.34203125 -57.64257812 64.36328125 C-65.24613962 64.40327368 -71.07983201 63.62300176 -77.1171875 58.61328125 C-80.08701948 54.92349001 -80.08701948 54.92349001 -80.1796875 52.05078125 C-79.5546875 49.86328125 -79.5546875 49.86328125 -78.1796875 48.05078125 C-75.9296875 46.98828125 -75.9296875 46.98828125 -73.1796875 47.05078125 C-71.13848962 48.66672957 -69.13895813 50.33641945 -67.1796875 52.05078125 C-58.89962014 55.04080557 -48.29841705 52.7197291 -39.8671875 51.42578125 C-38.71742432 51.25336914 -37.56766113 51.08095703 -36.38305664 50.90332031 C-23.70176578 48.93225025 -11.17458659 46.28021848 1.35961914 43.53808594 C3.8203125 43.05078125 3.8203125 43.05078125 5.8203125 43.05078125 C1.10113551 35.79200901 1.10113551 35.79200901 -5.79296875 31.015625 C-7.48327273 30.75143485 -9.18090128 30.52988822 -10.8828125 30.35546875 C-14.39962761 29.88895246 -16.52324238 28.3184783 -19.1796875 26.05078125 C-23.07430991 20.62446082 -23.07971059 15.52237587 -22.1796875 9.05078125 C-20.41921862 4.58310246 -17.97159522 2.51397256 -13.8671875 0.11328125 C-8.85102243 -1.33205445 -4.82971392 -2.10326251 0 0 Z M32.8203125 49.05078125 C34.58233455 53.20708031 37.39817773 56.49554323 40.1953125 59.98828125 C40.67742187 60.59607422 41.15953125 61.20386719 41.65625 61.83007812 C43.04040636 63.57343811 44.42935213 65.3128473 45.8203125 67.05078125 C46.98433594 68.50677734 46.98433594 68.50677734 48.171875 69.9921875 C48.71585938 70.67152344 49.25984375 71.35085937 49.8203125 72.05078125 C52.96342744 71.3602351 52.96342744 71.3602351 54.20703125 68.79296875 C57.75913369 61.23955137 57.75913369 61.23955137 57.8203125 53.05078125 C56.6416462 50.45165874 56.6416462 50.45165874 53.8203125 49.05078125 C46.80497199 47.57813952 39.86579429 48.0573836 32.8203125 49.05078125 Z M48.8203125 97.05078125 C46.49440396 100.68501334 46.65765417 103.82166456 46.8203125 108.05078125 C51.9671317 111.2180546 55.9785685 111.40128589 61.8203125 111.05078125 C56.54389842 103.87058299 56.54389842 103.87058299 50.8203125 97.05078125 C50.1603125 97.05078125 49.5003125 97.05078125 48.8203125 97.05078125 Z M-45.1796875 104.05078125 C-45.8396875 105.16453125 -46.4996875 106.27828125 -47.1796875 107.42578125 C-47.5509375 108.05226563 -47.9221875 108.67875 -48.3046875 109.32421875 C-49.33037098 111.02550792 -49.33037098 111.02550792 -49.1796875 113.05078125 C-46.7046875 113.54578125 -46.7046875 113.54578125 -44.1796875 114.05078125 C-44.1796875 110.75078125 -44.1796875 107.45078125 -44.1796875 104.05078125 C-44.5096875 104.05078125 -44.8396875 104.05078125 -45.1796875 104.05078125 Z M-4.1796875 114.05078125 C-5.8296875 118.34078125 -7.4796875 122.63078125 -9.1796875 127.05078125 C-7.8596875 127.38078125 -6.5396875 127.71078125 -5.1796875 128.05078125 C-3.45039913 121.13919087 -3.45039913 121.13919087 -3.1796875 114.05078125 C-3.5096875 114.05078125 -3.8396875 114.05078125 -4.1796875 114.05078125 Z M89.8203125 122.05078125 C91.17150095 124.9493438 92.71729891 127.3742185 94.69140625 129.88671875 C95.54436279 130.97750732 95.54436279 130.97750732 96.41455078 132.09033203 C97.02282715 132.86103027 97.63110352 133.63172852 98.2578125 134.42578125 C98.88671387 135.22870605 99.51561523 136.03163086 100.16357422 136.85888672 C103.02365149 140.50775083 105.89561584 144.14718777 108.76953125 147.78515625 C109.21748047 148.35290771 109.66542969 148.92065918 110.12695312 149.50561523 C111.00314387 150.61561911 111.88074069 151.72451459 112.75976562 152.83227539 C115.24987778 155.98767415 117.66398179 159.18584723 120.02734375 162.4375 C120.56601074 163.17403809 121.10467773 163.91057617 121.65966797 164.66943359 C122.70313118 166.10184429 123.73775577 167.54074742 124.76220703 168.98681641 C125.46966064 169.95627197 125.46966064 169.95627197 126.19140625 170.9453125 C126.60318115 171.52128174 127.01495605 172.09725098 127.43920898 172.69067383 C129.14040607 174.36600863 130.49670842 174.66356541 132.8203125 175.05078125 C133.63787488 172.9902827 134.44915984 170.92729272 135.2578125 168.86328125 C135.71027344 167.71472656 136.16273438 166.56617188 136.62890625 165.3828125 C139.85399122 156.36314863 139.67446728 147.83119724 135.8203125 139.05078125 C130.36256254 130.24395745 123.76223982 125.65225223 113.8203125 123.05078125 C108.66545216 121.94510106 103.68787505 121.93393252 98.4453125 121.98828125 C97.19814453 121.99504883 97.19814453 121.99504883 95.92578125 122.00195312 C93.89059353 122.01364961 91.85544327 122.0315819 89.8203125 122.05078125 Z M-55.1796875 128.05078125 C-63.80489589 159.10290125 -63.80489589 159.10290125 -67.1796875 191.05078125 C-65.3149016 188.2536024 -64.35493084 186.02643809 -63.26171875 182.87890625 C-62.89763916 181.83275146 -62.53355957 180.78659668 -62.15844727 179.70874023 C-61.77358154 178.58411377 -61.38871582 177.4594873 -60.9921875 176.30078125 C-60.59507568 175.14586182 -60.19796387 173.99094238 -59.78881836 172.80102539 C-57.15222532 165.06663175 -54.63107146 157.30268944 -52.2421875 149.48828125 C-51.96028564 148.56885742 -51.67838379 147.64943359 -51.38793945 146.70214844 C-49.73156645 141.19137671 -48.36316816 135.68231967 -47.1796875 130.05078125 C-50.08569011 128.79413147 -51.97573334 128.05078125 -55.1796875 128.05078125 Z M35.8203125 131.05078125 C34.5003125 134.35078125 33.1803125 137.65078125 31.8203125 141.05078125 C34.2953125 141.54578125 34.2953125 141.54578125 36.8203125 142.05078125 C37.66129906 138.03273434 37.87436195 135.03274582 36.8203125 131.05078125 C36.4903125 131.05078125 36.1603125 131.05078125 35.8203125 131.05078125 Z M-37.1796875 133.05078125 C-37.43548584 133.94458496 -37.69128418 134.83838867 -37.95483398 135.75927734 C-42.7454857 152.43531291 -47.63967078 169.0111003 -53.48608398 185.35302734 C-54.01890991 186.84310303 -54.01890991 186.84310303 -54.5625 188.36328125 C-54.87590332 189.22566406 -55.18930664 190.08804688 -55.51220703 190.9765625 C-56.28179694 193.0049281 -56.28179694 193.0049281 -56.1796875 195.05078125 C-54.59646556 195.07883046 -53.0130805 195.09762623 -51.4296875 195.11328125 C-50.54796875 195.12488281 -49.66625 195.13648438 -48.7578125 195.1484375 C-43.54672317 195.00621345 -38.37041193 194.51811505 -33.1796875 194.05078125 C-33.01887695 193.0649707 -32.85806641 192.07916016 -32.69238281 191.06347656 C-26.79515298 154.9796667 -26.79515298 154.9796667 -23.1796875 138.05078125 C-24.76168381 137.40167971 -26.34534474 136.75663431 -27.9296875 136.11328125 C-28.81140625 135.75363281 -29.693125 135.39398438 -30.6015625 135.0234375 C-32.796218 134.19545383 -34.90460665 133.59417881 -37.1796875 133.05078125 Z M-13.1796875 141.05078125 C-16.31777851 153.34492523 -18.98125878 165.40467522 -20.1796875 178.05078125 C-18.06210014 174.87440021 -17.15138896 172.19137873 -16.015625 168.5546875 C-15.72022324 167.60975685 -15.72022324 167.60975685 -15.41885376 166.64573669 C-15.00467465 165.31592848 -14.59297483 163.98534585 -14.18359375 162.65405273 C-13.55727261 160.62166981 -12.91980485 158.59302087 -12.28125 156.56445312 C-11.87952965 155.26974163 -11.47846596 153.97482618 -11.078125 152.6796875 C-10.53164307 150.91733765 -10.53164307 150.91733765 -9.97412109 149.11938477 C-9.01260215 145.93368755 -9.01260215 145.93368755 -9.1796875 142.05078125 C-10.4996875 141.72078125 -11.8196875 141.39078125 -13.1796875 141.05078125 Z M1.8203125 146.05078125 C-0.34785507 151.69757825 -2.29272379 157.37233863 -4.09765625 163.14453125 C-4.35976395 163.97666138 -4.62187164 164.8087915 -4.891922 165.6661377 C-5.71905617 168.29371405 -6.54317147 170.92222558 -7.3671875 173.55078125 C-7.93144036 175.34511507 -8.49589161 177.13938652 -9.06054688 178.93359375 C-10.435887 183.30527227 -11.8085227 187.67779145 -13.1796875 192.05078125 C-9.38771301 191.91233278 -5.5962016 191.76377381 -1.8046875 191.61328125 C-0.72445312 191.57396484 0.35578125 191.53464844 1.46875 191.49414062 C3.015625 191.43129883 3.015625 191.43129883 4.59375 191.3671875 C5.54685059 191.33052979 6.49995117 191.29387207 7.48193359 191.25610352 C9.84163599 191.1931466 9.84163599 191.1931466 11.8203125 190.05078125 C12.56279994 186.96522459 12.56279994 186.96522459 13.07421875 183.19921875 C13.17999741 182.50696198 13.28577606 181.8147052 13.39476013 181.10147095 C13.73254797 178.87741843 14.05778449 176.65173067 14.3828125 174.42578125 C14.60530353 172.94779356 14.82860126 171.46992706 15.05273438 169.9921875 C16.00543828 163.68270686 16.92155103 157.36814041 17.8203125 151.05078125 C15.52998939 150.21358742 13.23820293 149.38088835 10.9453125 148.55078125 C10.29433594 148.31230469 9.64335937 148.07382813 8.97265625 147.828125 C5.48573661 146.50200592 5.48573661 146.50200592 1.8203125 146.05078125 Z M71.8203125 148.05078125 C71.1603125 150.03078125 70.5003125 152.01078125 69.8203125 154.05078125 C71.1403125 154.38078125 72.4603125 154.71078125 73.8203125 155.05078125 C73.4903125 152.74078125 73.1603125 150.43078125 72.8203125 148.05078125 C72.4903125 148.05078125 72.1603125 148.05078125 71.8203125 148.05078125 Z M27.8203125 154.05078125 C27.11883417 157.46473187 26.43659014 160.88225094 25.7578125 164.30078125 C25.55865234 165.26886719 25.35949219 166.23695313 25.15429688 167.234375 C24.97060547 168.16894531 24.78691406 169.10351562 24.59765625 170.06640625 C24.42484131 170.92524414 24.25202637 171.78408203 24.07397461 172.66894531 C23.81476462 175.10287476 24.06946641 176.73976588 24.8203125 179.05078125 C26.18967178 175.61913926 27.53813713 172.17966244 28.8828125 168.73828125 C29.27275391 167.76181641 29.66269531 166.78535156 30.06445312 165.77929688 C30.42861328 164.84150391 30.79277344 163.90371094 31.16796875 162.9375 C31.50836182 162.07342529 31.84875488 161.20935059 32.19946289 160.3190918 C33.0833981 157.91427549 33.0833981 157.91427549 31.8203125 155.05078125 C29.80522892 154.31754329 29.80522892 154.31754329 27.8203125 154.05078125 Z M42.8203125 159.05078125 C42.34980469 160.41332031 41.87929688 161.77585938 41.39453125 163.1796875 C40.76575746 164.99093141 40.13684379 166.80212676 39.5078125 168.61328125 C39.19908203 169.50853516 38.89035156 170.40378906 38.57226562 171.32617188 C37.19484019 175.28445761 35.80243911 179.18871438 34.08984375 183.015625 C32.62737269 185.96372798 32.62737269 185.96372798 32.8203125 189.05078125 C38.7603125 188.72078125 44.7003125 188.39078125 50.8203125 188.05078125 C52.49773393 182.24675198 52.49773393 182.24675198 53.671875 176.4296875 C53.80078125 175.64013672 53.9296875 174.85058594 54.0625 174.03710938 C54.25199219 172.83731445 54.25199219 172.83731445 54.4453125 171.61328125 C54.579375 170.78634766 54.7134375 169.95941406 54.8515625 169.10742188 C55.17822025 167.0891436 55.49979465 165.07004368 55.8203125 163.05078125 C51.5303125 161.73078125 47.2403125 160.41078125 42.8203125 159.05078125 Z M65.8203125 167.05078125 C65.4696875 168.30890625 65.1190625 169.56703125 64.7578125 170.86328125 C64.56058594 171.57097656 64.36335937 172.27867187 64.16015625 173.0078125 C63.62467433 175.24322284 63.62467433 175.24322284 64.8203125 178.05078125 C65.49150799 176.59452675 66.15713057 175.13570258 66.8203125 173.67578125 C67.1915625 172.86367187 67.5628125 172.0515625 67.9453125 171.21484375 C68.94526263 169.13079692 68.94526263 169.13079692 68.8203125 167.05078125 C67.8303125 167.05078125 66.8403125 167.05078125 65.8203125 167.05078125 Z M78.8203125 171.05078125 C77.81813189 173.36235855 76.81847592 175.67497009 75.8203125 177.98828125 C75.53414062 178.64763672 75.24796875 179.30699219 74.953125 179.98632812 C73.46529252 182.91656622 73.46529252 182.91656622 72.8203125 186.05078125 C77.33707185 185.78687466 81.85365943 185.52023951 86.37011719 185.2512207 C87.90230087 185.16032572 89.43452677 185.07013923 90.96679688 184.98071289 C99.27040679 184.49561296 107.55014082 183.96329522 115.8203125 183.05078125 C112.61175468 180.9117427 109.4823595 179.82645385 105.8515625 178.66796875 C104.83648621 178.33927292 104.83648621 178.33927292 103.80090332 178.00393677 C102.37272614 177.54281545 100.94379122 177.08403526 99.51416016 176.62744141 C97.32620519 175.92766591 95.14153452 175.21828003 92.95703125 174.5078125 C91.56789491 174.06061792 90.17857786 173.61398424 88.7890625 173.16796875 C88.13587036 172.95550507 87.48267822 172.74304138 86.80969238 172.5241394 C84.01581638 171.63779648 81.7734967 171.05078125 78.8203125 171.05078125 Z M-68.1796875 192.05078125 C-67.1796875 194.05078125 -67.1796875 194.05078125 -67.1796875 194.05078125 Z M105.0703125 192.98828125 C103.87792969 193.07529297 102.68554688 193.16230469 101.45703125 193.25195312 C95.26764745 193.6807522 95.26764745 193.6807522 89.12988281 194.53930664 C84.34694258 195.2784819 79.5558224 195.49866937 74.7265625 195.76953125 C73.12923279 195.86373352 73.12923279 195.86373352 71.49963379 195.95983887 C66.95950041 196.22749265 62.41894502 196.48765936 57.87841797 196.74853516 C54.55680966 196.9404503 51.23543911 197.13615358 47.9140625 197.33203125 C46.89203735 197.38935425 45.87001221 197.44667725 44.8170166 197.5057373 C40.07508662 197.78574985 35.50424582 198.23972465 30.8203125 199.05078125 C28.14062924 199.24917425 25.47171026 199.41792459 22.7890625 199.55078125 C22.03492065 199.59138672 21.28077881 199.63199219 20.50378418 199.67382812 C17.30176866 199.84613092 14.09936197 200.01059655 10.89697266 200.17578125 C8.54834975 200.29806058 6.1999642 200.42433561 3.8515625 200.55078125 C3.13577026 200.58623047 2.41997803 200.62167969 1.68249512 200.65820312 C-1.25654209 200.81677864 -4.12199735 201.04089475 -7.02456665 201.53831482 C-10.18153066 202.05108062 -13.26944979 202.32626389 -16.46044922 202.53149414 C-18.29166824 202.65150536 -18.29166824 202.65150536 -20.15988159 202.77394104 C-22.11488083 202.89744179 -22.11488083 202.89744179 -24.109375 203.0234375 C-25.46845181 203.11142468 -26.82751124 203.19968054 -28.18655396 203.28819275 C-31.74718656 203.51937142 -35.30804202 203.74692023 -38.86895752 203.97369385 C-42.50913517 204.20616673 -46.14908841 204.44209949 -49.7890625 204.67773438 C-56.91905592 205.13878817 -64.04929072 205.5960046 -71.1796875 206.05078125 C-82.48661136 242.86301808 -78.01759455 269.68627507 -60.4296875 303.36328125 C-56.06566172 311.58819038 -51.46057082 319.6773276 -46.86743164 327.77563477 C-31.217926 355.36959016 -17.05518446 384.72743354 -16.1796875 417.05078125 C-16.13303955 418.06277588 -16.13303955 418.06277588 -16.08544922 419.09521484 C-15.24782387 437.6702935 -18.59842646 453.10275152 -28.1796875 469.05078125 C-28.85553146 470.37948632 -29.52422715 471.71190338 -30.1796875 473.05078125 C-29.5189624 472.995271 -28.8582373 472.93976074 -28.17749023 472.88256836 C-20.77784643 472.28614323 -13.37525769 471.80673423 -5.96484375 471.3671875 C-4.94135834 471.30622894 -3.91787292 471.24527039 -2.8633728 471.1824646 C1.40419118 470.92893741 5.67180196 470.67636036 9.93969727 470.4284668 C22.09730106 469.72015668 34.22877524 468.91794693 46.35032654 467.73194885 C53.10749309 467.07680667 59.86150843 466.6705212 66.64430237 466.39329529 C69.61354454 466.26358915 72.50491346 466.10812385 75.43212891 465.57592773 C79.945009 464.87646059 84.44281651 464.64936198 89 464.40234375 C91.050147 464.28496091 93.10027656 464.16727303 95.15039062 464.04931641 C96.75442749 463.95834686 96.75442749 463.95834686 98.39086914 463.86553955 C121.37211428 462.55481911 121.37211428 462.55481911 144.32574463 460.83953857 C146.2614741 460.68061198 148.19886724 460.54237141 150.13623047 460.40478516 C159.90116347 459.53303681 167.39322333 456.7275822 173.8203125 449.05078125 C175.61979557 446.45392244 177.24385862 443.78768035 178.8203125 441.05078125 C179.3565625 440.16390625 179.8928125 439.27703125 180.4453125 438.36328125 C184.51274952 428.56445571 185.34560113 418.4931817 185.2578125 407.98828125 C185.25168945 406.72838379 185.24556641 405.46848633 185.23925781 404.17041016 C185.01357752 390.53758442 183.02349916 377.31695971 177.84765625 364.6328125 C176.98401936 362.46222701 176.28662012 360.32996195 175.59765625 358.1015625 C173.45574225 351.6224561 170.42682906 345.55100983 167.4453125 339.42578125 C167.13762939 338.78972961 166.82994629 338.15367798 166.51293945 337.49835205 C161.92149559 328.02561836 157.00621743 318.80293673 151.73706055 309.68652344 C147.37463461 302.11833003 143.27374707 294.43121033 139.2578125 286.67578125 C138.67386719 285.55220215 138.08992187 284.42862305 137.48828125 283.27099609 C132.87019379 274.31131297 128.7348698 265.68140445 126.1328125 255.92578125 C125.92076172 255.16652344 125.70871094 254.40726563 125.49023438 253.625 C119.88979371 233.09593988 123.30267133 212.19285 128.8203125 192.05078125 C120.86208098 191.8968613 113.00253892 192.37577089 105.0703125 192.98828125 Z " fill="#37895F" transform="translate(229.1796875,13.94921875)"/>
<path d="M0 0 C1.33691406 1.64794922 1.33691406 1.64794922 2.515625 3.8046875 C2.9583374 4.60632324 3.4010498 5.40795898 3.85717773 6.23388672 C4.31680908 7.1054541 4.77644043 7.97702148 5.25 8.875 C5.73090088 9.77105957 6.21180176 10.66711914 6.70727539 11.59033203 C13.72733653 24.90218862 19.26218256 38.41881119 23 53 C23.3403125 54.15113281 23.680625 55.30226563 24.03125 56.48828125 C30.03687304 78.25866478 29.38151192 103.35627853 18.62890625 123.40625 C16.20999648 127.25794326 13.59335216 130.21979865 10 133 C9.46375 133.43183594 8.9275 133.86367188 8.375 134.30859375 C1.732238 138.59376834 -7.42723444 137.92398244 -15 137 C-20.3541028 135.57173007 -24.13726738 132.77122103 -27 128 C-30.25600489 120.78054917 -30.50421173 113.82534036 -30.4375 106 C-30.43210205 104.77829102 -30.4267041 103.55658203 -30.42114258 102.29785156 C-30.21955892 89.9542385 -28.34534427 78.09169664 -26 66 C-25.69849269 64.36625841 -25.39886894 62.73216753 -25.1015625 61.09765625 C-24.61956648 58.46417107 -24.12301763 55.83544845 -23.61328125 53.20703125 C-23.41089844 52.14871094 -23.20851562 51.09039062 -23 50 C-22.814375 49.11054688 -22.62875 48.22109375 -22.4375 47.3046875 C-21.77633227 42.3105098 -21.7340714 37.34531559 -21.6875 32.3125 C-21.65849609 31.28705078 -21.62949219 30.26160156 -21.59960938 29.20507812 C-21.51089701 18.40264142 -24.85388409 9.79096087 -31 1 C-25.27724383 0.07873775 -19.59928958 -0.33587311 -13.8125 -0.625 C-12.47928711 -0.70234375 -12.47928711 -0.70234375 -11.11914062 -0.78125 C-10.26126953 -0.82507813 -9.40339844 -0.86890625 -8.51953125 -0.9140625 C-7.74714111 -0.9548291 -6.97475098 -0.9955957 -6.17895508 -1.03759766 C-3.8673832 -0.99771171 -2.15433514 -0.85399091 0 0 Z " fill="#A0BB94" transform="translate(177,351)"/>
<path d="M0 0 C17.69386379 -0.96928537 17.69386379 -0.96928537 24.76367188 4.20947266 C30.49748302 9.86301044 33.86648497 15.61140678 34.15429688 23.63525391 C34.09521072 31.86511173 31.57659491 36.62125281 26.33398438 42.75244141 C20.74022576 48.15441401 13.17372254 49.07421545 5.75976562 49.48950195 C0.90950132 49.82526352 -3.02715463 50.12674782 -6.95898438 53.28369141 C-9.25781825 56.13375542 -11.26028545 59.08398848 -13.28320312 62.13525391 C-15.08385506 64.41055743 -16.96216866 66.61591138 -18.84570312 68.82275391 C-19.70232905 69.84652635 -20.55790523 70.87117868 -21.41210938 71.89697266 C-22.02957031 72.63560547 -22.64703125 73.37423828 -23.28320312 74.13525391 C-27.15820312 73.26025391 -27.15820312 73.26025391 -28.28320312 72.13525391 C-28.50943833 70.65087582 -28.67733277 69.15747965 -28.81835938 67.66259766 C-28.90537109 66.76347656 -28.99238281 65.86435547 -29.08203125 64.93798828 C-29.16904297 63.99246094 -29.25605469 63.04693359 -29.34570312 62.07275391 C-29.43658203 61.12335938 -29.52746094 60.17396484 -29.62109375 59.19580078 C-29.8457681 56.84263255 -30.06628494 54.48914772 -30.28320312 52.13525391 C-30.88358398 52.02060791 -31.48396484 51.90596191 -32.10253906 51.7878418 C-39.36599503 50.30680756 -44.52203584 48.1502515 -48.85742188 41.84619141 C-52.76496165 34.97160854 -54.53529802 28.89701262 -52.82226562 21.01416016 C-50.33959446 13.52233481 -45.29787475 7.74532544 -38.28320312 4.13134766 C-31.94268591 2.0260978 -25.21215637 1.76224406 -18.58251953 1.29833984 C-16.58889466 1.156936 -14.59776031 0.98121769 -12.60742188 0.79931641 C-8.40809444 0.4341575 -4.20687428 0.24920962 0 0 Z " fill="#398A60" transform="translate(273.283203125,353.86474609375)"/>
<path d="M0 0 C4.46417309 4.81174861 7.26607519 10.08502339 7.54296875 16.73046875 C7.23978904 24.15837169 5.007667 30.37623064 -0.08203125 35.84765625 C-3.81882275 39.0673025 -7.86102529 41.35546875 -12.83203125 41.35546875 C-12.66703125 42.38671875 -12.50203125 43.41796875 -12.33203125 44.48046875 C-11.52928375 50.74416053 -11.75237187 57.05352664 -11.83203125 63.35546875 C-13.515625 64.12890625 -13.515625 64.12890625 -15.83203125 64.35546875 C-18.2421875 62.58203125 -18.2421875 62.58203125 -20.89453125 59.98046875 C-21.89156414 59.0568997 -22.88896865 58.13373169 -23.88671875 57.2109375 C-25.75730785 55.43743572 -27.44259361 53.66164789 -29.15234375 51.71875 C-35.65020254 45.06005312 -41.00677733 44.62801727 -50.08203125 44.48046875 C-52.14974614 44.50332084 -54.21745489 44.52673628 -56.28515625 44.55078125 C-63.07697291 44.53424921 -68.25380683 42.62786171 -73.41015625 37.984375 C-78.55920522 32.08560187 -80.59215411 25.71498521 -80.1875 17.9609375 C-79.17352595 10.52884196 -76.11120235 4.73979469 -70.18237305 0.05078125 C-63.29280996 -4.36237665 -56.02152037 -4.77538326 -48.07836914 -5.3034668 C-45.79684631 -5.45521448 -43.51915134 -5.63574382 -41.24023438 -5.82226562 C-9.27492049 -8.32567489 -9.27492049 -8.32567489 0 0 Z " fill="#388960" transform="translate(339.83203125,290.64453125)"/>
<path d="M0 0 C6.33749594 2.73406882 9.55212631 7.74529328 12.1875 13.9375 C16.79444293 28.26160826 12.61806455 43.62427075 9.8125 57.9375 C5.09286868 59.0827972 0.40453345 59.25316029 -4.42578125 59.47265625 C-5.30654831 59.51563339 -6.18731537 59.55861053 -7.09477234 59.60289001 C-9.89635836 59.73878523 -12.69815968 59.86946381 -15.5 60 C-17.40431345 60.09145237 -19.30861057 60.1832454 -21.21289062 60.27539062 C-25.87091381 60.50004114 -30.52913699 60.72001475 -35.1875 60.9375 C-36.66326343 54.69698125 -37.54531181 48.98167377 -37.5 42.5625 C-37.49508545 41.73177979 -37.4901709 40.90105957 -37.48510742 40.04516602 C-37.2526628 27.82811506 -33.43232746 15.67085862 -24.9765625 6.54296875 C-17.19201414 -0.44272857 -10.09156546 -3.02555473 0 0 Z " fill="#C6D3C0" transform="translate(133.1875,355.0625)"/>
<path d="M0 0 C4.42050339 0.45014279 6.44849013 2.41607013 9.4140625 5.47265625 C10.44976461 6.48254697 11.48621956 7.4916662 12.5234375 8.5 C13.01650391 8.98968262 13.50957031 9.47936523 14.01757812 9.98388672 C16.686398 12.59018529 19.5607062 14.948243 22.4140625 17.34765625 C21.77289526 23.17071614 18.44033204 26.31513946 14.73046875 30.6171875 C12.46073876 33.1881685 12.46073876 33.1881685 10.94140625 35.546875 C8.74809851 38.7462872 7.2584211 40.09872184 3.47265625 41.21484375 C-2.87874203 42.28935609 -9.15734443 42.56557466 -15.5859375 42.34765625 C-16.2459375 41.02765625 -16.9059375 39.70765625 -17.5859375 38.34765625 C-16.81507813 37.46722656 -16.04421875 36.58679688 -15.25 35.6796875 C-14.23663319 34.50680925 -13.22363152 33.33361545 -12.2109375 32.16015625 C-11.70304687 31.58201172 -11.19515625 31.00386719 -10.671875 30.40820312 C-10.18203125 29.83779297 -9.6921875 29.26738281 -9.1875 28.6796875 C-8.73713379 28.16124268 -8.28676758 27.64279785 -7.82275391 27.10864258 C-6.20328589 24.94618473 -6.20328589 24.94618473 -4.5859375 20.34765625 C-9.5359375 15.72765625 -14.4859375 11.10765625 -19.5859375 6.34765625 C-18.5859375 2.34765625 -18.5859375 2.34765625 -17.5859375 1.34765625 C-15.38260848 1.10842079 -13.1723591 0.93180842 -10.9609375 0.78515625 C-9.75179688 0.70136719 -8.54265625 0.61757813 -7.296875 0.53125 C-4.86112467 0.41074446 -2.42734845 0.23533117 0 0 Z " fill="#3B8B62" transform="translate(322.5859375,411.65234375)"/>
<path d="M0 0 C1.02577148 0.00676758 1.02577148 0.00676758 2.07226562 0.01367188 C3.73571604 0.0253044 5.3991205 0.04323306 7.0625 0.0625 C7.70019531 1.87133789 7.70019531 1.87133789 8.0625 4.0625 C6.38555144 6.39060411 4.74344152 8.40375455 2.8125 10.5 C-0.51308466 14.19556659 -3.5379796 17.66611845 -5.9375 22.0625 C-5.34420898 22.33433105 -4.75091797 22.60616211 -4.13964844 22.88623047 C-1.98491637 24.03717272 -0.47548878 25.21679055 1.296875 26.8828125 C1.87050781 27.41777344 2.44414062 27.95273437 3.03515625 28.50390625 C3.62167969 29.05949219 4.20820313 29.61507813 4.8125 30.1875 C5.41449219 30.75082031 6.01648438 31.31414062 6.63671875 31.89453125 C8.11584151 33.27974146 9.58969641 34.6705729 11.0625 36.0625 C10.40625 38.015625 10.40625 38.015625 9.0625 40.0625 C5.13545535 41.03183381 1.09558581 40.91601989 -2.9375 41.0625 C-3.81664062 41.18367188 -4.69578125 41.30484375 -5.6015625 41.4296875 C-9.7183666 41.86097174 -12.02793146 41.68782837 -15.5 39.30078125 C-18.08621195 36.97870985 -20.50614433 34.54525018 -22.9375 32.0625 C-25.0847731 30.23714099 -27.25675616 28.44821681 -29.44140625 26.66796875 C-31.31574078 24.65660715 -31.97711754 23.84563228 -31.9375 21.0625 C-30.32514809 18.7655741 -28.75272067 16.8082479 -26.875 14.75 C-25.84737071 13.5927014 -24.82002451 12.43515136 -23.79296875 11.27734375 C-23.29587402 10.7241748 -22.7987793 10.17100586 -22.28662109 9.60107422 C-20.65665288 7.74221435 -19.18149134 5.78129407 -17.6875 3.8125 C-12.88148453 -0.99351547 -6.49755245 -0.05750046 0 0 Z " fill="#3A8B61" transform="translate(194.9375,240.9375)"/>
<path d="M0 0 C2.781337 2.28480822 5.31707649 4.69613096 7.86328125 7.23828125 C9.42020275 8.49522265 10.98214658 9.74598841 12.55078125 10.98828125 C14.81191262 12.7826861 15.71108114 13.67026646 16.4609375 16.46875 C15.50989936 20.87584833 12.6080866 23.53984223 9.61328125 26.80078125 C9.02675781 27.46013672 8.44023437 28.11949219 7.8359375 28.79882812 C6.69817897 30.0708166 5.54989857 31.33349011 4.39013672 32.58544922 C3.16139988 33.91556569 1.97069094 35.28075937 0.79296875 36.65625 C-1.75911009 38.74854135 -3.49025351 38.83290823 -6.76171875 38.98828125 C-7.81101562 39.04371094 -8.8603125 39.09914063 -9.94140625 39.15625 C-14.34258164 39.26923861 -18.7347349 39.32593137 -23.13671875 39.23828125 C-23.35812333 36.41750176 -23.44549489 34.74143222 -21.94335938 32.29370117 C-21.39873047 31.69146729 -20.85410156 31.0892334 -20.29296875 30.46875 C-19.70644531 29.80810547 -19.11992187 29.14746094 -18.515625 28.46679688 C-17.89558594 27.79326172 -17.27554687 27.11972656 -16.63671875 26.42578125 C-16.01667969 25.73291016 -15.39664062 25.04003906 -14.7578125 24.32617188 C-13.22814611 22.62000552 -11.68785085 20.92491527 -10.13671875 19.23828125 C-14.50869707 14.75420093 -19.19671026 10.75473743 -24.00390625 6.73828125 C-26.13671875 4.23828125 -26.13671875 4.23828125 -25.95703125 1.42578125 C-25.68632812 0.70390625 -25.415625 -0.01796875 -25.13671875 -0.76171875 C-6.40242304 -3.59588143 -6.40242304 -3.59588143 0 0 Z " fill="#3A8A61" transform="translate(378.13671875,410.76171875)"/>
<path d="M0 0 C0.77923828 0.00902344 1.55847656 0.01804688 2.36132812 0.02734375 C4.26185447 0.05066309 6.16222008 0.08652414 8.0625 0.125 C8.73413086 1.89550781 8.73413086 1.89550781 9.0625 4.125 C7.98266602 5.95605469 7.98266602 5.95605469 6.31640625 7.796875 C5.72666016 8.46074219 5.13691406 9.12460938 4.52929688 9.80859375 C3.90087891 10.49050781 3.27246094 11.17242187 2.625 11.875 C1.68817383 12.92107422 1.68817383 12.92107422 0.73242188 13.98828125 C-0.81327633 15.7109678 -2.36990211 17.42225891 -3.9375 19.125 C-2.12522651 23.08767726 0.21791367 25.29769491 3.5 28.1875 C9.6669708 33.64826642 9.6669708 33.64826642 12.0625 36.125 C11.4025 37.445 10.7425 38.765 10.0625 40.125 C-7.95014176 43.11242673 -7.95014176 43.11242673 -14.27294922 39.9609375 C-18.24503425 37.03324903 -21.43700392 33.48253013 -24.56689453 29.68994141 C-26.46062388 27.52770323 -28.63278203 25.82922265 -30.9375 24.125 C-30.45075481 19.56582005 -28.83395853 17.51106463 -25.6875 14.25 C-22.91566276 11.32077137 -20.4452875 8.54604841 -18.3125 5.125 C-13.72758343 -0.66647356 -6.83800396 -0.15234628 0 0 Z " fill="#3A8A61" transform="translate(242.9375,237.875)"/>
</svg>
